<svg version="1" xmlns="http://www.w3.org/2000/svg" width="677.333" height="677.333" viewBox="0 0 508 508"><path d="M192.3 32c-1.7.5-1.8 3.3-1.7 62.5.1 34.1.2 62.5.3 63.2.1.9 14.7 1.2 63.3 1l63.3-.2V95.7c0-37.4-.4-63.1-.9-63.5-1.1-.7-121.8-.9-124.3-.2zm157.2 159c-.1.3-.2 28.8-.1 63.5l.1 63h63.3c41.6 0 63.2-.3 63.3-1 .4-5.4.3-123-.2-124.3-.6-1.6-5-1.7-63.3-1.7-34.6 0-62.9.2-63.1.5zM32.6 352.3c1.1 5.4 9.1 23.1 14.3 31.9 7.9 13.4 16.6 24.4 28.5 36.4 16.7 16.6 33 28.2 54.1 38.3 8.6 4.2 25.7 10.9 32 12.6 1.7.4 3.5.9 4 1.1 3.4 1 13.3 3.7 15 4 11.1 2.4 19.7 3.9 29 5 3.3.3 6.9.8 8 1 3.2.6 25.1 1.6 36 1.7 10.5 0 36.5-1.2 37.4-1.7.3-.2 3.5-.7 7.1-1.1 3.6-.3 7.6-.8 9-1 6.3-.9 10.6-1.6 11.9-2.1.8-.2 3-.7 5-1 6.2-.9 27.2-7.1 37.1-10.9 10.3-3.9 30-13.6 36.5-17.8 17.8-11.8 22.1-15.2 35.6-28.6 13.7-13.8 22.8-25.8 31.6-42.1 3.6-6.6 11.3-25.3 11.3-27.3 0-1.3-27.9-1.5-222.1-1.5h-222l.7 3.1z"/></svg>