<?xml version="1.0" standalone="no"?>
<!DOCTYPE svg PUBLIC "-//W3C//DTD SVG 20010904//EN"
 "http://www.w3.org/TR/2001/REC-SVG-20010904/DTD/svg10.dtd">
<svg version="1.0" xmlns="http://www.w3.org/2000/svg"
 width="508.000000pt" height="508.000000pt" viewBox="0 0 508.000000 508.000000"
 preserveAspectRatio="xMidYMid meet">
<metadata>
Created by potrace 1.11, written by Peter Selinger 2001-2013
</metadata>
<g transform="translate(0.000000,508.000000) scale(0.100000,-0.100000)"
fill="#000000" stroke="none">
<path d="M1923 4760 c-17 -5 -18 -33 -17 -625 1 -341 2 -625 3 -632 1 -9 147
-12 633 -10 l633 2 0 628 c0 374 -4 631 -9 635 -11 7 -1218 9 -1243 2z"/>
<path d="M3495 3170 c-1 -3 -2 -288 -1 -635 l1 -630 633 0 c416 0 632 3 633
10 4 54 3 1230 -2 1243 -6 16 -50 17 -633 17 -346 0 -629 -2 -631 -5z"/>
<path d="M326 1557 c11 -54 91 -231 143 -319 79 -134 166 -244 285 -364 167
-166 330 -282 541 -383 86 -42 257 -109 320 -126 17 -4 35 -9 40 -11 34 -10
133 -37 150 -40 111 -24 197 -39 290 -50 33 -3 69 -8 80 -10 32 -6 251 -16
360 -17 105 0 365 12 374 17 3 2 35 7 71 11 36 3 76 8 90 10 63 9 106 16 119
21 8 2 30 7 50 10 62 9 272 71 371 109 103 39 300 136 365 178 178 118 221
152 356 286 137 138 228 258 316 421 36 66 113 253 113 273 0 13 -279 15
-2221 15 l-2220 0 7 -31z"/>
</g>
</svg>
