<svg xmlns="http://www.w3.org/2000/svg" viewBox="0 0 448.25 126.79"><defs><style>.cls-1{fill:#fefefe;}.cls-2{fill:#6ebe44;}.cls-3{fill:#4067b0;}.cls-4{fill:#2c66b1;}</style></defs><title>camara-logo</title><g id="Layer_2" data-name="Layer 2"><g id="Layer_1-2" data-name="Layer 1"><g id="homepage"><g id="Câmara"><g id="Page-1"><polygon id="Fill-1" class="cls-1" points="0 126.79 448.25 126.79 448.25 0 0 0 0 126.79"/><g id="Group-10"><path id="Fill-2" class="cls-2" d="M4.46,122.39H122v-24L4.46,100.28ZM380.08,71.46c-7.93,0-11.14,6.83-11.14,12.83,0,6.28,2.84,13.93,11.14,13.93s11.13-7.65,11.13-13.93C391.21,78.29,388,71.46,380.08,71.46ZM258.32,30.28a155.07,155.07,0,0,1-5.16,14.89h10.09c-1.63-4.51-3.21-9-4.84-14.89Zm52.66,0a155.12,155.12,0,0,1-5.16,14.89h10.1c-1.63-4.51-3.21-9-4.84-14.89ZM339.75,72h-5.92V97.67h5c9,0,13.38-4.49,13.38-13.88C352.17,76.64,348.18,72,339.75,72ZM192,30.28a156.74,156.74,0,0,1-5.16,14.89h10.1c-1.63-4.51-3.21-9-4.84-14.89ZM348.86,28.7h-6V54.75h5c9.17,0,13.59-4.56,13.59-14.1C361.46,33.4,357.42,28.7,348.86,28.7Zm-40,44.87a153.66,153.66,0,0,1-5.09,14.66h9.95c-1.6-4.44-3.16-8.89-4.76-14.66Zm75.39-45.43c-8,0-11.3,6.93-11.3,13,0,6.37,2.88,14.14,11.3,14.14s11.31-7.77,11.31-14.14C395.52,35.07,392.26,28.14,384.21,28.14Zm26.25,73.29a13.43,13.43,0,0,1-9-3.35l2-2.65c1.88,1.33,3.94,2.79,7,2.79S416,96.53,416,93c0-4-4.81-6.64-7.42-8.57s-5.64-4-5.64-8.57c0-4.31,4.17-7.56,9.16-7.56A10.37,10.37,0,0,1,420,71.46l-2.11,2.29a10.2,10.2,0,0,0-5.54-2.29c-3.2,0-5,1.88-5,4.36,0,2.29,2,4,6.1,7,4.4,3.21,7,6.14,7,10.26C420.4,98.13,415.59,101.43,410.46,101.43Zm-2.15-60.17c-2.7-2.09-5.73-4.09-5.73-8.7,0-4.37,4.24-7.68,9.31-7.68a10.53,10.53,0,0,1,8,3.26l-2.14,2.33c-1.58-1.16-3.68-2.33-5.63-2.33-3.26,0-5.07,1.91-5.07,4.42,0,2.32,2,4,6.19,7.07,4.47,3.26,7.07,6.24,7.07,10.42,0,5.17-4.88,8.52-10.1,8.52a13.66,13.66,0,0,1-9.17-3.4l2-2.7c1.91,1.35,4,2.84,7.07,2.84s5.67-1.72,5.67-5.35C415.85,45.87,411,43.21,408.31,41.26Zm-24.1,17.31c-10,0-16.28-7.68-16.28-17.4a16.28,16.28,0,1,1,32.57,0C400.49,50.89,394.26,58.57,384.21,58.57Zm-4.13,42.86c-9.9,0-16-7.56-16-17.14a16,16,0,1,1,32.07,0C396.11,93.87,390,101.43,380.08,101.43ZM348,58h-9.68V25.44h10.42c13.12,0,17.68,7.49,17.68,15.31C366.44,51.54,359.56,58,348,58Zm-9.09,42.87h-9.53V68.8h10.27c12.92,0,17.42,7.38,17.42,15.07C357.07,94.51,350.29,100.88,338.93,100.88ZM320.34,58,317,48.43H304.57L301.08,58h-4.37L310,25.44h3.44L325.55,58ZM318,100.88l-3.3-9.44H302.49l-3.44,9.44h-4.31L307.81,68.8h3.39l12,32.08Zm-32.72,0h-4.45V72H270.59V68.8h25V72H285.31Zm-21-52.46H251.9L248.42,58H244L257.3,25.44h3.44L272.89,58h-5.21Zm.82,40.68c0,7.2-4.45,12.33-12.19,12.33-9,0-12.65-4.76-12.65-13V68.8h4.44V88.23c0,6.64,2.48,10.13,8.2,10.13,6,0,8-4.77,8-9.35V68.8h4.17ZM239.25,31.49c-1.3,3.82-8.7,18.19-13.07,26.52h-1.82c-4-8.33-10.79-22.24-12-26.52h-.1V58H208.5V25.44h4.84c4.18,8.66,8.37,17.35,12.51,26.52,4.61-9.17,9.22-17.86,13.78-26.52h4.23V58h-4.51V31.49ZM221.14,88.37h-1.42V85.44l1.47,0c4.31-.23,7-2.52,7-7.29,0-3.53-2-6.09-6.74-6.09H218.4v28.87H214V68.8H222c6.79,0,11,3,11,9.26C233,83.47,228.34,88.37,221.14,88.37ZM201.33,58,198,48.43H185.56L182.07,58H177.7L191,25.44h3.44L206.54,58Zm4.51,42.87H188.06V68.8h15.81V72H192.51V82.37h11.14v3.21H192.51v12.1h13.33Zm-44.91,0H151.4V68.8h10.27c12.92,0,17.41,7.38,17.41,15.07C179.08,94.51,172.29,100.88,160.93,100.88Zm6.35-76a15.9,15.9,0,0,1,10.05,3.3L175.47,31A15,15,0,0,0,167,28.14c-8.05,0-12.8,5.77-12.8,13.4,0,8.24,5.68,13.77,12.8,13.77a14.52,14.52,0,0,0,8.23-2.42l1.77,2.7a19.21,19.21,0,0,1-10.24,3c-11.63,0-17.54-8-17.54-16.94C149.18,33.44,155.6,24.88,167.28,24.88ZM190.59,16h3L199.43,23h-2.75l-4.6-4.51L187.47,23h-2.7Zm84.35,9.49h9.3c5.3,0,9.45,2.75,9.45,8.37,0,4.79-2.33,7.49-5.45,9.49l8.09,13.86-4.56,1.4-7.54-14.05h-4.79V58h-4.51ZM126.43,122.39H443.85V4.46H126.43ZM161.76,72h-5.91V97.67h4.95c9,0,13.38-4.49,13.38-13.88C174.17,76.64,170.19,72,161.76,72ZM288.84,34.24c0-4-2.51-5.53-5.54-5.53h-3.86V41.26H282C287.77,41.26,288.84,37,288.84,34.24Z"/><path id="Fill-4" class="cls-3" d="M4.46,4.46V48.37l8,.11L11.28,13.39H22.49l.88,23-.66,16.28-.11-.11v3.19l.11,20.46.88-8,1.87,23.42h7.7l4.61.22v-.55L39.87,91l-.11-.66H41l.44.55,1.21,1,42.12,1.21c-2.86-.22-9.35-.55-14.85-3.08C49,80.38,46.14,76.31,38.11,70.37l29.7.22,6.05-.77,12.43.44L122,70.15V4.46Z"/><polygon id="Fill-6" class="cls-4" points="12.26 49.58 4.46 49.58 4.46 51.23 12.16 51.12 12.26 49.58"/><polygon id="Fill-8" class="cls-4" points="12.49 53.32 4.46 53.87 4.46 91.59 11.94 91.59 12.49 53.32"/></g></g></g></g></g></g></svg>