<?xml version="1.0" encoding="UTF-8"?>
<svg width="480px" height="300px" viewBox="0 0 480 300" version="1.1" xmlns="http://www.w3.org/2000/svg" xmlns:xlink="http://www.w3.org/1999/xlink">
    <!-- Generator: Sketch 48.2 (47327) - http://www.bohemiancoding.com/sketch -->
    <title>Group 21</title>
    <desc>Created with Sketch.</desc>
    <defs></defs>
    <g id="Page-1" stroke="none" stroke-width="1" fill="none" fill-rule="evenodd">
        <g id="Group-21">
            <rect id="Rectangle-5" fill="#FFFFFF" x="0" y="0" width="480" height="300"></rect>
            <g id="Group-7" transform="translate(58.000000, 37.000000)">
                <path d="M190.9556,77.3895 L113.5686,0.0025 L0.4316,113.1395 L113.5686,226.2775 L190.9556,148.8895 C186.2066,137.9315 183.5686,125.8445 183.5686,113.1395 C183.5686,100.4355 186.2066,88.3485 190.9556,77.3895" id="Fill-1" fill="#FFDD66"></path>
                <path d="M273.5684,23.14 C236.5674,23.14 204.7864,45.472 190.9554,77.39 L226.7054,113.14 L190.9554,148.89 C204.7864,180.808 236.5674,203.14 273.5684,203.14 C323.2744,203.14 363.5684,162.846 363.5684,113.14 C363.5684,63.434 323.2744,23.14 273.5684,23.14" id="Fill-4" fill="#FFBBCC"></path>
                <path d="M190.9556,77.3895 C186.2066,88.3485 183.5686,100.4355 183.5686,113.1395 C183.5686,125.8445 186.2066,137.9315 190.9556,148.8895 L226.7056,113.1395 L190.9556,77.3895 Z" id="Fill-6" fill="#9999FF"></path>
            </g>
        </g>
    </g>
</svg>