<?xml version="1.0" encoding="UTF-8"?>
<svg width="480px" height="300px" viewBox="0 0 480 300" version="1.1" xmlns="http://www.w3.org/2000/svg" xmlns:xlink="http://www.w3.org/1999/xlink">
    <!-- Generator: Sketch 48.2 (47327) - http://www.bohemiancoding.com/sketch -->
    <title>Group 15</title>
    <desc>Created with Sketch.</desc>
    <defs></defs>
    <g id="Page-1" stroke="none" stroke-width="1" fill="none" fill-rule="evenodd">
        <g id="Group-15">
            <rect id="Rectangle-5-Copy-4" fill="#FFFFFF" x="0" y="0" width="480" height="300"></rect>
            <g id="Group-13" transform="translate(52.000000, 65.000000)">
                <path d="M107,76.14 C107,60.112 115.382,46.042 128,38.071 L128,0.14 L0,0.14 L0,128.14 L128,128.14 L128,114.209 C115.382,106.238 107,92.168 107,76.14" id="Fill-8" fill="#FFCC99"></path>
                <path d="M232.4448,88.14 L195.3798,88.14 C192.3668,99.054 185.3468,108.305 175.9998,114.209 L175.9998,168.14 L255.9998,168.14 L255.9998,133.8 C243.1398,122.289 234.4448,106.225 232.4448,88.14" id="Fill-10" fill="#FFBBCC"></path>
                <path d="M195.3794,88.14 C196.4344,84.32 197.0004,80.296 197.0004,76.14 C197.0004,51.287 176.8524,31.14 152.0004,31.14 C143.1754,31.14 134.9464,33.682 128.0004,38.071 L128.0004,114.209 C134.9464,118.598 143.1754,121.14 152.0004,121.14 C160.8244,121.14 169.0534,118.598 176.0004,114.209 L176.0004,88.14 L195.3794,88.14 Z" id="Fill-12" fill="#FFDD66"></path>
                <path d="M107,76.14 C107,92.168 115.382,106.238 128,114.209 L128,38.071 C115.382,46.042 107,60.112 107,76.14" id="Fill-14" fill="#66CC99"></path>
                <path d="M195.3794,88.14 L176.0004,88.14 L176.0004,114.209 C185.3464,108.305 192.3664,99.054 195.3794,88.14" id="Fill-16" fill="#9999FF"></path>
                <path d="M304,8.14 C264.235,8.14 232,40.375 232,80.14 C232,82.845 232.154,85.513 232.445,88.14 L256,88.14 L256,133.8 C268.738,145.203 285.558,152.14 304,152.14 C343.765,152.14 376,119.905 376,80.14 C376,40.375 343.765,8.14 304,8.14" id="Fill-18" fill="#9999FF"></path>
                <path d="M232.4448,88.14 C234.4448,106.225 243.1398,122.289 255.9998,133.8 L255.9998,88.14 L232.4448,88.14 Z" id="Fill-20" fill="#FFDD66"></path>
            </g>
        </g>
    </g>
</svg>