<?xml version="1.0" encoding="UTF-8"?>
<svg width="480px" height="300px" viewBox="0 0 480 300" version="1.1" xmlns="http://www.w3.org/2000/svg" xmlns:xlink="http://www.w3.org/1999/xlink">
    <!-- Generator: Sketch 48.2 (47327) - http://www.bohemiancoding.com/sketch -->
    <title>Group 18</title>
    <desc>Created with Sketch.</desc>
    <defs></defs>
    <g id="Page-1" stroke="none" stroke-width="1" fill="none" fill-rule="evenodd">
        <g id="Group-18">
            <rect id="Rectangle-5-Copy-2" fill="#FFFFFF" x="0" y="0" width="480" height="300"></rect>
            <g id="Group-9" transform="translate(52.000000, 48.000000)">
                <path d="M233.3848,106.1673 L233.3848,85.6833 L180.8128,85.6833 C180.9108,87.4093 180.9668,89.1463 180.9668,90.8963 C180.9668,123.6203 163.5008,152.2623 137.3848,168.0153 L137.3848,181.6843 L222.4868,181.6843 C215.7528,172.6753 211.7648,161.4953 211.7648,149.3833 C211.7648,131.7083 220.2578,116.0183 233.3848,106.1673" id="Fill-33" fill="#FFBBCC"></path>
                <path d="M375.0332,21.6835 L279.0332,21.6835 L279.0332,97.0315 C291.4552,100.1695 302.1552,107.6155 309.4702,117.6835 L375.0332,117.6835 L375.0332,21.6835 Z" id="Fill-34" fill="#FFDD66"></path>
                <path d="M180.8125,85.6835 C178.1115,38.4045 138.9215,0.8965 90.9665,0.8965 C41.2615,0.8965 0.9665,41.1915 0.9665,90.8965 C0.9665,140.6015 41.2615,180.8965 90.9665,180.8965 C107.9495,180.8965 123.8315,176.1905 137.3845,168.0155 L137.3845,85.6835 L180.8125,85.6835 Z" id="Fill-35" fill="#66CC99"></path>
                <path d="M180.9668,90.8968 C180.9668,89.1468 180.9108,87.4088 180.8128,85.6838 L137.3848,85.6838 L137.3848,168.0148 C163.5008,152.2618 180.9668,123.6208 180.9668,90.8968" id="Fill-36" fill="#9999FF"></path>
                <path d="M279.0332,97.0311 C274.7872,95.9581 270.3442,95.3831 265.7642,95.3831 C253.6172,95.3831 242.4062,99.3961 233.3852,106.1671 L233.3852,181.6841 L222.4862,181.6841 C232.3342,194.8561 248.0542,203.3831 265.7642,203.3831 C295.5882,203.3831 319.7642,179.2061 319.7642,149.3831 C319.7642,137.5351 315.9392,126.5871 309.4702,117.6841 L279.0332,117.6841 L279.0332,97.0311 Z" id="Fill-37" fill="#FFCC99"></path>
                <path d="M233.3848,106.1673 C220.2578,116.0183 211.7648,131.7083 211.7648,149.3833 C211.7648,161.4953 215.7528,172.6753 222.4868,181.6843 L233.3848,181.6843 L233.3848,106.1673 Z" id="Fill-38" fill="#9999FF"></path>
                <path d="M279.0332,97.0311 L279.0332,117.6841 L309.4702,117.6841 C302.1552,107.6151 291.4552,100.1701 279.0332,97.0311" id="Fill-39" fill="#66CC99"></path>
            </g>
        </g>
    </g>
</svg>