<?xml version="1.0" encoding="UTF-8"?>
<svg width="1083px" height="640px" viewBox="0 0 1083 640" version="1.1" xmlns="http://www.w3.org/2000/svg" xmlns:xlink="http://www.w3.org/1999/xlink">
    <!-- Generator: Sketch 48.2 (47327) - http://www.bohemiancoding.com/sketch -->
    <title>Page 1</title>
    <desc>Created with Sketch.</desc>
    <defs>
        <polygon id="path-1" points="0 0.04 282.0468 0.04 282.0468 282.087 0 282.087"></polygon>
    </defs>
    <g id="desktop" stroke="none" stroke-width="1" fill="none" fill-rule="evenodd" transform="translate(-179.000000, 0.000000)">
        <g id="Hero">
            <g id="Page-1" transform="translate(179.000000, -39.000000)">
                <g id="Group-3" transform="translate(0.000000, 125.000000)">
                    <mask id="mask-2" fill="white">
                        <use xlink:href="#path-1"></use>
                    </mask>
                    <g id="Clip-2"></g>
                    <path d="M282.0468,141.063 C282.0468,63.178 218.9088,0.04 141.0238,0.04 C63.1378,0.04 -0.0002,63.178 -0.0002,141.063 C-0.0002,218.948 63.1378,282.087 141.0238,282.087 C163.4688,282.087 184.6848,276.834 203.5228,267.505 L203.5228,141.063 L282.0468,141.063 Z" id="Fill-1" fill="#FFAA66" mask="url(#mask-2)"></path>
                </g>
                <path d="M855.4638,165.6372 C837.7008,71.3402 754.9178,0.0002 655.4588,0.0002 C543.0458,0.0002 451.9158,91.1292 451.9158,203.5432 C451.9158,225.3572 455.3608,246.3632 461.7138,266.0632 L655.4588,266.0632 L655.4588,407.0872 C691.9688,407.0872 726.2278,397.4662 755.8538,380.6342 L755.8538,165.6372 L855.4638,165.6372 Z" id="Fill-4" fill="#FFBB33"></path>
                <path d="M461.7138,266.063 L282.0468,266.063 C282.0468,321.502 250.0508,369.462 203.5228,392.505 L203.5228,718 L655.4588,718 L655.4588,407.087 C564.8598,407.087 488.0978,347.886 461.7138,266.063" id="Fill-6" fill="#33AA77"></path>
                <path d="M282.0468,266.063 L203.5228,266.063 L203.5228,392.505 C250.0508,369.462 282.0468,321.502 282.0468,266.063" id="Fill-8" fill="#6666FF"></path>
                <path d="M461.7138,266.063 C488.0978,347.886 564.8598,407.087 655.4588,407.087 L655.4588,266.063 L461.7138,266.063 Z" id="Fill-10" fill="#FF8899"></path>
                <path d="M855.4638,165.6372 C857.7778,177.9202 859.0028,190.5882 859.0028,203.5432 C859.0028,279.4482 817.4488,345.6392 755.8538,380.6342 L755.8538,492.0312 L1082.2478,492.0312 L1082.2478,165.6372 L855.4638,165.6372 Z" id="Fill-12" fill="#FF8899"></path>
                <path d="M859.0029,203.5435 C859.0029,190.5875 857.7779,177.9205 855.4639,165.6375 L755.8539,165.6375 L755.8539,380.6335 C817.4489,345.6395 859.0029,279.4475 859.0029,203.5435" id="Fill-14" fill="#6666FF"></path>
            </g>
        </g>
    </g>
</svg>