<svg width="676" height="451" fill="none" xmlns="http://www.w3.org/2000/svg"><path d="M450.334.62c-105.956 0-195.119 73.997-218.603 172.929h227.145S427.72 308.074 244.332 314.854c34.701 79.417 114.029 135.172 206.002 135.172 123.754 0 224.715-100.939 224.715-224.715C675.049 101.558 574.088.62 450.334.62zM231.709 173.571H.951s32.717 141.617 228.952 141.617c4.928 0 9.679-.156 14.407-.334a223.087 223.087 0 01-18.712-89.542c0-17.797 2.164-35.104 6.111-51.741z" fill="#080808"/><path d="M459.902 173.393H231.664c-3.969 16.659-6.133 33.988-6.133 51.829 0 31.847 6.735 62.156 18.801 89.654 184.28-6.78 215.57-141.483 215.57-141.483z" fill="#34AA51"/></svg>