<svg width="727" height="485" fill="none" xmlns="http://www.w3.org/2000/svg"><path d="M521.266 37.686c-66.008 0-124.677 31.199-162.212 79.588l125.73 125.73-125.658 125.634c37.534 48.365 96.203 79.516 162.164 79.516 113.346 0 205.223-91.876 205.223-205.222 0-113.37-91.901-205.246-205.247-205.246zM313.653 242.812c0-47.695 16.998-91.398 45.233-125.443L242.385.844.512 242.717l242.255 242.255 116.334-116.334a175.206 175.206 0 01-4.446-5.953c-25.605-33.232-41.002-74.712-41.002-119.873z" fill="#080808"/><path d="M359.054 117.274l-.048-.048c-.048.048-.072.096-.12.144l.048.048a.636.636 0 00.12-.144z" fill="#EA1877"/><path d="M359.078 117.273c-27.996 33.232-46.548 81.167-45.305 128.432 1.339 50.78 15.994 85.278 41.025 116.836 1.506 1.961 2.726 4.16 4.303 6.072L484.76 242.979 359.078 117.273z" fill="#F1B114"/></svg>