<svg width="480" height="300" xmlns="http://www.w3.org/2000/svg"><g fill="none" fill-rule="evenodd"><path fill="#FFF" d="M0 0h480v300H0z"/><path d="M159 141.14c0-16.028 8.382-30.098 21-38.069V65.14H52v128h128v-13.931c-12.618-7.971-21-22.041-21-38.069" fill="#FC9"/><path d="M284.445 153.14H247.38c-3.013 10.914-10.033 20.165-19.38 26.069v53.931h80V198.8c-12.86-11.511-21.555-27.575-23.555-45.66" fill="#FBC"/><path d="M247.38 153.14a45.019 45.019 0 0 0 1.62-12c0-24.853-20.148-45-45-45a44.778 44.778 0 0 0-24 6.931v76.138a44.778 44.778 0 0 0 24 6.931 44.783 44.783 0 0 0 24-6.931V153.14h19.38z" fill="#FD6"/><path d="M159 141.14c0 16.028 8.382 30.098 21 38.069v-76.138c-12.618 7.971-21 22.041-21 38.069" fill="#6C9"/><path d="M247.38 153.14H228v26.069c9.346-5.904 16.366-15.155 19.38-26.069m108.62-80c-39.765 0-72 32.235-72 72 0 2.705.154 5.373.445 8H308v45.66c12.738 11.403 29.558 18.34 48 18.34 39.765 0 72-32.235 72-72s-32.235-72-72-72" fill="#99F"/><path d="M284.445 153.14c2 18.085 10.695 34.149 23.555 45.66v-45.66h-23.555z" fill="#FD6"/></g></svg>