<svg width="480" height="300" xmlns="http://www.w3.org/2000/svg"><g fill="none" fill-rule="evenodd"><path fill="#FFF" d="M0 0h480v300H0z"/><path d="M248.956 114.39l-77.387-77.388L58.432 150.14l113.137 113.138 77.387-77.387c-4.75-10.958-7.387-23.045-7.387-35.75 0-12.704 2.638-24.791 7.387-35.75" fill="#FD6"/><path d="M331.568 60.14c-37 0-68.782 22.332-82.613 54.25l35.75 35.75-35.75 35.75c13.831 31.918 45.612 54.25 82.613 54.25 49.706 0 90-40.294 90-90s-40.294-90-90-90" fill="#FBC"/><path d="M248.956 114.39c-4.75 10.959-7.387 23.046-7.387 35.75 0 12.705 2.638 24.792 7.387 35.75l35.75-35.75-35.75-35.75z" fill="#99F"/></g></svg>