<svg width="480" height="300" xmlns="http://www.w3.org/2000/svg"><g fill="none" fill-rule="evenodd"><path fill="#FFF" d="M0 0h480v300H0z"/><path d="M285.385 154.167v-20.484h-52.572c.098 1.726.154 3.463.154 5.213 0 32.724-17.466 61.366-43.582 77.12v13.668h85.102a53.764 53.764 0 0 1-10.722-32.3c0-17.676 8.493-33.366 21.62-43.217" fill="#FBC"/><path d="M427.033 69.683h-96v75.348c12.422 3.138 23.122 10.584 30.437 20.652h65.563v-96z" fill="#FD6"/><path d="M232.813 133.683c-2.701-47.279-41.891-84.787-89.846-84.787-49.706 0-90 40.295-90 90 0 49.706 40.294 90 90 90 16.982 0 32.864-4.706 46.417-12.88v-82.332h43.429z" fill="#6C9"/><path d="M232.967 138.897c0-1.75-.056-3.488-.154-5.213h-43.428v82.33c26.116-15.752 43.582-44.393 43.582-77.117" fill="#99F"/><path d="M331.033 145.031a54.084 54.084 0 0 0-13.269-1.648 53.753 53.753 0 0 0-32.379 10.784v75.517h-10.899c9.848 13.172 25.568 21.7 43.278 21.7 29.824 0 54-24.178 54-54a53.736 53.736 0 0 0-10.294-31.7h-30.437v-20.653z" fill="#FC9"/><path d="M285.385 154.167c-13.127 9.851-21.62 25.541-21.62 43.216a53.764 53.764 0 0 0 10.722 32.301h10.898v-75.517z" fill="#99F"/><path d="M331.033 145.031v20.653h30.437c-7.315-10.069-18.015-17.514-30.437-20.653" fill="#6C9"/></g></svg>