<svg width="480" height="300" xmlns="http://www.w3.org/2000/svg"><g fill="none" fill-rule="evenodd"><path fill="#FFF" d="M0 0h480v300H0z"/><path d="M344 105.14c0 21.322-9.272 40.477-24 53.66v26.34h80v-80h-56z" fill="#FBC"/><path d="M207.49 137.14H160v24h-16v104h128v-88c-28.269 0-52.728-16.294-64.51-40" fill="#6C9"/><path fill="#FC9" d="M160 137.14v-56H80v80h64v-24z"/><path fill="#99F" d="M144 161.14h16v-24h-16z"/><path d="M344 105.14c0-39.765-32.235-72-72-72s-72 32.235-72 72c0 11.496 2.699 22.359 7.49 32H272v40c18.442 0 35.262-6.937 48-18.34v-53.66h24z" fill="#FD6"/><path d="M344 105.14h-24v53.66c14.728-13.183 24-32.338 24-53.66" fill="#99F"/><path d="M207.49 137.14c11.782 23.706 36.241 40 64.51 40v-40h-64.51z" fill="#FBC"/></g></svg>