<svg width="480" height="300" xmlns="http://www.w3.org/2000/svg"><g fill="none" fill-rule="evenodd"><path fill="#FFF" d="M0 0h480v300H0z"/><path fill="#FC9" d="M171.057 130.765L99.922 59.63l-90.51 90.51 90.51 90.51 69.297-69.297-19.375-19.374z"/><path fill="#FD6" d="M239.081 132.604L204.15 97.673l-33.092 33.092 19.375 19.375-21.213 21.213 34.93 34.932 36.77-36.77-19.374-19.375z"/><path fill="#6C9" d="M171.057 130.765l-21.213 21.214 19.375 19.374 21.213-21.213z"/><path fill="#FBC" d="M383.19 130.765L312.055 59.63l-72.974 72.974 19.375 19.375-17.537 17.536 71.136 71.135 69.296-69.297-19.375-19.374z"/><path fill="#99F" d="M239.081 132.604l-17.536 17.536 19.374 19.375 17.536-17.536zm231.507 19.375L416.28 97.673l-33.091 33.092 19.374 19.375-21.213 21.213 34.93 34.932z"/><path fill="#6C9" d="M383.19 130.765l-21.214 21.214 19.375 19.374 21.212-21.213z"/></g></svg>