<svg width="191" height="185" fill="none" xmlns="http://www.w3.org/2000/svg"><path fill-rule="evenodd" clip-rule="evenodd" d="M83.168 92.135v-82.12L1.041 92.136h82.127zm97.28 4.671c-1.032-1.025-2.079-2.05-3.206-3.009-23.315-19.75-58.226-16.859-77.976 6.457-18.719 22.092-17.072 54.588 3.001 74.733l78.181-78.181z" fill="#7541D5"/><path fill-rule="evenodd" clip-rule="evenodd" d="M177.125 99.997l-63.684 63.801c8.25 8.586 19.842 13.758 32.689 13.7 24.882-.117 44.969-20.38 44.852-45.269-.058-12.84-5.19-24.062-13.857-32.232z" fill="#080808"/><path fill-rule="evenodd" clip-rule="evenodd" d="M93.036.104l-25.16 25.16V92.15H.983l92.053 92.053 20.409-20.409a45.08 45.08 0 01-1.786-1.969c-7.167-7.957-11.574-18.433-11.574-29.962 0-24.816 20.168-44.932 45.057-44.932 11.2 0 21.427 4.1 29.303 10.849a42.36 42.36 0 012.65 2.364l7.987-7.987L93.036.104z" fill="#080808"/><path fill-rule="evenodd" clip-rule="evenodd" d="M67.912 25.242H1.005v66.923H.997l66.44-66.389.475-.534z" fill="#080808"/></svg>