<svg width="222" height="149" fill="none" xmlns="http://www.w3.org/2000/svg"><path d="M159.239 11.266c-20.185 0-38.125 9.54-49.602 24.336l38.446 38.447-38.424 38.417c11.477 14.789 29.417 24.315 49.587 24.315 34.659 0 62.754-28.095 62.754-62.754 0-34.667-28.102-62.761-62.761-62.761zM95.754 73.99c0-14.584 5.198-27.948 13.831-38.358L73.961 0 0 73.961l74.078 74.078 35.573-35.573c-.468-.6-.921-1.206-1.36-1.821-7.829-10.161-12.537-22.845-12.537-36.655z" fill="#080808"/><path d="M109.644 35.602c-8.561 10.162-14.234 24.82-13.854 39.273.41 15.528 4.891 26.077 12.545 35.727.461.599.834 1.272 1.316 1.856l38.425-38.417-38.432-38.439z" fill="#F1B114"/></svg>