<svg width="1083" height="640" xmlns="http://www.w3.org/2000/svg" xmlns:xlink="http://www.w3.org/1999/xlink"><defs><path id="a" d="M0 .04h282.047v282.047H0z"/></defs><g fill="none" fill-rule="evenodd"><g transform="translate(0 86)"><mask id="b" fill="#fff"><use xlink:href="#a"/></mask><path d="M282.047 141.063C282.047 63.178 218.909.04 141.024.04 63.138.04 0 63.178 0 141.063c0 77.885 63.138 141.024 141.024 141.024 22.445 0 43.66-5.253 62.499-14.582V141.063h78.524z" fill="#FA6" mask="url(#b)"/></g><path d="M855.464 126.637C837.7 32.34 754.918-39 655.459-39c-112.413 0-203.543 91.13-203.543 203.543 0 21.814 3.445 42.82 9.798 62.52h193.745v141.024c36.51 0 70.769-9.62 100.395-26.453V126.637h99.61z" fill="#FB3"/><path d="M461.714 227.063H282.047c0 55.439-31.996 103.399-78.524 126.442V679h451.936V368.087c-90.6 0-167.361-59.201-193.745-141.024" fill="#3A7"/><path d="M282.047 227.063h-78.524v126.442c46.528-23.043 78.524-71.003 78.524-126.442" fill="#66F"/><path d="M461.714 227.063c26.384 81.823 103.146 141.024 193.745 141.024V227.063H461.714zm393.75-100.426a204.586 204.586 0 0 1 3.539 37.906c0 75.905-41.554 142.096-103.15 177.091v111.397h326.395V126.637H855.464z" fill="#F89"/><path d="M859.003 164.543c0-12.956-1.225-25.623-3.54-37.906h-99.61v214.997c61.596-34.995 103.15-101.187 103.15-177.09" fill="#66F"/></g></svg>