<svg width="640" height="400" xmlns="http://www.w3.org/2000/svg" xmlns:xlink="http://www.w3.org/1999/xlink"><defs><path id="a" d="M.74 0h362.039v299.02H.739z"/><path id="c" d="M.26 0h155.354v85.354H.26z"/><path id="e" d="M.386 0H152.26v110H.386z"/><path id="g" d="M.26 0h288v218H.26z"/></defs><g fill="none" fill-rule="evenodd"><path fill="#000" d="M0 400h640V0H0z"/><path d="M474.26 182.225V118h-98.481l-61.52 61.52V278h32.206c18.923-53.531 68.593-92.532 127.795-95.775" fill="#F89"/><g transform="translate(13)"><mask id="b" fill="#fff"><use xlink:href="#a"/></mask><path d="M362.779 118L181.759-63.02l-21.145 21.146C175.889-25.745 185.26-3.967 185.26 20c0 49.706-40.294 90-90 90-23.968 0-45.745-9.371-61.874-24.646L.74 118l181.02 181.02 119.5-119.5V118h61.519z" fill="#66F" mask="url(#b)"/></g><path fill="#FB3" d="M314.26 118v61.52L375.779 118z"/><g transform="translate(18)"><mask id="d" fill="#fff"><use xlink:href="#c"/></mask><path d="M90.26-70c-49.706 0-90 40.294-90 90 0 25.738 10.806 48.951 28.126 65.354L155.614-41.874C139.21-59.194 115.998-70 90.26-70" fill="#FB3" mask="url(#d)"/></g><g transform="translate(46)"><mask id="f" fill="#fff"><use xlink:href="#e"/></mask><path d="M152.26 20c0-23.967-9.371-45.745-24.646-61.874L.386 85.354C16.515 100.629 38.292 110 62.26 110c49.706 0 90-40.294 90-90" fill="#FA6" mask="url(#f)"/></g><g transform="translate(338 182)"><mask id="h" fill="#fff"><use xlink:href="#g"/></mask><path d="M144.26 0c-2.685 0-5.351.08-8 .225V96H8.465C3.157 111.015.26 127.168.26 144c0 79.529 64.47 144 144 144 79.529 0 144-64.471 144-144S223.789 0 144.26 0" fill="#FA6" mask="url(#h)"/></g><path d="M474.26 182.225c-59.202 3.243-108.872 42.244-127.795 95.775H474.26v-95.775z" fill="#3A7"/></g></svg>