<svg width="200" height="272" xmlns="http://www.w3.org/2000/svg"><path d="M72 64h32V32H72v32zm16 82c48 0 56-34 56-34H32s8 34 56 34zm24-42h32V72h-32v32zm18.297 112.22h-7.626l-6.089 7.143-1.23 1.583V208H109v32h6.352v-7.253l2.285-2.286 6.11 9.539h7.297l-9.341-13.868 8.594-9.912zm-37.648 6.298c.754-1.078 1.871-1.617 3.351-1.617 1.201 0 2.168.387 2.901 1.16.733.773 1.114 1.779 1.143 3.016H106c-.03-2.814-.942-5.066-2.737-6.758-1.794-1.692-4.179-2.538-7.153-2.538-3.4 0-6.074 1.091-8.022 3.273-1.949 2.184-2.923 5.107-2.923 8.77v.417c0 3.811.981 6.796 2.945 8.957 1.963 2.161 4.644 3.242 8.044 3.242 1.816 0 3.476-.37 4.978-1.11 1.502-.74 2.684-1.78 3.55-3.121A8.147 8.147 0 0 0 106 231.78h-5.956c-.03 1.07-.41 1.927-1.143 2.571-.733.645-1.685.968-2.857.968-1.524 0-2.659-.536-3.407-1.607-.747-1.071-1.12-2.832-1.12-5.283v-.66c0-2.422.376-4.172 1.131-5.25zm-7.297-39.09c.762-1.655 2.154-2.482 4.176-2.482 1.508 0 2.644.552 3.406 1.659.762 1.106 1.143 2.86 1.143 5.263 0 1.978-.154 3.45-.462 4.418-.644 2.022-1.992 3.032-4.043 3.032-2.037 0-3.444-.835-4.22-2.505v-9.384zm5.824 17.012c2.916 0 5.187-1.066 6.813-3.198 1.627-2.132 2.44-5.102 2.44-8.912v-.352c0-3.868-.824-6.868-2.473-9-1.648-2.132-3.923-3.198-6.824-3.198-2.389 0-4.316.857-5.78 2.571V168H79v32h5.715l.285-2.528c1.538 1.978 3.597 2.968 6.176 2.968zm75.297 15.34c-2.257 0-4.022 1.092-5.297 3.274L161 216.22h-6V240h6.352v-15.56c.747-1.626 2.322-2.44 4.725-2.44.564 0 1.208.046 1.923.131v-6.185a6.87 6.87 0 0 0-1.527-.166zm-20.464 10.066h-8.836c.22-1.589.722-2.811 1.506-3.665.783-.853 1.806-1.28 3.066-1.28 1.348 0 2.388.386 3.12 1.159.733.773 1.114 1.866 1.144 3.278v.508zm-4.242-10.066c-2.17 0-4.099.51-5.791 1.528-1.693 1.018-3 2.469-3.924 4.351-.923 1.883-1.384 4.019-1.384 6.407v.615c0 3.56 1.094 6.411 3.285 8.55 2.19 2.139 5.03 3.209 8.516 3.209 1.979 0 3.781-.377 5.407-1.132 1.627-.755 2.916-1.806 3.868-3.154l-3.12-3.495c-1.378 1.774-3.29 2.66-5.737 2.66-1.583 0-2.89-.47-3.923-1.407-1.033-.938-1.652-2.183-1.857-3.736h15.143v-2.593c0-3.766-.934-6.674-2.802-8.726-1.868-2.052-4.429-3.077-7.682-3.077zM52 194.703H38.594V168H32v32h20v-5.297zm-.593 26.264H38.594V208H32v32h6.594v-13.714h12.813V240H58v-32h-6.593v12.967zm17.219-27.693c-.381.704-.967 1.264-1.758 1.682a5.473 5.473 0 0 1-2.593.627c-.967 0-1.73-.257-2.286-.77-.557-.512-.835-1.164-.835-1.956l.022-.374c.205-2.197 1.897-3.297 5.077-3.297h2.373v4.088zm-2.923-7.802c-3.532.016-6.231.697-8.099 2.044-1.868 1.349-2.802 3.283-2.802 5.803 0 2.051.765 3.751 2.297 5.099 1.53 1.347 3.461 2.022 5.791 2.022 2.462 0 4.462-.857 6-2.572l.319 2.132H75v-15.802c0-2.667-.861-4.737-2.583-6.209-1.721-1.472-4.047-2.209-6.978-2.209-1.934 0-3.677.334-5.23 1-1.554.667-2.756 1.586-3.605 2.758-.85 1.173-1.275 2.447-1.275 3.825h6.352c0-.894.304-1.597.912-2.11.608-.513 1.447-.77 2.516-.77 1.217 0 2.107.33 2.671.99.563.659.846 1.537.846 2.637v1.362h-2.923zm9.923 47.802c-.381.704-.967 1.264-1.758 1.682a5.473 5.473 0 0 1-2.593.627c-.967 0-1.73-.257-2.286-.77-.557-.512-.835-1.164-.835-1.956l.022-.374c.204-2.197 1.897-3.297 5.076-3.297h2.374v4.088zM82 224.198c0-2.667-.861-4.737-2.583-6.209-1.721-1.472-4.047-2.209-6.978-2.209-1.934 0-3.678.334-5.23 1-1.554.667-2.756 1.586-3.605 2.758-.85 1.173-1.275 2.447-1.275 3.825h6.352c0-.894.304-1.597.912-2.11.608-.513 1.447-.77 2.516-.77 1.216 0 2.106.33 2.671.99.563.659.846 1.537.846 2.637v1.362h-2.923c-3.532.016-6.231.697-8.099 2.044-1.868 1.349-2.802 3.283-2.802 5.803 0 2.051.765 3.751 2.296 5.099 1.531 1.347 3.462 2.022 5.792 2.022 2.461 0 4.461-.857 6-2.572l.318 2.132H82v-15.802z" fill="#FFF" fill-rule="evenodd"/></svg>