<svg width="205" height="220" fill="none" xmlns="http://www.w3.org/2000/svg"><path d="M99.04 37.16H70.15v28.825h28.89V37.16zm-49.579 65.928c42.398 0 49.465-28.775 49.465-28.775H0s7.067 28.775 49.461 28.775zM61.915 0H33.048v28.927h28.867V0zM30.447 153.308v7.281H.05v-45.287h7.29v38.006h23.107zm33.602 7.281l-2.627-8.155H44.797l-2.622 8.155h-7.652l14.584-45.287h8.006l14.584 45.287h-7.648zm-4.962-15.433l-5.997-18.54-5.954 18.54h11.95zm-32.273 74.72v-19.678H7.607v19.678H.05V172.94h7.556v19.714h19.209V172.94h7.563v46.936h-7.564zm43.791 0H47.058a3.728 3.728 0 0 1-2.626-1.086l-5.67-5.661a3.696 3.696 0 0 1-1.089-2.622v-1.454a3.7 3.7 0 0 1 1.089-2.621l5.67-5.661a3.709 3.709 0 0 1 2.626-1.087H63.05v-1.677l-3.423-3.417h-19.14v-7.568h20.73a3.732 3.732 0 0 1 2.622 1.061l5.671 5.661a3.716 3.716 0 0 1 1.091 2.629l.004 23.503zm-24.514-10.09l2.551 2.547H63.05v-5.13H48.642l-2.551 2.583zm40.133-15.221l-3.427 3.418v10.929l3.427 3.421h17.699v7.543H85.767a6.416 6.416 0 0 1-4.526-1.871L77.13 213.9a6.39 6.39 0 0 1-1.875-4.518v-11.895a6.389 6.389 0 0 1 1.885-4.528l4.1-4.076a6.406 6.406 0 0 1 4.516-1.861h18.181v7.543H86.224zm36.203 5.095l9.873-12.638h9.569l-12.794 16.416 12.794 16.428H132.3l-9.873-12.674h-5.643v12.674h-7.556V172.94h7.556v26.72h5.643zm52.959 7.543h-25.355v1.709l3.428 3.421h19.106v7.543h-19.138a7.49 7.49 0 0 1-5.285-2.19l-3.473-3.467a7.477 7.477 0 0 1-2.197-5.286v-10.996a7.48 7.48 0 0 1 2.204-5.307l3.463-3.443a7.5 7.5 0 0 1 5.284-2.176h11.036a7.503 7.503 0 0 1 5.302 2.197l3.442 3.436a7.469 7.469 0 0 1 2.19 5.286l-.007 9.273zm-25.355-9.22v1.677h17.799v-1.677l-3.424-3.418h-10.947l-3.428 3.418zm-39.676-63.717l-3.629 3.623 3.629 3.658v5.873a13.076 13.076 0 0 1-3.827 9.252 13.144 13.144 0 0 1-9.31 3.86h-21.57v-45.287h21.57a13.165 13.165 0 0 1 9.31 3.86 13.101 13.101 0 0 1 3.827 9.256v5.905zm-26.605-.418h15.555l2.949-2.947v-4.624l-2.949-2.944H83.75v10.515zm0 18.6h15.555l2.949-2.944v-4.624l-2.949-2.947H83.75v10.515zM205 194.568l-7.634-7.62h-17.015V220h7.602v-25.463l17.047.031z" fill="#fff"/></svg>