<svg xmlns="http://www.w3.org/2000/svg" width="218.25" height="167.712" viewBox="0 0 7898 6069" shape-rendering="geometricPrecision" text-rendering="geometricPrecision" image-rendering="optimizeQuality" fill-rule="evenodd" clip-rule="evenodd"><defs><clipPath id="id0"><path d="M4863 335c1491 0 2700 1209 2700 2700 0 1490-1209 2699-2700 2699-1490 0-2699-1209-2699-2699 0-1491 1209-2700 2699-2700z"/></clipPath><style>.fil10{fill:#ecedee}.fil2{fill:#e6e7e8}.fil6{fill:#d2d3d5}.fil1{fill:#02638d}.fil4{fill:#49ba9b}.fil5{fill:#6f9d82}.fil9{fill:#ef5d4e}.fil0{fill:#fec540}.fil7,.fil8{fill:#d2d3d5;fill-rule:nonzero}.fil8{fill:#49ba9b}</style></defs><g id="Camada_x0020_1"><path class="fil0" d="M4863 335c1491 0 2700 1209 2700 2700 0 1490-1209 2699-2700 2699-1490 0-2699-1209-2699-2699 0-1491 1209-2700 2699-2700z"/><g clip-path="url(#id0)"><g id="_2283806690896"><rect class="fil1" transform="rotate(-8.463 9294.733 -26372.43) scale(1.15443)" width="1940" height="3442" rx="266" ry="266"/><path class="fil2" transform="rotate(-8.463 13106.113 -27943.153) scale(1.15443)" d="M0 0h1612v2457H0z"/><path transform="matrix(1.06426 -.15835 .16557 1.11277 4390.74 1677.4)" fill="#fefefe" d="M0 0h1612v2457H0z"/><path class="fil2" d="M6111 1457l402 2699-1716 255-18-121c311-677 1114-2372 1332-2833z"/><circle class="fil4" transform="rotate(-8.463 10748.92 -34089.714) scale(1.15443)" r="63"/><circle class="fil5" transform="rotate(-8.463 33636.993 -35783.18) scale(3.46329)" r="63"/><path class="fil6" transform="matrix(.75997 -.10592 .08419 .60402 4966.28 2381.61)" d="M0 0h1439v121H0z"/><path class="fil6" transform="matrix(.33369 -.0465 .08419 .60402 4988.04 2537.74)" d="M0 0h1439v121H0z"/><path class="fil7" d="M4602 2417l167-24c9-1 17 2 23 6 7 5 11 13 13 21l23 167c1 9-1 17-6 24-5 6-12 11-21 12l-167 23c-9 2-17-1-24-6-6-5-11-12-12-20l-23-168c-1-8 1-17 6-23 5-7 12-11 21-12zm171 5l-167 24c-1 0-1 0-2 1v1l23 167c0 1 1 2 1 2h2l167-23c1 0 1 0 1-1 1 0 1-1 1-1l-24-168v-1c-1 0-1-1-2-1z"/><path class="fil8" d="M4853 2344l-67 10-88 192-39-52-67 9 118 130z"/><path class="fil6" transform="matrix(.75997 -.10592 .08419 .60402 5019.67 2764.7)" d="M0 0h1439v121H0z"/><path class="fil6" transform="matrix(.33369 -.0465 .08419 .60402 5041.43 2920.83)" d="M0 0h1439v121H0z"/><path class="fil8" d="M4655 2800l167-24c9-1 17 2 24 6v1c6 4 11 12 12 20l23 168c1 8-1 16-6 23-5 6-12 11-21 12l-167 24c-8 1-17-2-23-7-7-5-11-12-13-20l-23-168c-1-8 1-17 6-23 5-7 12-11 21-12zm171 6l-167 23s-1 0-1 1c-1 0-1 1-1 1l24 168v1h2l167-23c1 0 1 0 2-1v-1l-23-168-1-1s-1-1-2 0z"/><path class="fil8" d="M4907 2727l-67 10-88 192-40-52-67 9 119 130z"/><path class="fil6" transform="matrix(.75997 -.10592 .08419 .60402 5073.07 3147.8)" d="M0 0h1439v121H0z"/><path class="fil6" transform="matrix(.33369 -.0465 .08419 .60402 5094.83 3303.93)" d="M0 0h1439v121H0z"/><path class="fil7" d="M4708 3183l168-24c8-1 17 2 23 7 7 4 11 12 12 20l24 168c1 8-2 17-6 23-5 6-13 11-21 12l-168 24c-8 1-16-2-23-6v-1c-6-4-11-12-12-20l-23-168c-2-8 1-16 6-23 5-6 12-11 20-12zm172 6l-167 23c-1 0-2 0-2 1v1l23 168s0 1 1 1c0 0 1 1 1 0l168-23s1 0 1-1l1-1-24-168s0-1-1-1h-1z"/><path class="fil8" d="M4960 3110l-67 10-88 192-39-52-68 9 119 130z"/><path class="fil6" transform="matrix(.75997 -.10592 .08419 .60402 5126.46 3530.89)" d="M0 0h1439v121H0z"/><path class="fil6" transform="matrix(.33369 -.0465 .08419 .60402 5148.22 3687.02)" d="M0 0h1439v121H0z"/><path class="fil6" transform="matrix(.75997 -.10592 .08419 .60402 5179.86 3913.98)" d="M0 0h1439v121H0z"/><path class="fil6" transform="matrix(.33369 -.0465 .08419 .60402 5201.62 4070.11)" d="M0 0h1439v121H0z"/><path class="fil7" d="M4761 3560l167-23c9-1 17 1 24 6 6 5 11 12 12 21l23 167c1 9-1 17-6 23v1c-5 6-12 11-21 12l-167 23c-8 1-17-1-23-6-7-5-11-12-13-21l-23-167c-1-9 1-17 6-23 5-7 13-12 21-13zm171 6l-167 23-1 1c-1 1-1 1-1 2l24 167v2h2l167-23c1 0 1-1 2-1v-2l-23-167c0-1-1-1-1-2h-2zm-115 395l167-24c9-1 17 2 23 6h1c6 5 11 13 12 21l23 167c1 9-1 17-6 24-5 6-12 11-21 12l-167 23c-9 2-17-1-23-6-7-5-12-12-13-20l-23-168c-1-8 1-17 6-23 5-7 12-11 21-12zm171 5l-167 24c-1 0-1 0-2 1v1l23 167c1 1 1 2 1 2h2l167-23c1 0 1 0 2-1v-1l-23-168-1-1c-1 0-1-1-2-1z"/><path class="fil9" d="M3621 3714c72 80 150 165 251 349 105 193-144 242-200 81-38-108-154-203-276-238 71 76 140 144 184 224 74 133-57 193-153 83-43-49-112-92-211-129 45-80 89-160 133-240 91-43 181-86 272-130z"/><path class="fil9" d="M2340 5428l687-1608c39-93 69-99 158-147 253-136 525-193 828-250 183-34 281 175 148 238-273 130-535 126-769 269-209 128-28 759 437 501 73-124 190-256 284-372 122-150 387-66 256 115-76 104-149 224-207 346-97 204-233 314-401 465-177 159-355 318-532 476-83 111-167 222-250 333l-639-366z"/><path class="fil4" d="M2630 4165l55 196c7 24 31 37 54 31l1743-487-79-281-1742 487c-23 6-37 31-31 54z"/><path class="fil10" d="M2777 4079l78 280-116 33c-23 6-47-7-54-31l-55-196c-6-23 8-48 31-54l116-32z"/><path class="fil9" d="M2855 4359l-78-280 152-43 78 281z"/><path class="fil10" d="M4699 3696l-217 209-79-281z"/><path fill="#557964" d="M4699 3696l-62 59-22-80z"/><path fill="#ddd" d="M2118 5581l170-306 844 520-294 454z"/><path fill="#2c2829" d="M1372 6846l744-1440 1084 654-460 832z"/><path class="fil1" d="M5077 1887l10-2-18-119c-16-105 57-204 162-220s204 57 220 162l18 119 10-1c15-3 29 8 31 23l43 280c5 32-18 62-50 67l-339 52c-32 4-62-18-67-50l-43-280c-2-15 8-29 23-31zm216 68c21-3 41 11 45 33 1 10-1 21-7 29l30 94-43 6-43 7v-99c-8-6-13-15-15-25-3-22 12-42 33-45zm-154-78l278-42-16-110c-12-77-84-130-161-118-77 11-130 83-118 160l17 110z"/><path fill="#f59b32" d="M-10114 7045h3498v3498h-3498z"/><path fill="#fcc43e" d="M-4761 7045h3498v3498h-3498z"/><path class="fil4" d="M326 7045h3498v3498H326z"/><path class="fil5" d="M5202 7045h3498v3498H5202z"/><path class="fil9" d="M10555 7045h3498v3498h-3498z"/><path class="fil1" d="M15643 7045h3498v3498h-3498z"/></g></g><path d="M4863 335c1491 0 2700 1209 2700 2700 0 1490-1209 2699-2700 2699-1490 0-2699-1209-2699-2699 0-1491 1209-2700 2699-2700z" fill="none"/><path class="fil1" d="M4863 0c1676 0 3035 1359 3035 3035 0 1675-1359 3034-3035 3034-1675 0-3034-1359-3034-3034C1829 1359 3188 0 4863 0zm0 173c1581 0 2862 1281 2862 2862 0 1580-1281 2861-2862 2861-1580 0-2861-1281-2861-2861 0-1581 1281-2862 2861-2862z"/><path class="fil0" d="M496 3587L44 3135c-59-58-59-153 0-211l491-491c166-166 295-174 295 129v986c0 351-208 166-334 39z"/></g></svg>