<svg xmlns="http://www.w3.org/2000/svg" width="203.359" height="167.712" viewBox="0 0 1795 1480" shape-rendering="geometricPrecision" text-rendering="geometricPrecision" image-rendering="optimizeQuality" fill-rule="evenodd" clip-rule="evenodd"><defs><style>.fil1{fill:#fefefe}.fil2{fill:#e6e7e8}.fil8{fill:#d2d3d5}.fil3{fill:#02638d}.fil4{fill:#fcc43e}</style><clipPath id="id0"><path d="M740 82c364 0 658 294 658 658s-294 658-658 658S82 1104 82 740 376 82 740 82z"/></clipPath></defs><g id="Camada_x0020_1"><path d="M740 82c364 0 658 294 658 658s-294 658-658 658S82 1104 82 740 376 82 740 82z" fill="#6f9d81"/><g clip-path="url(#id0)"><g id="_2283806693168"><path class="fil1" transform="rotate(-4.363 2496.638 -3818.878) scale(1.3226)" d="M0 0h663v840H0z"/><path class="fil2" d="M1234 922l23 298-846 65-48-246-58-762 776-149z"/><path class="fil1" transform="rotate(-10.91 1833.351 -812.698) scale(1.3226)" d="M0 0h663v840H0z"/><path class="fil3" transform="rotate(-10.972 3193.645 -3106.67) scale(1.16244)" d="M0 0h351.061v29.46H0z"/><path class="fil3" transform="matrix(.63045 -.12224 .22126 1.14119 664.384 626.74)" d="M0 0h351.061v29.46H0z"/><path class="fil3" transform="matrix(2.04298 -.3961 .68223 3.51868 292.398 402.362)" d="M0 0h351.061v29.46H0z"/><circle class="fil3" transform="rotate(-10.973 3498.264 -2271.458) scale(1.58407)" r="64"/><path class="fil4" d="M479 1202l-7-11c-18 23-13 30 15 23 0 0 0-1-1-1l-7-11z"/><path d="M983 808l57 87-482 317c-4 3-11 2-14-3l-45-69c-3-5-2-11 3-14l481-318z" fill="#49ba9b"/><path d="M983 808l27 41-490 323-21-32c-3-5-2-11 3-14l481-318z" fill="#6f9d82"/><path class="fil4" transform="matrix(.07575 .1149 -.00453 .00299 983.067 808.461)" d="M0 0h749v4265H0z"/><path class="fil4" transform="matrix(.0201 .03048 -.04489 .0296 993.488 824.27)" d="M0 0h749v4265H0z"/><path class="fil4" transform="matrix(.07575 .1149 -.00206 .00136 763.502 953.2)" d="M0 0h749v4265H0z"/><path class="fil4" transform="matrix(.07575 .1149 -.00206 .00136 542.182 1099.1)" d="M0 0h749v4265H0z"/><path class="fil4" d="M1021 808l33 51c6 8 8 11 2 14l-21 14-24-36-24-36 21-14c6-4 8-1 13 7z"/><path class="fil3" d="M521 1175l-22-34c0-1-1-2-1-2-10 13-23 37-32 57l14 21c21 0 49-3 65-7 0 0-1-1-1-2l-23-33z"/><path class="fil4" d="M449 449c57-16 116 18 132 75 9 32 2 65-16 90-9 13-7 17-12 32-6 17-21 32-40 37-20 5-40 0-54-13-11-9-11-13-24-18-29-13-52-38-61-71-16-57 17-116 75-132z"/><path d="M453 466c49-13 100 15 113 64 8 28 2 55-13 77-8 11-4 23-9 35-5 15-17 27-33 32-17 5-35 0-47-11-9-8-11-19-22-24-25-10-45-32-53-60-13-49 15-99 64-113z" fill="#f59b32"/><path class="fil1" d="M455 480c43-12 86 13 98 55 1 3 1 5 2 7-18-36-59-55-99-44-30 8-51 31-59 60 0-36 23-68 58-78z"/><rect class="fil2" transform="rotate(-15.455 2710.679 -1370.638) scale(1.10261)" width="80.26" height="80.46" rx="7" ry="7"/><path class="fil8" d="M470 671l35-10 24 86-35 9c-4 1-8-1-9-5l-20-71c-1-4 1-8 5-9z"/><path class="fil2" d="M469 701l83-46c4-2 8 1 9 5v2c1 4-1 7-4 9l-84 46c-3 1-7-2-8-5l-1-3c-1-3 2-6 5-8z"/><path class="fil8" d="M560 658c0 1 1 1 1 2v2c1 4-1 7-4 9l-84 46c-3 1-7-2-8-5v-1l95-53z"/><path class="fil2" d="M478 733l83-46c4-1 8 1 9 5v3c1 3-1 6-4 8l-84 46c-3 2-7-1-8-5l-1-2c-1-4 2-7 5-9z"/><path class="fil8" d="M570 692v3c1 3-1 6-4 8l-84 46c-3 2-7-1-8-4l96-53z"/><path d="M550 741c-1 9-7 17-16 19-9 3-19-1-24-8l40-11z" fill="#848688"/></g></g><path d="M740 82c364 0 658 294 658 658s-294 658-658 658S82 1104 82 740 376 82 740 82z" fill="none"/><path d="M740 0c409 0 740 331 740 740s-331 740-740 740S0 1149 0 740 331 0 740 0zm0 42c385 0 698 313 698 698s-313 698-698 698S42 1125 42 740 355 42 740 42zm934 525l110 111c14 14 14 37 0 51l-120 120c-40 40-72 42-72-32V577c0-86 51-41 82-10z" fill="#ef5d4e"/></g></svg>