<svg xmlns="http://www.w3.org/2000/svg" width="209.491" height="167.712" viewBox="0 0 5739 4594" shape-rendering="geometricPrecision" text-rendering="geometricPrecision" image-rendering="optimizeQuality" fill-rule="evenodd" clip-rule="evenodd"><defs><clipPath id="id0"><path d="M3442 254c1128 0 2043 915 2043 2043 0 1129-915 2044-2043 2044-1129 0-2044-915-2044-2044 0-1128 915-2043 2044-2043z"/></clipPath><style>.fil6{fill:#fefefe}.fil0{fill:#02638d}.fil5{fill:#6f9d82}.fil4{fill:#bcbcbc}.fil3{fill:#eee}.fil1{fill:#ef5d4e}.fil2{fill:#fcc43e}</style></defs><g id="Camada_x0020_1"><path class="fil0" d="M3442 254c1128 0 2043 915 2043 2043 0 1129-915 2044-2043 2044-1129 0-2044-915-2044-2044 0-1128 915-2043 2044-2043z"/><g clip-path="url(#id0)"><g id="_2283821304032"><path id="1" class="fil1" d="M2458 9436s749 436 818 449 248-277 248-277l-364-382-272 65-253 132-177 13z"/><path class="fil2" d="M2825 8744c61-96 123-192 185-288l939 174c208-48 416-95 625-143 54 253 109 505 163 758-152 22-304 44-456 67-301 220-602 440-903 661-67 48-68 34-135-17-54-40-48-35-3-81 50-52 101-104 152-156-69 43-137 85-206 128-57 35-51 40-105 1-13-9-25-18-38-27-59-43-38-39 11-90 54-59 109-117 164-175-75 56-149 112-224 168-76 57-70 54-152 3-34-21-68-44-97-69-43-37-41-62 25-118 91-77 182-154 274-231-126 76-251 152-377 228-71 43-72 59-144 14-26-16-51-34-75-53-69-55-53-53-8-124 310-210 621-420 931-630-155 10-310 21-464 31-28-10-55-21-82-31z"/><path class="fil1" d="M2524 8697l180 73 643-327 362 114 166 299-198 83-164-185-182 37-918 630-174-91z"/><path class="fil3" d="M2255 8534l343 161-459 876-216-119z"/><path class="fil4" d="M2370 8588l6 3-337 925-116-64 41-114z"/><path class="fil0" d="M2113 9395c20 0 37 16 37 36s-17 37-37 37c-21 0-37-17-37-37s16-36 37-36z"/><path class="fil5" d="M1307 8056l1096 468-517 1177-579-237z"/><path class="fil3" d="M4858 8388l-402 105 312 1034 257-85z"/><path class="fil4" d="M4723 8423l-7 2 171 1062 138-45-21-131z"/><path class="fil0" d="M4833 9343c-22-5-43 10-47 31-5 22 10 43 32 47s43-11 47-32c4-22-10-42-32-46z"/><path class="fil1" d="M5576 8153l-875 195 312 1369 563-117zM3375 9954c31 15 61 30 92 44 39 20 36 22 70-6 12-10 25-20 37-30 47-38 55-30 16-76-16-18-32-36-47-55-37-43-29-51-74-16-15 12-30 23-45 35-41 32-33 28-6 71-14 11-29 22-43 33zm223-166l105 51c45 22 41 24 80-7 15-12 29-23 43-35 54-43 62-34 18-86-18-21-36-42-54-64-42-49-33-58-85-18-17 13-34 26-51 40-47 37-38 32-6 82-17 12-33 24-50 37zm304-155c30 40 42 26 81-5 15-12 23-17 37-29 54-43 62-34 18-86l-54-63c-42-49-33-59-85-19-17 13-34 27-51 40-47 37-37 32-6 82l60 80zm190-150c32 38 42 25 81-6 15-12 23-17 37-29 54-42 63-33 18-86-11-13-41-58-73-36-30 21-60 45-89 69-36 30 3 61 26 88z"/><path class="fil2" d="M3412 4644h-549v-777c0-246 167-436 380-531 84-38 56-40 3-67-127-65-214-197-214-349 0-212 169-385 380-391 211 6 380 179 380 391 0 152-87 284-214 349-53 27-81 29 2 67 213 95 381 285 381 531v777h-549z"/><circle class="fil6" cx="3277" cy="2900" r="51"/><circle class="fil6" cx="3546" cy="2900" r="51"/><path class="fil5" d="M4510 4644h550v-777c0-246-168-436-381-531-83-38-56-40-2-67 127-65 213-197 213-349 0-212-169-385-380-391-210 6-379 179-379 391 0 152 86 284 213 349 54 27 81 29-2 67-213 95-381 285-381 531v777h549z"/><circle class="fil6" cx="4645" cy="2900" r="51"/><circle class="fil6" cx="4376" cy="2900" r="51"/><path class="fil1" d="M2313 4644h550v-777c0-246-168-436-381-531-84-38-56-40-2-67 126-65 213-197 213-349 0-212-169-385-380-391-210 6-379 179-379 391 0 152 86 284 213 349 54 27 81 29-2 67-213 95-381 285-381 531v777h549z"/><circle class="fil6" cx="2448" cy="2900" r="51"/><circle class="fil6" cx="2179" cy="2900" r="51"/><path class="fil5" d="M2858 683h162c-200 0-364 164-364 364v784c0 200 164 363 364 363h-162c-200 0-364-163-364-363v-784c0-200 164-364 364-364z"/><path class="fil2" d="M2596 683h162c-200 0-363 164-363 364v784c0 200 163 363 363 363h-162c-200 0-363-163-363-363v-784c0-200 163-364 363-364z"/><path class="fil5" d="M3358 2012v415l-312-312z"/><rect class="fil1" x="2764" y="683" width="2019" height="1511" rx="363" ry="363"/><path class="fil1" d="M4442 2012v415l-313-312z"/><path class="fil2" d="M2323 2012v415l248-248z"/></g></g><path d="M3442 254c1128 0 2043 915 2043 2043 0 1129-915 2044-2043 2044-1129 0-2044-915-2044-2044 0-1128 915-2043 2044-2043z" fill="none"/><path d="M3442 0c1268 0 2297 1029 2297 2297 0 1269-1029 2297-2297 2297-1269 0-2298-1028-2298-2297C1144 1029 2173 0 3442 0zm0 131c1196 0 2166 970 2166 2166s-970 2166-2166 2166c-1197 0-2167-970-2167-2166S2245 131 3442 131zM375 2715L33 2373c-44-44-44-116 0-160l372-371c125-126 223-132 223 97v747c0 266-157 125-253 29z" fill="#fec540"/></g></svg>