<svg width="727" height="485" viewBox="0 0 727 485" fill="none" xmlns="http://www.w3.org/2000/svg">
<path d="M521.266 37.6858C455.258 37.6858 396.589 68.8849 359.054 117.274L484.784 243.004L359.126 368.638C396.66 417.003 455.329 448.154 521.29 448.154C634.636 448.154 726.513 356.278 726.513 242.932C726.513 129.562 634.612 37.6858 521.266 37.6858Z" fill="#080808"/>
<path d="M313.653 242.812C313.653 195.117 330.651 151.414 358.886 117.369L242.385 0.843994L0.512207 242.717L242.767 484.972L359.101 368.638C357.571 366.677 356.089 364.693 354.655 362.685C329.05 329.453 313.653 287.973 313.653 242.812Z" fill="#080808"/>
<path d="M359.054 117.274L359.006 117.226C358.958 117.274 358.934 117.322 358.886 117.37L358.934 117.418C358.982 117.37 359.03 117.322 359.054 117.274Z" fill="#EA1877"/>
<path d="M359.078 117.273C331.082 150.505 312.53 198.44 313.773 245.705C315.112 296.485 329.767 330.983 354.798 362.541C356.304 364.502 357.524 366.701 359.101 368.613L484.76 242.979L359.078 117.273Z" fill="#F1B114"/>
</svg>
