<svg width="678" height="450" fill="none" xmlns="http://www.w3.org/2000/svg"><path d="M338.604 334.893L228.633 224.922l110.194-110.193L224.619.521.351 224.789l224.246 224.245L338.671 334.96l-.067-.067zM677.147 224.9L452.901.654 338.827 114.73l110.038 110.037L338.671 334.96l114.208 114.208L677.147 224.9z" fill="#080808"/><path d="M338.827 114.729L228.633 224.922l109.971-109.993 109.993 109.993-109.993 109.971.067.067 110.194-110.194-110.038-110.037z" fill="#073C5B"/><path d="M338.604 334.893l-109.971-109.97 109.971 109.97z" fill="#F2EA19"/><path d="M450.025 224.766L338.671 114.171 227.853 224.989l110.818 110.796" fill="#D825A9"/></svg>