<svg width="678" height="450" viewBox="0 0 678 450" fill="none" xmlns="http://www.w3.org/2000/svg">
<path d="M338.604 334.893L228.633 224.922L338.827 114.729L224.619 0.520508L0.351074 224.789L224.597 449.034L338.671 334.96L338.604 334.893Z" fill="#080808"/>
<path d="M677.147 224.9L452.901 0.654297L338.827 114.729L448.865 224.766L338.671 334.96L452.879 449.168L677.147 224.9Z" fill="#080808"/>
<path d="M338.827 114.729L228.633 224.922L338.604 114.929L448.597 224.922L338.604 334.893L338.671 334.96L448.865 224.766L338.827 114.729Z" fill="#073C5B"/>
<path d="M338.604 334.893L228.633 224.923L338.604 334.893Z" fill="#F2EA19"/>
<path d="M450.025 224.766L338.671 114.171L227.853 224.989L338.671 335.785" fill="#D825A9"/>
</svg>
