<svg xmlns="http://www.w3.org/2000/svg" viewBox="0 0 448.25 126.79"><defs><style>.cls-4{fill:#2c66b1}</style></defs><g id="Layer_2" data-name="Layer 2"><g id="Layer_1-2" data-name="Layer 1"><g id="homepage"><g id="Câmara"><g id="Page-1"><path id="Fill-1" fill="#fefefe" d="M0 126.79h448.25V0H0v126.79z"/><g id="Group-10"><path id="Fill-2" d="M4.46 122.39H122v-24L4.46 100.28zm375.62-50.93c-7.93 0-11.14 6.83-11.14 12.83 0 6.28 2.84 13.93 11.14 13.93s11.13-7.65 11.13-13.93c0-6-3.21-12.83-11.13-12.83zM258.32 30.28a155.07 155.07 0 0 1-5.16 14.89h10.09c-1.63-4.51-3.21-9-4.84-14.89zm52.66 0a155.12 155.12 0 0 1-5.16 14.89h10.1c-1.63-4.51-3.21-9-4.84-14.89zM339.75 72h-5.92v25.67h5c9 0 13.38-4.49 13.38-13.88-.04-7.15-4.03-11.79-12.46-11.79zM192 30.28a156.74 156.74 0 0 1-5.16 14.89h10.1c-1.63-4.51-3.21-9-4.84-14.89zm156.86-1.58h-6v26.05h5c9.17 0 13.59-4.56 13.59-14.1.01-7.25-4.03-11.95-12.59-11.95zm-40 44.87a153.66 153.66 0 0 1-5.09 14.66h9.95c-1.6-4.44-3.16-8.89-4.76-14.66zm75.39-45.43c-8 0-11.3 6.93-11.3 13 0 6.37 2.88 14.14 11.3 14.14s11.31-7.77 11.31-14.14c-.04-6.07-3.3-13-11.35-13zm26.25 73.29a13.43 13.43 0 0 1-9-3.35l2-2.65c1.88 1.33 3.94 2.79 7 2.79S416 96.53 416 93c0-4-4.81-6.64-7.42-8.57s-5.64-4-5.64-8.57c0-4.31 4.17-7.56 9.16-7.56a10.37 10.37 0 0 1 7.9 3.16l-2.11 2.29a10.2 10.2 0 0 0-5.54-2.29c-3.2 0-5 1.88-5 4.36 0 2.29 2 4 6.1 7 4.4 3.21 7 6.14 7 10.26-.05 5.05-4.86 8.35-9.99 8.35zm-2.15-60.17c-2.7-2.09-5.73-4.09-5.73-8.7 0-4.37 4.24-7.68 9.31-7.68a10.53 10.53 0 0 1 8 3.26l-2.14 2.33c-1.58-1.16-3.68-2.33-5.63-2.33-3.26 0-5.07 1.91-5.07 4.42 0 2.32 2 4 6.19 7.07 4.47 3.26 7.07 6.24 7.07 10.42 0 5.17-4.88 8.52-10.1 8.52a13.66 13.66 0 0 1-9.17-3.4l2-2.7c1.91 1.35 4 2.84 7.07 2.84s5.67-1.72 5.67-5.35c.03-4.09-4.82-6.75-7.51-8.7zm-24.1 17.31c-10 0-16.28-7.68-16.28-17.4a16.28 16.28 0 1 1 32.57 0c-.05 9.72-6.28 17.4-16.33 17.4zm-4.13 42.86c-9.9 0-16-7.56-16-17.14a16 16 0 1 1 32.07 0c-.08 9.58-6.19 17.14-16.11 17.14zM348 58h-9.68V25.44h10.42c13.12 0 17.68 7.49 17.68 15.31C366.44 51.54 359.56 58 348 58zm-9.09 42.87h-9.53V68.8h10.27c12.92 0 17.42 7.38 17.42 15.07 0 10.64-6.78 17.01-18.14 17.01zM320.34 58L317 48.43h-12.43L301.08 58h-4.37L310 25.44h3.44L325.55 58zM318 100.88l-3.3-9.44h-12.21l-3.44 9.44h-4.31l13.07-32.08h3.39l12 32.08zm-32.72 0h-4.45V72h-10.24v-3.2h25V72h-10.28zm-21-52.46H251.9L248.42 58H244l13.3-32.56h3.44L272.89 58h-5.21zm.82 40.68c0 7.2-4.45 12.33-12.19 12.33-9 0-12.65-4.76-12.65-13V68.8h4.44v19.43c0 6.64 2.48 10.13 8.2 10.13 6 0 8-4.77 8-9.35V68.8h4.17zm-25.85-57.61c-1.3 3.82-8.7 18.19-13.07 26.52h-1.82c-4-8.33-10.79-22.24-12-26.52h-.1V58h-3.76V25.44h4.84c4.18 8.66 8.37 17.35 12.51 26.52 4.61-9.17 9.22-17.86 13.78-26.52h4.23V58h-4.51V31.49zm-18.11 56.88h-1.42v-2.93h1.47c4.31-.23 7-2.52 7-7.29 0-3.53-2-6.09-6.74-6.09h-3.05v28.87H214V68.8h8c6.79 0 11 3 11 9.26 0 5.41-4.66 10.31-11.86 10.31zM201.33 58L198 48.43h-12.44L182.07 58h-4.37L191 25.44h3.44L206.54 58zm4.51 42.87h-17.78V68.8h15.81V72h-11.36v10.37h11.14v3.21h-11.14v12.1h13.33zm-44.91 0h-9.53V68.8h10.27c12.92 0 17.41 7.38 17.41 15.07 0 10.64-6.79 17.01-18.15 17.01zm6.35-76a15.9 15.9 0 0 1 10.05 3.3L175.47 31a15 15 0 0 0-8.47-2.86c-8.05 0-12.8 5.77-12.8 13.4 0 8.24 5.68 13.77 12.8 13.77a14.52 14.52 0 0 0 8.23-2.42l1.77 2.7a19.21 19.21 0 0 1-10.24 3c-11.63 0-17.54-8-17.54-16.94-.04-8.21 6.38-16.77 18.06-16.77zM190.59 16h3l5.84 7h-2.75l-4.6-4.51-4.61 4.51h-2.7zm84.35 9.49h9.3c5.3 0 9.45 2.75 9.45 8.37 0 4.79-2.33 7.49-5.45 9.49l8.09 13.86-4.56 1.4-7.54-14.05h-4.79V58h-4.51zm-148.51 96.9h317.42V4.46H126.43zM161.76 72h-5.91v25.67h4.95c9 0 13.38-4.49 13.38-13.88-.01-7.15-3.99-11.79-12.42-11.79zm127.08-37.76c0-4-2.51-5.53-5.54-5.53h-3.86v12.55H282c5.77 0 6.84-4.26 6.84-7.02z" fill="#6ebe44"/><path id="Fill-4" d="M4.46 4.46v43.91l8 .11-1.18-35.09h11.21l.88 23-.66 16.28-.11-.11v3.19l.11 20.46.88-8 1.87 23.42h7.7l4.61.22v-.55l2.1-.3-.11-.66H41l.44.55 1.21 1 42.12 1.21c-2.86-.22-9.35-.55-14.85-3.08C49 80.38 46.14 76.31 38.11 70.37l29.7.22 6.05-.77 12.43.44 35.71-.11V4.46z" fill="#4067b0"/><path id="Fill-6" class="cls-4" d="M12.26 49.58h-7.8v1.65l7.7-.11.1-1.54z"/><path id="Fill-8" class="cls-4" d="M12.49 53.32l-8.03.55v37.72h7.48l.55-38.27z"/></g></g></g></g></g></g></svg>