<svg width="222" height="149" viewBox="0 0 222 149" fill="none" xmlns="http://www.w3.org/2000/svg">
<path d="M76.0027 56.9506C83.7366 24.3696 113.101 0 147.995 0C188.751 0 222 33.242 222 73.9976C222 114.76 188.751 148.002 147.995 148.002C117.706 148.002 91.5807 129.641 80.1524 103.486C140.548 101.254 150.808 56.9506 150.808 56.9506H76.0027Z" fill="#080808"/>
<path d="M0 56.9579H75.9953C74.6953 62.4371 73.9829 68.1365 73.9829 73.9976C73.9829 84.4711 76.1936 94.4451 80.145 103.486C78.588 103.545 77.0236 103.597 75.4004 103.597C10.7747 103.597 0 56.9579 0 56.9579Z" fill="#080808"/>
<path d="M151.146 56.8992H75.9806C74.6733 62.3856 73.9608 68.0924 73.9608 73.9682C73.9608 84.4564 76.1789 94.4378 80.1524 103.494C140.841 101.261 151.146 56.8992 151.146 56.8992Z" fill="#34AA51"/>
</svg>
