<svg width="222" height="149" viewBox="0 0 222 149" fill="none" xmlns="http://www.w3.org/2000/svg">
<path d="M159.239 11.2656C139.054 11.2656 121.114 20.8059 109.637 35.6024L148.083 74.0488L109.659 112.466C121.136 127.255 139.076 136.781 159.246 136.781C193.905 136.781 222 108.686 222 74.0268C222 39.3601 193.898 11.2656 159.239 11.2656Z" fill="#080808"/>
<path d="M95.7538 73.9902C95.7538 59.4056 100.952 46.042 109.585 35.6317L73.961 0L0 73.961L74.078 148.039L109.651 112.466C109.183 111.866 108.73 111.26 108.291 110.645C100.462 100.484 95.7538 87.7999 95.7538 73.9902Z" fill="#080808"/>
<path d="M109.644 35.6024C101.083 45.7641 95.4102 60.4219 95.7903 74.8749C96.1997 90.4025 100.681 100.952 108.335 110.602C108.796 111.201 109.169 111.874 109.651 112.458L148.076 74.0414L109.644 35.6024Z" fill="#F1B114"/>
</svg>
