<?xml version="1.0" encoding="UTF-8"?>
<svg width="480px" height="300px" viewBox="0 0 480 300" version="1.1" xmlns="http://www.w3.org/2000/svg" xmlns:xlink="http://www.w3.org/1999/xlink">
    <!-- Generator: Sketch 48.2 (47327) - http://www.bohemiancoding.com/sketch -->
    <title>Group 19</title>
    <desc>Created with Sketch.</desc>
    <defs></defs>
    <g id="Page-1" stroke="none" stroke-width="1" fill="none" fill-rule="evenodd">
        <g id="Group-19">
            <rect id="Rectangle-5-Copy" fill="#FFFFFF" x="0" y="0" width="480" height="300"></rect>
            <g id="Group-8" transform="translate(9.000000, 59.000000)">
                <polygon id="Fill-40" fill="#FFCC99" points="162.0566 71.765 90.9216 0.63 0.4116 91.14 90.9216 181.65 160.2186 112.353 140.8436 92.979"></polygon>
                <polygon id="Fill-41" fill="#FFDD66" points="230.0811 73.6039 195.1491 38.6729 162.0571 71.7649 181.4321 91.1399 160.2191 112.3529 195.1491 147.2849 231.9191 110.5149 212.5451 91.1399"></polygon>
                <polygon id="Fill-42" fill="#66CC99" points="162.0566 71.765 140.8436 92.979 160.2186 112.353 181.4316 91.14"></polygon>
                <polygon id="Fill-43" fill="#FFBBCC" points="374.1895 71.765 303.0545 0.63 230.0815 73.604 249.4555 92.979 231.9185 110.515 303.0545 181.65 372.3505 112.353 352.9755 92.979"></polygon>
                <polygon id="Fill-44" fill="#9999FF" points="230.0811 73.6039 212.5451 91.1399 231.9191 110.5149 249.4551 92.9789"></polygon>
                <polygon id="Fill-45" fill="#9999FF" points="461.5879 92.9789 407.2809 38.6729 374.1899 71.7649 393.5639 91.1399 372.3509 112.3529 407.2809 147.2849"></polygon>
                <polygon id="Fill-46" fill="#66CC99" points="374.1895 71.765 352.9755 92.979 372.3505 112.353 393.5635 91.14"></polygon>
            </g>
        </g>
    </g>
</svg>