<svg width="222" height="149" fill="none" xmlns="http://www.w3.org/2000/svg"><path d="M76.003 56.95C83.737 24.37 113.1 0 147.995 0 188.751 0 222 33.242 222 73.998c0 40.762-33.249 74.004-74.005 74.004-30.289 0-56.414-18.361-67.843-44.516 60.396-2.232 70.656-46.535 70.656-46.535H76.003zM0 56.958h75.995a73.707 73.707 0 0 0-2.012 17.04 73.468 73.468 0 0 0 6.162 29.488 124.03 124.03 0 0 1-4.745.111c-64.625 0-75.4-46.64-75.4-46.64z" fill="#080808"/><path d="M151.146 56.9H75.981a73.516 73.516 0 0 0-2.02 17.068 73.297 73.297 0 0 0 6.191 29.526c60.689-2.233 70.994-46.595 70.994-46.595z" fill="#34AA51"/></svg>