<?xml version="1.0" encoding="UTF-8"?>
<svg width="640px" height="400px" viewBox="0 0 640 400" version="1.1" xmlns="http://www.w3.org/2000/svg" xmlns:xlink="http://www.w3.org/1999/xlink">
    <!-- Generator: Sketch 48.2 (47327) - http://www.bohemiancoding.com/sketch -->
    <title>Page 1</title>
    <desc>Created with Sketch.</desc>
    <defs>
        <polygon id="path-1" points="0.7398 0 362.7788 0 362.7788 299.02 0.7398 299.02"></polygon>
        <polygon id="path-3" points="0.2598 0 155.6138 0 155.6138 85.354 0.2598 85.354"></polygon>
        <polygon id="path-5" points="0.3858 0 152.2598 0 152.2598 110 0.3858 110"></polygon>
        <polygon id="path-7" points="0.2598 0 288.2598 0 288.2598 218 0.2598 218"></polygon>
    </defs>
    <g id="Page-1" stroke="none" stroke-width="1" fill="none" fill-rule="evenodd">
        <g>
            <polygon id="Fill-1" fill="#000000" points="0 400 640 400 640 0 0 0"></polygon>
            <g id="Group-20" transform="translate(13.000000, 0.000000)">
                <path d="M461.2598,182.2246 L461.2598,117.9996 L362.7788,117.9996 L301.2598,179.5196 L301.2598,277.9996 L333.4648,277.9996 C352.3878,224.4686 402.0578,185.4676 461.2598,182.2246" id="Fill-2" fill="#FF8899"></path>
                <g id="Group-6">
                    <mask id="mask-2" fill="white">
                        <use xlink:href="#path-1"></use>
                    </mask>
                    <g id="Clip-5"></g>
                    <path d="M362.7788,118 L181.7598,-63.02 L160.6138,-41.874 C175.8888,-25.745 185.2598,-3.967 185.2598,20 C185.2598,69.706 144.9658,110 95.2598,110 C71.2918,110 49.5148,100.629 33.3858,85.354 L0.7398,118 L181.7598,299.02 L301.2598,179.52 L301.2598,118 L362.7788,118 Z" id="Fill-4" fill="#6666FF" mask="url(#mask-2)"></path>
                </g>
                <polygon id="Fill-7" fill="#FFBB33" points="301.2598 118 301.2598 179.52 362.7788 118"></polygon>
                <g id="Group-11" transform="translate(5.000000, 0.000000)">
                    <mask id="mask-4" fill="white">
                        <use xlink:href="#path-3"></use>
                    </mask>
                    <g id="Clip-10"></g>
                    <path d="M90.2598,-70 C40.5538,-70 0.2598,-29.706 0.2598,20 C0.2598,45.738 11.0658,68.951 28.3858,85.354 L155.6138,-41.874 C139.2108,-59.194 115.9978,-70 90.2598,-70" id="Fill-9" fill="#FFBB33" mask="url(#mask-4)"></path>
                </g>
                <g id="Group-14" transform="translate(33.000000, 0.000000)">
                    <mask id="mask-6" fill="white">
                        <use xlink:href="#path-5"></use>
                    </mask>
                    <g id="Clip-13"></g>
                    <path d="M152.2598,20 C152.2598,-3.967 142.8888,-25.745 127.6138,-41.874 L0.3858,85.354 C16.5148,100.629 38.2918,110 62.2598,110 C111.9658,110 152.2598,69.706 152.2598,20" id="Fill-12" fill="#FFAA66" mask="url(#mask-6)"></path>
                </g>
                <g id="Group-17" transform="translate(325.000000, 182.000000)">
                    <mask id="mask-8" fill="white">
                        <use xlink:href="#path-7"></use>
                    </mask>
                    <g id="Clip-16"></g>
                    <path d="M144.2598,0 C141.5748,0 138.9088,0.08 136.2598,0.225 L136.2598,96 L8.4648,96 C3.1568,111.015 0.2598,127.168 0.2598,144 C0.2598,223.529 64.7308,288 144.2598,288 C223.7888,288 288.2598,223.529 288.2598,144 C288.2598,64.471 223.7888,0 144.2598,0" id="Fill-15" fill="#FFAA66" mask="url(#mask-8)"></path>
                </g>
                <path d="M461.2598,182.2246 C402.0578,185.4676 352.3878,224.4686 333.4648,277.9996 L461.2598,277.9996 L461.2598,182.2246 Z" id="Fill-18" fill="#33AA77"></path>
            </g>
        </g>
    </g>
</svg>