<svg width="1440" height="800" viewBox="0 0 1440 800" fill="none" xmlns="http://www.w3.org/2000/svg">
<g clip-path="url(#clip0)">
<rect width="1440" height="800" fill="#2A2B2A"/>
<path d="M408.383 -97C302.427 -97 213.264 -23.0023 189.78 75.929H416.925C416.925 75.929 385.769 210.454 202.381 217.234C237.082 296.651 316.41 352.406 408.383 352.406C532.137 352.406 633.097 251.467 633.097 127.692C633.097 3.9385 532.137 -97 408.383 -97Z" fill="#080808"/>
<path d="M189.758 75.9514H-41C-41 75.9514 -8.28301 217.569 187.952 217.569C192.88 217.569 197.63 217.412 202.358 217.234C190.36 189.78 183.647 159.494 183.647 127.692C183.647 109.895 185.811 92.5886 189.758 75.9514Z" fill="#080808"/>
<path d="M417.951 75.7728H189.713C185.743 92.4324 183.58 109.761 183.58 127.602C183.58 159.45 190.315 189.758 202.381 217.256C386.661 210.476 417.951 75.7728 417.951 75.7728Z" fill="#34AA51"/>
<path d="M846.78 433.368C785.205 433.368 730.476 462.471 695.462 507.61L812.748 624.896L695.529 742.093C730.543 787.21 785.272 816.269 846.803 816.269C952.536 816.269 1038.24 730.563 1038.24 624.829C1038.24 519.074 952.514 433.368 846.78 433.368Z" fill="#080808"/>
<path d="M653.11 624.718C653.11 580.225 668.967 539.457 695.306 507.7L586.628 399L361 624.629L586.985 850.614L695.506 742.093C694.079 740.264 692.696 738.413 691.358 736.539C667.473 705.54 653.11 666.846 653.11 624.718Z" fill="#080808"/>
<path d="M695.462 507.61L695.418 507.566C695.373 507.61 695.35 507.655 695.305 507.7L695.35 507.745C695.395 507.7 695.44 507.655 695.462 507.61Z" fill="#EA1877"/>
<path d="M695.484 507.61C669.369 538.61 652.062 583.325 653.222 627.416C654.471 674.786 668.142 706.967 691.492 736.406C692.897 738.235 694.035 740.286 695.507 742.07L812.725 624.874L695.484 507.61Z" fill="#F1B114"/>
<path fill-rule="evenodd" clip-rule="evenodd" d="M263.754 654.608C260.609 651.486 257.42 648.364 253.985 645.442C182.954 585.272 76.5961 594.081 16.4255 665.113C-40.6005 732.42 -35.5826 831.418 25.5693 892.793L263.754 654.608Z" fill="#7541D5"/>
<path fill-rule="evenodd" clip-rule="evenodd" d="M253.629 664.332L60.2933 858.85C85.4276 885.01 120.062 900.621 159.202 900.443C235.006 900.086 296.203 838.354 295.846 762.527C295.668 723.41 280.034 689.221 253.629 664.332Z" fill="#080808"/>
<path fill-rule="evenodd" clip-rule="evenodd" d="M-2.55342 360L-79.2051 436.652V640.424H-283L-2.55342 920.871L59.6243 858.693C57.7733 856.731 55.9222 854.768 54.1827 852.694C32.3491 828.452 18.9233 796.538 18.9233 761.412C18.9233 685.809 80.3651 624.523 156.192 624.523C190.314 624.523 221.469 637.012 245.466 657.575C248.276 659.85 250.93 662.281 253.54 664.778L277.871 640.447L-2.55342 360Z" fill="#080808"/>
<path d="M1093.25 110.373L983.282 0.401855L1093.48 -109.792L979.268 -224L755 0.268049L979.246 224.514L1093.32 110.44L1093.25 110.373Z" fill="#080808"/>
<path d="M1431.8 0.379636L1207.55 -223.866L1093.48 -109.792L1203.51 0.24583L1093.32 110.44L1207.53 224.648L1431.8 0.379636Z" fill="#080808"/>
<path d="M1093.48 -109.792L983.282 0.401586L1093.25 -109.591L1203.25 0.401586L1093.25 110.372L1093.32 110.439L1203.51 0.245457L1093.48 -109.792Z" fill="#073C5B"/>
<path d="M1093.25 110.373L983.282 0.4021L1093.25 110.373Z" fill="#F2EA19"/>
<path d="M1204.67 0.245509L1093.32 -110.35L982.502 0.46861L1093.32 111.265" fill="#D825A9"/>
<path d="M1182 557.99H1316.52V400.762H1182V557.99Z" fill="#3B81EA"/>
<path fill-rule="evenodd" clip-rule="evenodd" d="M1181.93 548.601V799.743H1571.88V404.62H1316.48V548.601H1181.93Z" fill="#080808"/>
<path fill-rule="evenodd" clip-rule="evenodd" d="M1181.93 548.601V404.62H1316.48V312H1083V548.601H1181.93Z" fill="#080808"/>
</g>
<defs>
<clipPath id="clip0">
<rect width="1440" height="800" fill="white"/>
</clipPath>
</defs>
</svg>
