<?xml version="1.0" encoding="UTF-8"?>
<svg width="200px" height="272px" viewBox="0 0 200 272" version="1.1" xmlns="http://www.w3.org/2000/svg" xmlns:xlink="http://www.w3.org/1999/xlink">
    <!-- Generator: Sketch 48.2 (47327) - http://www.bohemiancoding.com/sketch -->
    <title>Artboard</title>
    <desc>Created with Sketch.</desc>
    <defs></defs>
    <g id="Page-1" stroke="none" stroke-width="1" fill="none" fill-rule="evenodd">
        <g id="Artboard" fill="#FFFFFF">
            <g id="Group" transform="translate(32.000000, 32.000000)">
                <path d="M40,32 L72,32 L72,0 L40,0 L40,32 Z M56,114 C104,114 112,80 112,80 L0,80 C0,80 8,114 56,114 Z M80,72 L112,72 L112,40 L80,40 L80,72 Z M98.297,184.2195 L90.6705,184.2195 L84.5825,191.3625 L83.3515,192.9455 L83.3515,176 L77,176 L77,208 L83.3515,208 L83.3515,200.747 L85.6375,198.4615 L91.747,208 L99.044,208 L89.703,194.132 L98.297,184.2195 Z M60.6485,190.5185 C61.403,189.4405 62.52,188.9015 64,188.9015 C65.2015,188.9015 66.1685,189.288 66.901,190.061 C67.6335,190.8345 68.0145,191.84 68.044,193.077 L74,193.077 C73.9705,190.2635 73.0585,188.0105 71.2635,186.3185 C69.4685,184.6265 67.084,183.7805 64.11,183.7805 C60.7105,183.7805 58.0365,184.872 56.088,187.0545 C54.139,189.2385 53.165,192.161 53.165,195.824 L53.165,196.2415 C53.165,200.052 54.146,203.037 56.11,205.198 C58.073,207.3595 60.7545,208.4395 64.154,208.4395 C65.9705,208.4395 67.63,208.0695 69.132,207.3295 C70.634,206.59 71.8165,205.55 72.6815,204.209 C73.546,202.868 73.9855,201.392 74,199.7805 L68.044,199.7805 C68.0145,200.8495 67.6335,201.707 66.901,202.3515 C66.1685,202.9965 65.216,203.3185 64.044,203.3185 C62.52,203.3185 61.385,202.783 60.6375,201.712 C59.89,200.6405 59.5165,198.88 59.5165,196.4285 L59.5165,195.7685 C59.5165,193.3475 59.8935,191.5975 60.6485,190.5185 Z M53.352,151.4285 C54.1135,149.773 55.5055,148.9455 57.5275,148.9455 C59.0365,148.9455 60.172,149.498 60.934,150.6045 C61.696,151.711 62.077,153.4655 62.077,155.868 C62.077,157.846 61.923,159.3185 61.6155,160.2855 C60.9705,162.3075 59.623,163.3185 57.5715,163.3185 C55.535,163.3185 54.128,162.4835 53.352,160.8135 L53.352,151.4285 Z M59.176,168.4395 C62.0915,168.4395 64.363,167.3735 65.989,165.2415 C67.6155,163.11 68.4285,160.1395 68.4285,156.3295 L68.4285,155.978 C68.4285,152.11 67.6045,149.11 65.956,146.978 C64.308,144.846 62.033,143.7805 59.132,143.7805 C56.7435,143.7805 54.8165,144.6375 53.352,146.3515 L53.352,136 L47,136 L47,168 L52.7145,168 L53,165.4725 C54.5385,167.45 56.597,168.4395 59.176,168.4395 Z M134.4725,183.7805 C132.216,183.7805 130.4505,184.872 129.176,187.0545 L129,184.2195 L123,184.2195 L123,208 L129.3515,208 L129.3515,192.4395 C130.099,190.8135 131.674,190 134.077,190 C134.641,190 135.285,190.0455 136,190.1315 L136,183.9465 C135.516,183.8365 135.0075,183.7805 134.4725,183.7805 Z M114.0085,193.846 L105.173,193.846 C105.3925,192.257 105.8945,191.035 106.6785,190.1815 C107.462,189.328 108.4845,188.9015 109.7445,188.9015 C111.093,188.9015 112.133,189.287 112.865,190.06 C113.5975,190.833 113.9785,191.926 114.0085,193.338 L114.0085,193.846 Z M109.7665,183.7805 C107.5975,183.7805 105.668,184.2895 103.9755,185.3075 C102.283,186.326 100.9755,187.777 100.052,189.659 C99.129,191.542 98.668,193.6775 98.668,196.066 L98.668,196.6815 C98.668,200.2415 99.7625,203.092 101.953,205.2305 C104.1435,207.37 106.9825,208.4395 110.4695,208.4395 C112.448,208.4395 114.25,208.0625 115.8765,207.3075 C117.503,206.553 118.792,205.502 119.7445,204.154 L116.624,200.659 C115.246,202.4325 113.334,203.3185 110.8875,203.3185 C109.3045,203.3185 107.997,202.8495 106.9645,201.912 C105.9315,200.9745 105.3125,199.729 105.1075,198.176 L120.25,198.176 L120.25,195.5825 C120.25,191.817 119.316,188.9085 117.448,186.8575 C115.58,184.8055 113.0195,183.7805 109.7665,183.7805 Z M20,162.703 L6.5935,162.703 L6.5935,136 L0,136 L0,168 L20,168 L20,162.703 Z M19.4065,188.967 L6.5935,188.967 L6.5935,176 L0,176 L0,208 L6.5935,208 L6.5935,194.2855 L19.4065,194.2855 L19.4065,208 L26,208 L26,176 L19.4065,176 L19.4065,188.967 Z M36.626,161.2745 C36.245,161.978 35.659,162.5385 34.868,162.956 C34.0765,163.3735 33.212,163.5825 32.2745,163.5825 C31.3075,163.5825 30.5455,163.326 29.989,162.8135 C29.4315,162.301 29.1535,161.6485 29.1535,160.8575 L29.1755,160.4835 C29.3805,158.2855 31.073,157.1865 34.2525,157.1865 L36.626,157.1865 L36.626,161.2745 Z M33.703,153.4725 C30.1715,153.4875 27.472,154.169 25.604,155.5165 C23.736,156.8645 22.802,158.799 22.802,161.3185 C22.802,163.37 23.5675,165.07 25.0985,166.4175 C26.6295,167.7655 28.56,168.4395 30.89,168.4395 C33.3515,168.4395 35.3515,167.5825 36.89,165.868 L37.2085,168 L43,168 L43,162.506 L43,152.198 C43,149.5315 42.1385,147.4615 40.417,145.9895 C38.6955,144.5165 36.3695,143.7805 33.439,143.7805 C31.505,143.7805 29.7615,144.114 28.2085,144.7805 C26.6555,145.4475 25.4535,146.366 24.604,147.5385 C23.754,148.711 23.3295,149.9855 23.3295,151.3625 L29.681,151.3625 C29.681,150.469 29.985,149.7655 30.593,149.253 C31.201,148.74 32.04,148.4835 33.1095,148.4835 C34.3255,148.4835 35.2155,148.8135 35.78,149.4725 C36.3435,150.132 36.626,151.0105 36.626,152.11 L36.626,153.4725 L33.703,153.4725 Z M43.626,201.2745 C43.245,201.978 42.659,202.5385 41.868,202.956 C41.0765,203.3735 40.212,203.5825 39.2745,203.5825 C38.3075,203.5825 37.5455,203.326 36.989,202.8135 C36.4315,202.301 36.1535,201.6485 36.1535,200.8575 L36.1755,200.4835 C36.3805,198.2855 38.073,197.1865 41.2525,197.1865 L43.626,197.1865 L43.626,201.2745 Z M50,192.198 C50,189.531 49.1385,187.4615 47.417,185.9895 C45.6955,184.5165 43.3695,183.7805 40.439,183.7805 C38.505,183.7805 36.7615,184.114 35.2085,184.7805 C33.6555,185.4475 32.4535,186.366 31.604,187.5385 C30.754,188.711 30.3295,189.9855 30.3295,191.3625 L36.681,191.3625 C36.681,190.4685 36.985,189.7655 37.593,189.253 C38.201,188.74 39.04,188.4835 40.1095,188.4835 C41.3255,188.4835 42.2155,188.8135 42.78,189.4725 C43.3435,190.132 43.626,191.0105 43.626,192.11 L43.626,193.4725 L40.703,193.4725 C37.1715,193.4875 34.472,194.169 32.604,195.5165 C30.736,196.8645 29.802,198.799 29.802,201.3185 C29.802,203.37 30.5675,205.07 32.0985,206.4175 C33.6295,207.7655 35.56,208.4395 37.89,208.4395 C40.3515,208.4395 42.3515,207.5825 43.89,205.868 L44.2085,208 L50,208 L50,202.506 L50,192.198 Z" id="Fill-3"></path>
            </g>
        </g>
    </g>
</svg>