<svg width="205" height="220" viewBox="0 0 205 220" fill="none" xmlns="http://www.w3.org/2000/svg">
<path d="M99.0392 37.1602H70.1515V65.9847H99.0392V37.1602Z" fill="white"/>
<path d="M49.4611 103.088C91.8589 103.088 98.9258 74.3134 98.9258 74.3134H0C0 74.3134 7.06689 103.088 49.4611 103.088Z" fill="white"/>
<path d="M61.915 0H33.0485V28.9272H61.915V0Z" fill="white"/>
<path d="M30.4472 153.308V160.589H0.0496216V115.302H7.33979V153.308H30.4472Z" fill="white"/>
<path d="M64.0485 160.589L61.4224 152.434H44.7971L42.1745 160.589H34.5228L49.1067 115.302H57.1128L71.6967 160.589H64.0485ZM59.0868 145.156L53.0903 126.616L47.1362 145.156H59.0868Z" fill="white"/>
<path d="M26.8145 219.876V200.198H7.60559V219.876H0.0496216V172.94H7.60559V192.654H26.8145V172.94H34.3776V219.876H26.8145Z" fill="white"/>
<path d="M70.6051 219.876H47.0582C46.0734 219.875 45.1292 219.484 44.4321 218.79L38.7616 213.129C38.4162 212.785 38.1423 212.377 37.9555 211.927C37.7688 211.477 37.673 210.994 37.6735 210.507V209.053C37.6734 208.566 37.7694 208.084 37.9561 207.634C38.1428 207.184 38.4165 206.776 38.7616 206.432L44.4321 200.771C44.7768 200.426 45.1862 200.153 45.6368 199.967C46.0875 199.78 46.5705 199.684 47.0582 199.684H63.0491V198.007L59.6255 194.59H40.4875V187.022H61.2168C62.1967 187.018 63.1387 187.399 63.8394 188.083L69.51 193.744C70.2086 194.441 70.6012 195.387 70.6015 196.373L70.6051 219.876ZM46.0907 209.786L48.6424 212.333H63.0491V207.203H48.6424L46.0907 209.786Z" fill="white"/>
<path d="M86.2238 194.565L82.7967 197.983V208.912L86.2238 212.333H103.923V219.876H85.7666C84.0693 219.875 82.4416 219.202 81.2409 218.005L77.1297 213.9C75.93 212.702 75.2558 211.077 75.2549 209.382V197.487C75.2555 196.646 75.4224 195.813 75.7459 195.036C76.0694 194.258 76.5433 193.553 77.1404 192.959L81.2409 188.883C82.4405 187.691 84.0638 187.022 85.756 187.022H103.937V194.565H86.2238Z" fill="white"/>
<path d="M122.427 199.66L132.3 187.022H141.869L129.075 203.438L141.869 219.866H132.3L122.427 207.192H116.784V219.866H109.228V172.94H116.784V199.66H122.427Z" fill="white"/>
<path d="M175.386 207.203H150.031V208.912L153.459 212.333H172.565V219.876H153.427C151.444 219.874 149.544 219.086 148.142 217.686L144.669 214.219C143.973 213.525 143.421 212.701 143.044 211.794C142.667 210.887 142.472 209.915 142.472 208.933V197.937C142.471 196.951 142.665 195.974 143.043 195.063C143.422 194.153 143.977 193.325 144.676 192.63L148.139 189.187C149.543 187.793 151.443 187.011 153.423 187.011H164.459C165.444 187.011 166.42 187.205 167.33 187.582C168.24 187.959 169.066 188.512 169.761 189.208L173.203 192.644C173.898 193.338 174.449 194.162 174.825 195.069C175.2 195.976 175.394 196.948 175.393 197.93L175.386 207.203ZM150.031 197.983V199.66H167.83V197.983L164.406 194.565H153.459L150.031 197.983Z" fill="white"/>
<path d="M110.355 134.266L106.726 137.889L110.355 141.547V147.42C110.358 150.889 108.981 154.216 106.528 156.672V156.672C105.307 157.896 103.856 158.866 102.258 159.529C100.66 160.191 98.9475 160.532 97.2175 160.532H75.6483V115.245H97.2175C98.9476 115.245 100.661 115.586 102.258 116.248C103.856 116.91 105.307 117.881 106.528 119.105V119.105C108.98 121.563 110.356 124.892 110.355 128.361V134.266ZM83.7501 133.848H99.305L102.254 130.901V126.277L99.305 123.333H83.7501V133.848ZM83.7501 152.448H99.305L102.254 149.504V144.88L99.305 141.933H83.7501V152.448Z" fill="white"/>
<path d="M205 194.568L197.366 186.948H180.351V220H187.953V194.537L205 194.568Z" fill="white"/>
</svg>
