<?xml version="1.0" encoding="UTF-8"?>
<!DOCTYPE svg PUBLIC "-//W3C//DTD SVG 1.1//EN" "http://www.w3.org/Graphics/SVG/1.1/DTD/svg11.dtd">
<!-- Creator: CorelDRAW X8 -->
<svg xmlns="http://www.w3.org/2000/svg" xml:space="preserve" width="54.9193mm" height="44.3738mm" version="1.1" style="shape-rendering:geometricPrecision; text-rendering:geometricPrecision; image-rendering:optimizeQuality; fill-rule:evenodd; clip-rule:evenodd"
viewBox="0 0 2013 1626"
 xmlns:xlink="http://www.w3.org/1999/xlink">
 <defs>
  <style type="text/css">
   <![CDATA[
    .fil5 {fill:none}
    .fil4 {fill:#FEFEFE}
    .fil3 {fill:#02638D}
    .fil6 {fill:#6F9D81}
    .fil1 {fill:#6F9D82}
    .fil0 {fill:#EF5C4E}
    .fil2 {fill:#FCC43E}
   ]]>
  </style>
   <clipPath id="id0">
    <path d="M813 90c400,0 724,324 724,723 0,400 -324,724 -724,724 -399,0 -723,-324 -723,-724 0,-399 324,-723 723,-723z"/>
   </clipPath>
 </defs>
 <g id="Camada_x0020_1">
  <metadata id="CorelCorpID_0Corel-Layer"/>
  <path class="fil0" d="M813 90c400,0 724,324 724,723 0,400 -324,724 -724,724 -399,0 -723,-324 -723,-724 0,-399 324,-723 723,-723z"/>
  <g style="clip-path:url(#id0)">
   <g id="_2283821303232">
    <path id="1" class="fil1" d="M522 1270l-245 0 0 -347c0,-110 75,-195 170,-238 37,-16 25,-17 1,-29 -57,-29 -96,-88 -96,-156 0,-95 76,-172 170,-175 94,3 170,80 170,175 0,68 -39,127 -96,156 -24,12 -36,13 1,29 96,43 171,128 171,238l0 347 -246 0z"/>
    <path class="fil1" d="M1109 1277l-245 0 0 -348c0,-109 75,-194 170,-237 37,-17 25,-17 1,-30 -57,-29 -96,-88 -96,-156 0,-94 76,-172 170,-174 94,2 170,80 170,174 0,68 -39,127 -95,156 -24,13 -37,13 0,30 96,43 171,128 171,237l0 348 -246 0z"/>
    <path class="fil2" d="M1334 1496l-245 0 0 -348c0,-109 75,-194 170,-237 37,-17 25,-18 1,-30 -57,-29 -96,-88 -96,-156 0,-94 76,-172 170,-175 94,3 170,81 170,175 0,68 -39,127 -96,156 -24,12 -36,13 1,30 96,43 171,128 171,237l0 348 -246 0z"/>
    <path class="fil2" d="M292 1496l-245 0 0 -348c0,-109 75,-194 170,-237 37,-17 25,-18 1,-30 -57,-29 -96,-88 -96,-156 0,-94 76,-172 170,-175 94,3 170,81 170,175 0,68 -39,127 -95,156 -24,12 -37,13 0,30 96,43 171,128 171,237l0 348 -246 0z"/>
    <path class="fil3" d="M830 1560l-290 0 0 -411c0,-130 89,-230 201,-281 44,-20 30,-21 1,-35 -67,-34 -113,-104 -113,-185 0,-112 90,-203 201,-207 112,4 201,95 201,207 0,81 -46,151 -113,185 -28,14 -43,15 2,35 112,51 201,151 201,281l0 411 -291 0z"/>
    <g>
     <circle class="fil4" cx="759" cy="638" r="27"/>
     <circle class="fil4" cx="902" cy="638" r="27"/>
    </g>
    <g>
     <circle class="fil4" cx="1272" cy="713" r="27"/>
     <circle class="fil4" cx="1415" cy="713" r="27"/>
    </g>
    <g>
     <circle class="fil4" cx="214" cy="713" r="27"/>
     <circle class="fil4" cx="356" cy="713" r="27"/>
    </g>
    <g>
     <circle class="fil4" cx="454" cy="475" r="27"/>
     <circle class="fil4" cx="596" cy="475" r="27"/>
    </g>
    <g>
     <circle class="fil4" cx="1052" cy="475" r="27"/>
     <circle class="fil4" cx="1194" cy="475" r="27"/>
    </g>
   </g>
  </g>
  <path class="fil5" d="M813 90c400,0 724,324 724,723 0,400 -324,724 -724,724 -399,0 -723,-324 -723,-724 0,-399 324,-723 723,-723z"/>
  <path class="fil6" d="M813 0c449,0 813,364 813,813 0,449 -364,813 -813,813 -449,0 -813,-364 -813,-813 0,-449 364,-813 813,-813zm0 46c424,0 767,344 767,767 0,424 -343,767 -767,767 -423,0 -767,-343 -767,-767 0,-423 344,-767 767,-767z"/>
  <path class="fil6" d="M1880 665l121 121c16,16 16,41 0,57l-131 131c-45,45 -80,47 -80,-34l0 -264c0,-95 56,-45 90,-11z"/>
 </g>
</svg>
