<?xml version="1.0" encoding="UTF-8"?>
<!DOCTYPE svg PUBLIC "-//W3C//DTD SVG 1.1//EN" "http://www.w3.org/Graphics/SVG/1.1/DTD/svg11.dtd">
<!-- Creator: CorelDRAW X8 -->
<svg xmlns="http://www.w3.org/2000/svg" xml:space="preserve" width="55.4277mm" height="44.3738mm" version="1.1" style="shape-rendering:geometricPrecision; text-rendering:geometricPrecision; image-rendering:optimizeQuality; fill-rule:evenodd; clip-rule:evenodd"
viewBox="0 0 5739 4594"
 xmlns:xlink="http://www.w3.org/1999/xlink">
 <defs>
  <style type="text/css">
   <![CDATA[
    .fil7 {fill:none}
    .fil6 {fill:#FEFEFE}
    .fil0 {fill:#02638D}
    .fil5 {fill:#6F9D82}
    .fil4 {fill:#BCBCBC}
    .fil3 {fill:#EEEEEE}
    .fil1 {fill:#EF5D4E}
    .fil2 {fill:#FCC43E}
    .fil8 {fill:#FEC540}
   ]]>
  </style>
   <clipPath id="id0">
    <path d="M3442 254c1128,0 2043,915 2043,2043 0,1129 -915,2044 -2043,2044 -1129,0 -2044,-915 -2044,-2044 0,-1128 915,-2043 2044,-2043z"/>
   </clipPath>
 </defs>
 <g id="Camada_x0020_1">
  <metadata id="CorelCorpID_0Corel-Layer"/>
  <path class="fil0" d="M3442 254c1128,0 2043,915 2043,2043 0,1129 -915,2044 -2043,2044 -1129,0 -2044,-915 -2044,-2044 0,-1128 915,-2043 2044,-2043z"/>
  <g style="clip-path:url(#id0)">
   <g id="_2283821304032">
    <g>
     <path id="1" class="fil1" d="M2458 9436c0,0 749,436 818,449 69,13 248,-277 248,-277l-364 -382 -272 65 -253 132 -177 13z"/>
     <path class="fil2" d="M2825 8744c61,-96 123,-192 185,-288 313,58 626,116 939,174 208,-48 416,-95 625,-143 54,253 109,505 163,758 -152,22 -304,44 -456,67 -301,220 -602,440 -903,661 -67,48 -68,34 -135,-17 -54,-40 -48,-35 -3,-81 50,-52 101,-104 152,-156 -69,43 -137,85 -206,128 -57,35 -51,40 -105,1 -13,-9 -25,-18 -38,-27 -59,-43 -38,-39 11,-90 54,-59 109,-117 164,-175 -75,56 -149,112 -224,168 -76,57 -70,54 -152,3 -34,-21 -68,-44 -97,-69 -43,-37 -41,-62 25,-118 91,-77 182,-154 274,-231 -126,76 -251,152 -377,228 -71,43 -72,59 -144,14 -26,-16 -51,-34 -75,-53 -69,-55 -53,-53 -8,-124 310,-210 621,-420 931,-630 -155,10 -310,21 -464,31 -28,-10 -55,-21 -82,-31z"/>
     <polygon class="fil1" points="2524,8697 2704,8770 3347,8443 3709,8557 3875,8856 3677,8939 3513,8754 3331,8791 2413,9421 2239,9330 "/>
     <polygon class="fil3" points="2255,8534 2598,8695 2139,9571 1923,9452 "/>
     <polygon class="fil4" points="2370,8588 2376,8591 2039,9516 1923,9452 1964,9338 "/>
     <path class="fil0" d="M2113 9395c20,0 37,16 37,36 0,20 -17,37 -37,37 -21,0 -37,-17 -37,-37 0,-20 16,-36 37,-36z"/>
     <polygon class="fil5" points="1307,8056 2403,8524 1886,9701 1307,9464 "/>
     <polygon class="fil3" points="4858,8388 4456,8493 4768,9527 5025,9442 "/>
     <polygon class="fil4" points="4723,8423 4716,8425 4887,9487 5025,9442 5004,9311 "/>
     <path class="fil0" d="M4833 9343c-22,-5 -43,10 -47,31 -5,22 10,43 32,47 22,4 43,-11 47,-32 4,-22 -10,-42 -32,-46z"/>
     <polygon class="fil1" points="5576,8153 4701,8348 5013,9717 5576,9600 "/>
     <path class="fil1" d="M3375 9954c31,15 61,30 92,44 39,20 36,22 70,-6 12,-10 25,-20 37,-30 47,-38 55,-30 16,-76 -16,-18 -32,-36 -47,-55 -37,-43 -29,-51 -74,-16 -15,12 -30,23 -45,35 -41,32 -33,28 -6,71 -14,11 -29,22 -43,33z"/>
     <path class="fil1" d="M3598 9788c35,17 70,34 105,51 45,22 41,24 80,-7 15,-12 29,-23 43,-35 54,-43 62,-34 18,-86 -18,-21 -36,-42 -54,-64 -42,-49 -33,-58 -85,-18 -17,13 -34,26 -51,40 -47,37 -38,32 -6,82 -17,12 -33,24 -50,37z"/>
     <path class="fil1" d="M3902 9633c30,40 42,26 81,-5 15,-12 23,-17 37,-29 54,-43 62,-34 18,-86 -18,-21 -36,-42 -54,-63 -42,-49 -33,-59 -85,-19 -17,13 -34,27 -51,40 -47,37 -37,32 -6,82l60 80z"/>
     <path class="fil1" d="M4092 9483c32,38 42,25 81,-6 15,-12 23,-17 37,-29 54,-42 63,-33 18,-86 -11,-13 -41,-58 -73,-36 -30,21 -60,45 -89,69 -36,30 3,61 26,88z"/>
    </g>
    <g>
     <path class="fil2" d="M3412 4644l-549 0 0 -777c0,-246 167,-436 380,-531 84,-38 56,-40 3,-67 -127,-65 -214,-197 -214,-349 0,-212 169,-385 380,-391 211,6 380,179 380,391 0,152 -87,284 -214,349 -53,27 -81,29 2,67 213,95 381,285 381,531l0 777 -549 0z"/>
     <g>
      <circle class="fil6" cx="3277" cy="2900" r="51"/>
      <circle class="fil6" cx="3546" cy="2900" r="51"/>
     </g>
     <path class="fil5" d="M4510 4644l550 0 0 -777c0,-246 -168,-436 -381,-531 -83,-38 -56,-40 -2,-67 127,-65 213,-197 213,-349 0,-212 -169,-385 -380,-391 -210,6 -379,179 -379,391 0,152 86,284 213,349 54,27 81,29 -2,67 -213,95 -381,285 -381,531l0 777 549 0z"/>
     <g>
      <circle class="fil6" cx="4645" cy="2900" r="51"/>
      <circle class="fil6" cx="4376" cy="2900" r="51"/>
     </g>
     <path class="fil1" d="M2313 4644l550 0 0 -777c0,-246 -168,-436 -381,-531 -84,-38 -56,-40 -2,-67 126,-65 213,-197 213,-349 0,-212 -169,-385 -380,-391 -210,6 -379,179 -379,391 0,152 86,284 213,349 54,27 81,29 -2,67 -213,95 -381,285 -381,531l0 777 549 0z"/>
     <g>
      <circle class="fil6" cx="2448" cy="2900" r="51"/>
      <circle class="fil6" cx="2179" cy="2900" r="51"/>
     </g>
    </g>
    <path class="fil5" d="M2858 683l162 0c-200,0 -364,164 -364,364l0 784c0,200 164,363 364,363l-162 0c-200,0 -364,-163 -364,-363l0 -784c0,-200 164,-364 364,-364z"/>
    <path class="fil2" d="M2596 683l162 0c-200,0 -363,164 -363,364l0 784c0,200 163,363 363,363l-162 0c-200,0 -363,-163 -363,-363l0 -784c0,-200 163,-364 363,-364z"/>
    <polygon class="fil5" points="3358,2012 3358,2427 3046,2115 "/>
    <rect class="fil1" x="2764" y="683" width="2019" height="1511" rx="363" ry="363"/>
    <polygon class="fil1" points="4442,2012 4442,2427 4129,2115 "/>
    <polygon class="fil2" points="2323,2012 2323,2427 2571,2179 "/>
   </g>
  </g>
  <path class="fil7" d="M3442 254c1128,0 2043,915 2043,2043 0,1129 -915,2044 -2043,2044 -1129,0 -2044,-915 -2044,-2044 0,-1128 915,-2043 2044,-2043z"/>
  <path class="fil8" d="M3442 0c1268,0 2297,1029 2297,2297 0,1269 -1029,2297 -2297,2297 -1269,0 -2298,-1028 -2298,-2297 0,-1268 1029,-2297 2298,-2297zm0 131c1196,0 2166,970 2166,2166 0,1196 -970,2166 -2166,2166 -1197,0 -2167,-970 -2167,-2166 0,-1196 970,-2166 2167,-2166z"/>
  <path class="fil8" d="M375 2715l-342 -342c-44,-44 -44,-116 0,-160l372 -371c125,-126 223,-132 223,97l0 747c0,266 -157,125 -253,29z"/>
 </g>
</svg>
