<?xml version="1.0" encoding="UTF-8"?>
<!DOCTYPE svg PUBLIC "-//W3C//DTD SVG 1.1//EN" "http://www.w3.org/Graphics/SVG/1.1/DTD/svg11.dtd">
<!-- Creator: CorelDRAW X8 -->
<svg xmlns="http://www.w3.org/2000/svg" xml:space="preserve" width="53.8053mm" height="44.3738mm" version="1.1" style="shape-rendering:geometricPrecision; text-rendering:geometricPrecision; image-rendering:optimizeQuality; fill-rule:evenodd; clip-rule:evenodd"
viewBox="0 0 1795 1480"
 xmlns:xlink="http://www.w3.org/1999/xlink">
 <defs>
  <style type="text/css">
   <![CDATA[
    .fil10 {fill:none}
    .fil1 {fill:#FEFEFE}
    .fil2 {fill:#E6E7E8}
    .fil8 {fill:#D2D3D5}
    .fil9 {fill:#848688}
    .fil3 {fill:#02638D}
    .fil5 {fill:#49BA9B}
    .fil0 {fill:#6F9D81}
    .fil6 {fill:#6F9D82}
    .fil11 {fill:#EF5D4E}
    .fil7 {fill:#F59B32}
    .fil4 {fill:#FCC43E}
   ]]>
  </style>
   <clipPath id="id0">
    <path d="M740 82c364,0 658,294 658,658 0,364 -294,658 -658,658 -364,0 -658,-294 -658,-658 0,-364 294,-658 658,-658z"/>
   </clipPath>
 </defs>
 <g id="Camada_x0020_1">
  <metadata id="CorelCorpID_0Corel-Layer"/>
  <path class="fil0" d="M740 82c364,0 658,294 658,658 0,364 -294,658 -658,658 -364,0 -658,-294 -658,-658 0,-364 294,-658 658,-658z"/>
  <g style="clip-path:url(#id0)">
   <g id="_2283806693168">
    <g>
     <rect class="fil1" transform="matrix(1.31877 -0.100624 0.100624 1.31877 297.778 178.877)" width="663" height="840"/>
     <polygon class="fil2" points="1234,922 1257,1220 411,1285 363,1039 305,277 1081,128 "/>
     <rect class="fil1" transform="matrix(1.2987 -0.250323 0.250323 1.2987 186.952 332.302)" width="663" height="840"/>
     <g>
      <rect class="fil3" transform="matrix(1.14119 -0.221264 0.221264 1.14119 649.719 551.101)" width="351.061" height="29.4597"/>
      <rect class="fil3" transform="matrix(0.63045 -0.122237 0.221264 1.14119 664.384 626.74)" width="351.061" height="29.4597"/>
      <rect class="fil3" transform="matrix(2.04298 -0.396109 0.68223 3.51868 292.398 402.362)" width="351.061" height="29.4597"/>
      <circle class="fil3" transform="matrix(1.55511 -0.301517 0.301517 1.55511 496.312 624.344)" r="64"/>
     </g>
     <g>
      <path class="fil4" d="M479 1202l-7 -11c0,0 0,0 0,0 -18,23 -13,30 15,23 0,0 0,-1 -1,-1l-7 -11z"/>
      <path class="fil5" d="M983 808l57 87 -482 317c-4,3 -11,2 -14,-3l-45 -69c-3,-5 -2,-11 3,-14l481 -318z"/>
      <path class="fil6" d="M983 808l27 41 -490 323 -21 -32c-3,-5 -2,-11 3,-14l481 -318z"/>
      <rect class="fil4" transform="matrix(0.0757452 0.114903 -0.00453024 0.00298637 983.067 808.461)" width="749" height="4265"/>
      <rect class="fil4" transform="matrix(0.0200957 0.0304846 -0.0448905 0.0295922 993.488 824.27)" width="749" height="4265"/>
      <rect class="fil4" transform="matrix(0.0757452 0.114903 -0.0020592 0.00135744 763.502 953.2)" width="749" height="4265"/>
      <rect class="fil4" transform="matrix(0.0757452 0.114903 -0.0020592 0.00135744 542.182 1099.1)" width="749" height="4265"/>
      <path class="fil4" d="M1021 808l33 51c6,8 8,11 2,14l-21 14 -24 -36 -24 -36 21 -14c6,-4 8,-1 13,7z"/>
      <path class="fil3" d="M521 1175l-22 -34c0,-1 -1,-2 -1,-2 -10,13 -23,37 -32,57l14 21c21,0 49,-3 65,-7 0,0 -1,-1 -1,-2l-23 -33z"/>
     </g>
     <g>
      <path class="fil4" d="M449 449c57,-16 116,18 132,75 9,32 2,65 -16,90 -9,13 -7,17 -12,32 -6,17 -21,32 -40,37 -20,5 -40,0 -54,-13 -11,-9 -11,-13 -24,-18 -29,-13 -52,-38 -61,-71 -16,-57 17,-116 75,-132z"/>
      <path class="fil7" d="M453 466c49,-13 100,15 113,64 8,28 2,55 -13,77 -8,11 -4,23 -9,35 -5,15 -17,27 -33,32 -17,5 -35,0 -47,-11 -9,-8 -11,-19 -22,-24 -25,-10 -45,-32 -53,-60 -13,-49 15,-99 64,-113z"/>
      <path class="fil1" d="M455 480c43,-12 86,13 98,55 1,3 1,5 2,7 -18,-36 -59,-55 -99,-44 -30,8 -51,31 -59,60 0,-36 23,-68 58,-78z"/>
      <g>
       <rect class="fil2" transform="matrix(1.06274 -0.293826 0.293826 1.06274 463.268 672.786)" width="80.2603" height="80.4605" rx="7" ry="7"/>
       <path class="fil8" d="M470 671l35 -10 24 86 -35 9c-4,1 -8,-1 -9,-5l-20 -71c-1,-4 1,-8 5,-9z"/>
       <path class="fil2" d="M469 701l83 -46c4,-2 8,1 9,5l0 2c1,4 -1,7 -4,9l-84 46c-3,1 -7,-2 -8,-5l-1 -3c-1,-3 2,-6 5,-8z"/>
       <path class="fil8" d="M560 658c0,1 1,1 1,2l0 2c1,4 -1,7 -4,9l-84 46c-3,1 -7,-2 -8,-5l0 -1 95 -53z"/>
       <path class="fil2" d="M478 733l83 -46c4,-1 8,1 9,5l0 3c1,3 -1,6 -4,8l-84 46c-3,2 -7,-1 -8,-5l-1 -2c-1,-4 2,-7 5,-9z"/>
       <path class="fil8" d="M570 692l0 3c1,3 -1,6 -4,8l-84 46c-3,2 -7,-1 -8,-4l96 -53z"/>
       <path class="fil9" d="M550 741c-1,9 -7,17 -16,19 -9,3 -19,-1 -24,-8l40 -11z"/>
      </g>
     </g>
    </g>
   </g>
  </g>
  <path class="fil10" d="M740 82c364,0 658,294 658,658 0,364 -294,658 -658,658 -364,0 -658,-294 -658,-658 0,-364 294,-658 658,-658z"/>
  <path class="fil11" d="M740 0c409,0 740,331 740,740 0,409 -331,740 -740,740 -409,0 -740,-331 -740,-740 0,-409 331,-740 740,-740zm0 42c385,0 698,313 698,698 0,385 -313,698 -698,698 -385,0 -698,-313 -698,-698 0,-385 313,-698 698,-698z"/>
  <path class="fil11" d="M1674 567l110 111c14,14 14,37 0,51l-120 120c-40,40 -72,42 -72,-32l0 -240c0,-86 51,-41 82,-10z"/>
 </g>
</svg>
