<?xml version="1.0" encoding="UTF-8"?>
<!DOCTYPE svg PUBLIC "-//W3C//DTD SVG 1.1//EN" "http://www.w3.org/Graphics/SVG/1.1/DTD/svg11.dtd">
<!-- Creator: CorelDRAW X8 -->
<svg xmlns="http://www.w3.org/2000/svg" xml:space="preserve" width="57.7453mm" height="44.3738mm" version="1.1" style="shape-rendering:geometricPrecision; text-rendering:geometricPrecision; image-rendering:optimizeQuality; fill-rule:evenodd; clip-rule:evenodd"
viewBox="0 0 7898 6069"
 xmlns:xlink="http://www.w3.org/1999/xlink">
 <defs>
  <style type="text/css">
   <![CDATA[
    .fil16 {fill:none}
    .fil3 {fill:#FEFEFE}
    .fil10 {fill:#ECEDEE}
    .fil2 {fill:#E6E7E8}
    .fil6 {fill:#D2D3D5}
    .fil11 {fill:#557964}
    .fil1 {fill:#02638D}
    .fil13 {fill:#2C2829}
    .fil4 {fill:#49BA9B}
    .fil5 {fill:#6F9D82}
    .fil12 {fill:#DDDDDD}
    .fil9 {fill:#EF5D4E}
    .fil14 {fill:#F59B32}
    .fil15 {fill:#FCC43E}
    .fil0 {fill:#FEC540}
    .fil7 {fill:#D2D3D5;fill-rule:nonzero}
    .fil8 {fill:#49BA9B;fill-rule:nonzero}
   ]]>
  </style>
   <clipPath id="id0">
    <path d="M4863 335c1491,0 2700,1209 2700,2700 0,1490 -1209,2699 -2700,2699 -1490,0 -2699,-1209 -2699,-2699 0,-1491 1209,-2700 2699,-2700z"/>
   </clipPath>
 </defs>
 <g id="Camada_x0020_1">
  <metadata id="CorelCorpID_0Corel-Layer"/>
  <path class="fil0" d="M4863 335c1491,0 2700,1209 2700,2700 0,1490 -1209,2699 -2700,2699 -1490,0 -2699,-1209 -2699,-2699 0,-1491 1209,-2700 2699,-2700z"/>
  <g style="clip-path:url(#id0)">
   <g id="_2283806690896">
    <g>
     <rect class="fil1" transform="matrix(1.14186 -0.169895 0.169895 1.14186 3982.38 1080.73)" width="1940" height="3442" rx="266" ry="266"/>
     <rect class="fil2" transform="matrix(1.14186 -0.169895 0.169895 1.14186 4255.04 1624.54)" width="1612" height="2457"/>
     <rect class="fil3" transform="matrix(1.06426 -0.158349 0.165566 1.11277 4390.74 1677.4)" width="1612" height="2457"/>
     <path class="fil2" d="M6111 1457l402 2699 -1716 255 -18 -121c311,-677 1114,-2372 1332,-2833z"/>
     <circle class="fil4" transform="matrix(1.14186 -0.169895 0.169895 1.14186 5133.95 1210.71)" r="63"/>
     <circle class="fil5" transform="matrix(3.42558 -0.509684 0.509684 3.42558 5632.38 4560.65)" r="63"/>
    </g>
    <g>
     <rect class="fil6" transform="matrix(0.759966 -0.105923 0.0841869 0.604016 4966.28 2381.61)" width="1439" height="121"/>
     <rect class="fil6" transform="matrix(0.333687 -0.0465089 0.0841869 0.604016 4988.04 2537.74)" width="1439" height="121"/>
     <g>
      <path class="fil7" d="M4602 2417l167 -24c9,-1 17,2 23,6l0 0c7,5 11,13 13,21l23 167c1,9 -1,17 -6,24l0 0c-5,6 -12,11 -21,12l-167 23c-9,2 -17,-1 -24,-6l0 0c-6,-5 -11,-12 -12,-20l-23 -168c-1,-8 1,-17 6,-23l0 0c5,-7 12,-11 21,-12zm171 5l-167 24c-1,0 -1,0 -2,1 0,0 0,1 0,1l23 167c0,1 1,2 1,2 0,0 1,0 2,0l167 -23c1,0 1,0 1,-1 1,0 1,-1 1,-1l-24 -168c0,0 0,-1 0,-1 -1,0 -1,-1 -2,-1z"/>
      <polygon class="fil8" points="4853,2344 4786,2354 4698,2546 4659,2494 4592,2503 4710,2633 "/>
     </g>
     <rect class="fil6" transform="matrix(0.759966 -0.105923 0.0841869 0.604016 5019.67 2764.7)" width="1439" height="121"/>
     <rect class="fil6" transform="matrix(0.333687 -0.0465089 0.0841869 0.604016 5041.43 2920.83)" width="1439" height="121"/>
     <g>
      <path class="fil8" d="M4655 2800l167 -24c9,-1 17,2 24,6l0 1c6,4 11,12 12,20l23 168c1,8 -1,16 -6,23l0 0c-5,6 -12,11 -21,12l-167 24c-8,1 -17,-2 -23,-7l0 0c-7,-5 -11,-12 -13,-20l-23 -168c-1,-8 1,-17 6,-23l0 0c5,-7 12,-11 21,-12zm171 6l-167 23c0,0 -1,0 -1,1 -1,0 -1,1 -1,1l24 168c0,0 0,1 0,1 1,0 1,0 2,0l167 -23c1,0 1,0 2,-1 0,0 0,-1 0,-1l-23 -168c0,0 -1,-1 -1,-1 0,0 -1,-1 -2,0z"/>
      <polygon class="fil8" points="4907,2727 4840,2737 4752,2929 4712,2877 4645,2886 4764,3016 "/>
     </g>
     <rect class="fil6" transform="matrix(0.759966 -0.105923 0.0841869 0.604016 5073.07 3147.8)" width="1439" height="121"/>
     <rect class="fil6" transform="matrix(0.333687 -0.0465089 0.0841869 0.604016 5094.83 3303.93)" width="1439" height="121"/>
     <path class="fil7" d="M4708 3183l168 -24c8,-1 17,2 23,7l0 0c7,4 11,12 12,20l24 168c1,8 -2,17 -6,23l0 0c-5,6 -13,11 -21,12l-168 24c-8,1 -16,-2 -23,-6l0 -1c-6,-4 -11,-12 -12,-20l-23 -168c-2,-8 1,-16 6,-23l0 0c5,-6 12,-11 20,-12zm172 6l-167 23c-1,0 -2,0 -2,1 0,0 0,1 0,1l23 168c0,0 0,1 1,1 0,0 1,1 1,0l168 -23c0,0 1,0 1,-1 0,0 1,-1 1,-1l-24 -168c0,0 0,-1 -1,-1 0,0 -1,0 -1,0z"/>
     <polygon class="fil8" points="4960,3110 4893,3120 4805,3312 4766,3260 4698,3269 4817,3399 "/>
     <rect class="fil6" transform="matrix(0.759966 -0.105923 0.0841869 0.604016 5126.46 3530.89)" width="1439" height="121"/>
     <rect class="fil6" transform="matrix(0.333687 -0.0465089 0.0841869 0.604016 5148.22 3687.02)" width="1439" height="121"/>
     <rect class="fil6" transform="matrix(0.759966 -0.105923 0.0841869 0.604016 5179.86 3913.98)" width="1439" height="121"/>
     <rect class="fil6" transform="matrix(0.333687 -0.0465089 0.0841869 0.604016 5201.62 4070.11)" width="1439" height="121"/>
     <path class="fil7" d="M4761 3560l167 -23c9,-1 17,1 24,6l0 0c6,5 11,12 12,21l23 167c1,9 -1,17 -6,23l0 1c-5,6 -12,11 -21,12l-167 23c-8,1 -17,-1 -23,-6l0 0c-7,-5 -11,-12 -13,-21l-23 -167c-1,-9 1,-17 6,-23l0 0c5,-7 13,-12 21,-13zm171 6l-167 23c0,0 -1,1 -1,1 -1,1 -1,1 -1,2l24 167c0,1 0,1 0,2 1,0 1,0 2,0l167 -23c1,0 1,-1 2,-1 0,-1 0,-1 0,-2l-23 -167c0,-1 -1,-1 -1,-2 0,0 -1,0 -2,0z"/>
     <path class="fil7" d="M4817 3961l167 -24c9,-1 17,2 23,6l1 0c6,5 11,13 12,21l23 167c1,9 -1,17 -6,24l0 0c-5,6 -12,11 -21,12l-167 23c-9,2 -17,-1 -23,-6l0 0c-7,-5 -12,-12 -13,-20l-23 -168c-1,-8 1,-17 6,-23l0 0c5,-7 12,-11 21,-12zm171 5l-167 24c-1,0 -1,0 -2,1 0,0 0,1 0,1l23 167c1,1 1,2 1,2 1,0 1,0 2,0l167 -23c1,0 1,0 2,-1 0,0 0,-1 0,-1l-23 -168c0,0 -1,-1 -1,-1 -1,0 -1,-1 -2,-1z"/>
    </g>
    <g>
     <path class="fil9" d="M3621 3714c72,80 150,165 251,349 105,193 -144,242 -200,81 -38,-108 -154,-203 -276,-238 71,76 140,144 184,224 74,133 -57,193 -153,83 -43,-49 -112,-92 -211,-129 45,-80 89,-160 133,-240 91,-43 181,-86 272,-130z"/>
     <path class="fil9" d="M2340 5428c229,-536 458,-1072 687,-1608 39,-93 69,-99 158,-147 253,-136 525,-193 828,-250 183,-34 281,175 148,238 -273,130 -535,126 -769,269 -209,128 -28,759 437,501 73,-124 190,-256 284,-372 122,-150 387,-66 256,115 -76,104 -149,224 -207,346 -97,204 -233,314 -401,465 -177,159 -355,318 -532,476 -83,111 -167,222 -250,333 -213,-122 -426,-244 -639,-366z"/>
     <g>
      <path class="fil4" d="M2630 4165l55 196c7,24 31,37 54,31l1743 -487 -79 -281 -1742 487c-23,6 -37,31 -31,54z"/>
      <path class="fil10" d="M2777 4079l78 280 -116 33c-23,6 -47,-7 -54,-31l-55 -196c-6,-23 8,-48 31,-54l116 -32z"/>
      <polygon class="fil9" points="2855,4359 2777,4079 2929,4036 3007,4317 "/>
      <polygon class="fil10" points="4699,3696 4482,3905 4403,3624 "/>
      <polygon class="fil11" points="4699,3696 4637,3755 4615,3675 "/>
     </g>
     <polygon class="fil12" points="2118,5581 2288,5275 3132,5795 2838,6249 "/>
     <polygon class="fil13" points="1372,6846 2116,5406 3200,6060 2740,6892 "/>
    </g>
    <path class="fil1" d="M5077 1887l10 -2 -18 -119c-16,-105 57,-204 162,-220l0 0c105,-16 204,57 220,162l18 119 10 -1c15,-3 29,8 31,23l43 280c5,32 -18,62 -50,67l-339 52c-32,4 -62,-18 -67,-50l-43 -280c-2,-15 8,-29 23,-31zm216 68c21,-3 41,11 45,33 1,10 -1,21 -7,29l30 94 -43 6 -43 7 0 -99c-8,-6 -13,-15 -15,-25 -3,-22 12,-42 33,-45zm-154 -78l278 -42 -16 -110c-12,-77 -84,-130 -161,-118l0 0c-77,11 -130,83 -118,160l17 110z"/>
    <rect class="fil14" x="-10114" y="7045" width="3498" height="3498"/>
    <rect class="fil15" x="-4761" y="7045" width="3498" height="3498"/>
    <rect class="fil4" x="326" y="7045" width="3498" height="3498"/>
    <rect class="fil5" x="5202" y="7045" width="3498" height="3498"/>
    <rect class="fil9" x="10555" y="7045" width="3498" height="3498"/>
    <rect class="fil1" x="15643" y="7045" width="3498" height="3498"/>
   </g>
  </g>
  <path class="fil16" d="M4863 335c1491,0 2700,1209 2700,2700 0,1490 -1209,2699 -2700,2699 -1490,0 -2699,-1209 -2699,-2699 0,-1491 1209,-2700 2699,-2700z"/>
  <path class="fil1" d="M4863 0c1676,0 3035,1359 3035,3035 0,1675 -1359,3034 -3035,3034 -1675,0 -3034,-1359 -3034,-3034 0,-1676 1359,-3035 3034,-3035zm0 173c1581,0 2862,1281 2862,2862 0,1580 -1281,2861 -2862,2861 -1580,0 -2861,-1281 -2861,-2861 0,-1581 1281,-2862 2861,-2862z"/>
  <path class="fil0" d="M496 3587l-452 -452c-59,-58 -59,-153 0,-211l491 -491c166,-166 295,-174 295,129l0 986c0,351 -208,166 -334,39z"/>
 </g>
</svg>
