<svg xmlns="http://www.w3.org/2000/svg" width="651.829" height="97.74" viewBox="0 0 17248 2586" shape-rendering="geometricPrecision" text-rendering="geometricPrecision" image-rendering="optimizeQuality" fill-rule="evenodd" clip-rule="evenodd"><defs><style>.fil3{fill:#ee5d4f;fill-rule:nonzero}</style></defs><g id="Camada_x0020_1"><path d="M1936 0h13374v2586H1936V0zm251 239h12873v2108H2187V239z" fill="#4abc9b"/><path d="M385 908c-7-18-4-33 12-44 38-27 76-45 108-56 34-11 66-17 97-18 50-1 93 9 125 32 32 22 57 51 74 89 17 36 27 79 27 126 1 48-3 96-15 147-12 50-29 99-52 146-24 48-51 91-85 128-34 38-73 68-115 90s-88 33-137 32c-20 72-35 137-45 195-11 59-9 102 6 130 13 23 11 43-3 57-15 14-34 21-59 23-24 2-49-4-76-17s-48-33-61-62c-15-33-20-77-14-132s19-115 37-181c19-66 39-134 63-204 25-70 47-137 66-200 19-64 35-120 46-170 10-49 11-86 1-111zm98 482c17-1 35-12 53-34 17-22 33-49 47-80 14-32 25-66 34-102 9-37 13-70 14-99 0-30-4-53-16-71-10-16-27-22-52-16 2 2 2 4 2 5s1 2 1 4c4 18 4 40 0 68-3 27-9 57-17 92-7 34-17 71-28 111-12 40-26 81-38 122zm856-82c9-34 19-50 27-48 10 2 11 20 4 54-3 11-6 28-12 50s-13 47-22 72c-10 27-21 53-34 80s-26 50-42 72c-16 20-34 37-54 49-21 13-43 18-68 15-32-3-54-16-66-36s-18-44-19-71c-1-28 3-58 9-89s13-59 20-86 12-48 14-65c1-17-4-26-12-25-9 0-21 13-36 38-14 25-29 56-40 93-13 41-24 86-39 132-15 45-28 90-39 133-11 44-18 84-20 122-3 37 2 68 15 92 12 24 10 42-5 57-14 13-34 22-58 23-25 2-51-3-78-16-25-13-47-34-60-63-15-32-22-70-19-113 2-44 11-89 24-136 12-47 27-96 44-145s32-96 47-141c14-45 24-87 30-124 7-38 7-69-3-94-7-19-3-33 12-43 14-10 32-13 54-8 22 4 45 18 68 39 23 23 39 56 49 101 20-44 47-80 77-109 31-29 65-44 100-45 32-1 55 9 68 28 13 21 19 45 19 75s-5 62-12 98c-8 36-16 69-24 99s-15 56-20 76-4 30 5 30c10 0 20-6 29-17 9-12 18-26 27-43 8-17 16-36 23-56 7-19 13-38 17-55zm281-247c46-1 84 11 112 35 28 26 49 58 62 99s19 88 17 141c-2 54-8 109-20 165-13 57-31 111-54 165s-50 102-80 144c-29 42-63 76-100 103-35 26-74 41-115 42-49 1-88-11-118-35-30-25-52-58-66-99s-19-88-17-141c2-54 9-108 22-165 13-56 31-111 56-165 24-54 51-102 81-144 31-42 66-77 103-103 37-27 76-40 117-42zm-164 690c7-1 17-13 30-37s26-54 38-90c11-36 25-75 37-117 12-41 22-80 28-116 7-36 12-66 14-90 2-23 0-35-8-35-9 0-19 12-31 36s-23 55-35 91c-13 36-25 74-36 116-11 41-20 80-27 116s-12 66-15 90c-4 24-2 36 5 36zm786-819c0 34-11 64-35 88s-53 37-86 38c-34 1-63-10-88-33s-36-52-36-86c0-33 12-62 36-86 25-25 54-37 88-38 33-1 62 10 86 33s35 52 35 84zm-307 280c15-34 37-60 65-78 28-17 55-27 78-29 26-2 46 4 61 16 15 13 16 33 7 60-11 31-23 74-37 128-15 54-31 113-49 179-18 64-36 132-56 202-20 69-41 135-63 199-21 63-42 120-66 170-23 50-47 88-71 113-32 35-64 57-98 65s-64 10-88 4c-25-5-43-15-52-29-9-13-4-26 13-35 24-12 48-41 71-88 24-46 48-102 71-167 24-65 46-136 68-210 22-75 42-146 61-214s35-128 49-179c14-52 26-87 36-107zm688 371c12-32 22-47 30-46 9 2 9 19 0 54-9 37-23 78-42 122s-43 84-71 119-61 63-100 83-83 25-132 16c-45-8-84-29-111-58-29-30-50-67-63-110s-19-90-19-143c1-52 7-105 19-158 13-54 31-105 54-155s50-94 81-134c31-39 65-71 102-96 37-24 78-37 120-38 32-1 61 6 86 21 24 14 44 35 58 60 14 26 23 57 25 93 3 35 0 73-10 114-17 69-41 123-69 163-29 41-59 72-90 92-32 21-61 33-90 37-28 3-52 2-69-3 0 33 3 61 10 83 7 23 24 38 49 48 21 8 42 10 64 3 22-6 44-17 65-33s41-35 59-58c17-23 33-48 44-76zm-166-340c-7-1-17 7-29 24-11 17-22 40-35 68s-22 60-32 95c-10 36-19 71-22 106 30-18 54-42 74-75 19-32 32-64 42-96 11-32 14-60 14-85 0-24-3-37-12-37zm371-308c5-15 9-29 13-43 4-13 7-27 10-41 5-20 14-38 24-54s22-24 37-26c14-2 27 5 42 22 16 17 33 49 48 95 2 7 3 14 5 22 45-10 81-20 106-28 26-8 44-8 56 1 10 8 15 19 12 34-2 15-8 30-20 45s-26 28-46 40c-19 11-39 18-63 19-18 0-37 1-55 1-9 38-19 80-34 127s-32 98-49 153c-17 54-35 113-53 174-17 62-33 127-47 195-6 28-6 47 0 60 6 12 14 18 22 18 8-1 19-6 29-18 9-11 18-27 25-44 8-18 16-37 24-57 7-20 12-38 17-56 9-32 18-48 27-46 10 2 11 20 3 54-4 17-9 44-18 81-10 38-23 74-39 112-16 37-35 71-61 99-27 29-58 44-97 45-27 1-52-5-77-17-26-12-45-33-56-63-16-38-19-89-10-152 8-62 23-131 44-204 20-74 44-151 72-231 29-80 56-157 81-231-10-1-18-1-25-1h-24c-22 1-35-3-40-11-5-9-3-18 5-29 7-11 18-21 35-30s36-14 56-14c7-1 14-1 21-1zm476 81c48-2 85 10 114 35s48 58 61 98c12 41 19 88 18 142-1 53-9 108-22 164-12 56-29 111-52 166-23 53-49 101-80 143-30 43-64 77-99 104-37 26-75 40-115 41-49 1-88-11-119-35-30-25-52-57-66-99-13-41-20-88-18-141 1-53 9-108 22-165 12-56 32-111 55-165 24-54 53-102 83-144 31-42 64-77 102-103 38-27 78-40 116-41zm-164 689c9-1 18-13 31-37s26-54 39-90c12-36 24-75 35-117 12-41 23-80 31-116 7-36 12-66 13-90 2-23-1-35-8-35-9 0-21 12-32 36-12 25-24 55-36 91s-23 75-34 116c-11 42-19 81-27 116-7 37-12 66-15 90-2 24-2 36 3 36zm1086-715c37-1 65 11 83 36 20-66 33-123 42-174 10-51 10-88 0-113-7-19-1-34 12-44 14-11 32-14 54-9 24 4 46 18 68 39 23 23 40 56 49 101 4 20 4 48-2 84s-15 77-27 122c-11 46-26 94-42 147-16 51-31 104-47 156-16 53-32 105-46 155-13 51-26 98-34 140-5 27-5 47 0 59s12 19 21 18c11 0 20-5 30-18 9-11 17-26 25-44 9-17 17-36 24-56s12-39 17-56c10-33 19-49 29-47s9 20 1 55c-4 17-9 44-18 81s-21 74-37 111c-17 38-38 71-63 100s-58 44-95 45c-34 1-59-8-76-24-18-16-32-35-40-56-14 26-33 47-58 63-24 15-49 23-74 24-56 1-97-20-122-63-26-42-39-97-41-163-1-66 6-138 26-215 19-77 45-149 79-216s73-123 119-168c45-45 93-68 143-70zm-157 691c8 2 17-8 29-31s24-53 37-88c13-36 27-74 39-116 12-41 21-80 29-117 7-36 13-67 15-93 2-25-2-39-9-41-6-2-17 8-28 30-12 23-25 51-38 87-12 36-24 75-37 117s-23 81-30 118c-7 36-13 67-15 93-3 25 1 39 8 41zm891-162c13-31 22-47 31-46 8 2 9 20 0 54-10 38-24 78-43 123-18 44-41 84-69 119s-62 62-101 82-83 26-132 17c-46-9-83-29-112-58-29-30-50-67-62-110-13-44-20-91-19-143s6-105 19-159c12-53 31-105 54-155 22-49 49-94 81-134 31-39 64-71 101-95 38-24 78-37 120-38 33-1 62 5 87 20 24 15 43 36 57 61 15 26 23 56 26 92 2 35-1 74-11 115-17 68-40 123-69 163s-59 71-90 92-61 32-89 36c-29 3-53 3-70-2 0 32 3 61 11 83 7 22 23 38 49 47 20 9 42 10 64 4s44-18 64-33c22-17 41-35 59-59 18-23 33-48 44-76zm-165-340c-7-1-18 7-29 25-11 16-21 40-34 68s-24 59-34 95c-10 35-18 71-22 106 31-18 56-43 75-75 18-33 32-65 42-97s15-60 15-84-5-37-13-38zm729-473c-8-19-2-34 11-44 14-10 32-13 54-8 24 4 46 18 68 39 23 23 40 56 49 101 6 27 3 66-8 118s-26 110-44 174c-19 64-40 131-63 201s-40 137-57 200c-17 62-29 119-36 169s-3 87 9 110c11 23 10 42-4 56-13 14-32 22-57 24-24 2-49-4-76-17s-48-34-61-63c-15-32-20-78-12-136 8-59 22-123 40-193 19-70 42-143 66-219 25-75 49-146 70-215 21-67 36-128 47-181s13-92 4-116zm707 779c7-34 16-49 28-47 10 2 10 20 4 54-4 17-11 44-21 82-9 36-21 74-37 111-16 38-39 70-64 99-26 29-58 44-95 45-27 1-52-5-76-17-25-12-42-33-56-62-8-18-12-40-13-67s1-56 5-89 9-69 18-106c10-38 20-77 31-116 8-29 17-57 24-84 6-28 14-52 18-73s7-38 7-50c0-13-4-19-10-19-12 1-26 15-41 44-14 28-30 63-42 103-13 42-25 85-39 130-14 44-25 87-36 128-10 42-17 80-20 116-2 35 5 65 17 90 11 23 8 43-5 56-14 14-34 22-58 24-25 2-50-4-76-17s-47-33-61-62c-15-33-20-71-18-114s10-88 22-136c12-47 26-95 44-144 17-49 31-97 45-142 15-45 26-86 33-124 6-37 5-68-4-93-6-19-3-33 12-44 14-9 32-12 54-8 22 5 45 17 68 40 22 21 39 55 47 101 22-44 49-81 80-110 30-29 64-44 99-45 55-1 89 22 105 71 17 49 10 125-17 227-5 22-13 49-22 82-8 32-18 65-27 99-8 34-16 65-23 95-8 29-12 52-16 68-6 28-6 47-1 60 5 12 12 18 22 18s19-6 29-18c9-11 17-26 27-44 9-17 15-37 22-57 6-20 13-38 17-55zm128 336c-27 1-54-5-79-17-26-12-45-33-55-63-7-22-11-51-11-85-1-35 0-72 6-111 6-41 14-82 24-125s21-85 32-125 22-78 34-113c12-36 22-65 32-89 14-36 34-62 63-80 27-18 52-28 79-30 26-1 46 4 61 18 15 13 20 33 12 60-11 37-24 77-37 120-14 44-27 88-39 134-12 45-25 90-36 135-11 44-18 86-23 123-5 28-4 47 3 59 7 13 14 19 24 19 8-1 19-6 28-18s17-27 26-44c8-18 15-37 22-57s13-39 17-56 10-29 15-37c5-7 10-10 13-10 6 2 8 7 9 16s-2 22-5 39c-4 17-10 44-19 81s-22 74-39 112c-16 37-36 70-62 99-26 28-58 44-95 45zm293-1008c0 33-12 63-36 87-24 25-52 37-86 38s-63-10-86-33c-24-23-36-52-36-86 0-33 12-61 36-86 23-24 52-37 86-38s63 10 86 33c24 24 36 52 36 85zm88 998c-63-10-109-40-141-87-31-47-50-104-56-170-5-65 0-135 17-208 17-74 42-142 75-205 33-64 73-116 120-157 47-42 100-63 155-65 34-1 63 6 87 19 25 14 44 32 57 55 14 22 23 49 27 80 4 30 1 61-7 93-9 42-22 76-40 102-18 25-36 45-56 59s-39 22-59 25c-19 3-36 3-51-1-13-3-23-10-30-19s-5-19 3-30c34-49 52-90 56-124s-2-53-19-56c-10-1-19 10-34 32-14 22-27 50-40 84-14 34-25 73-34 114-9 42-15 81-17 118-2 38 4 71 14 100 10 30 29 48 55 57 23 7 44 8 68 1 22-6 44-17 64-32 21-15 41-35 58-58s30-48 40-76c13-32 26-47 34-45 9 1 8 18-1 53-10 37-22 78-41 122-19 43-42 83-69 117-29 35-61 62-100 83-39 20-85 27-135 19zm441-12c-27 0-54-5-79-18-26-12-44-33-55-62-8-22-12-51-13-85-1-35 3-72 8-112s15-81 24-124c9-44 19-86 30-125 11-41 23-78 34-113 11-36 24-65 34-90 14-35 34-62 61-80 27-17 54-27 79-29 26-2 48 4 63 17s19 34 10 61c-11 37-24 76-37 120-13 43-25 88-37 133-13 46-26 91-36 136-10 44-19 85-25 123-4 27-3 47 3 59 7 12 16 18 24 18 10 0 19-6 29-18 10-11 18-26 27-44 8-18 15-36 22-56s12-39 17-56 10-29 15-37c5-7 8-11 13-10 4 1 6 6 7 15 1 10-1 22-5 40-4 17-9 44-18 81-10 37-22 74-38 111-16 38-37 71-62 100-26 29-58 44-95 45zm293-1009c0 34-12 64-36 88-25 25-52 37-86 38s-63-10-88-34c-24-22-36-51-36-85 0-33 12-62 36-86 25-25 54-37 88-38s61 9 86 33c24 23 36 51 36 84zm537 172c-11 20-21 45-33 75-12 31-24 64-36 101-12 36-22 74-34 113-12 38-22 76-32 112s-18 69-25 99-15 54-19 73c-6 26-6 45-3 58 2 12 7 19 12 20 10-2 19-8 28-20 9-11 17-26 26-43 8-17 16-36 22-56s12-38 17-56c9-32 17-49 28-46 11 2 12 20 4 54-4 17-10 44-19 81-8 37-22 74-39 112-16 37-37 70-62 99-26 29-58 44-95 45-22 1-43-5-63-19-18-14-32-35-38-63-14 28-33 49-58 65-24 15-49 23-73 24-56 1-96-20-121-63-26-42-39-97-41-163s6-138 25-215c20-77 46-149 80-216s73-123 118-168c46-45 93-68 144-70 29 0 53 6 69 20 16 13 27 32 32 56 21-18 44-32 70-42 25-10 49-16 69-18s36 1 47 10c11 7 11 22 0 41zm-446 624c8 2 17-8 29-31s24-53 37-88c13-36 26-74 39-116s23-80 30-117c8-37 14-67 15-93 2-25 0-39-8-41-7-2-17 8-29 30-12 23-26 51-39 87-12 35-25 75-37 117s-21 81-29 118c-7 36-14 67-16 93-3 25 1 39 8 41zm573-795c5-15 10-29 14-43 3-14 8-27 12-41 5-21 13-39 23-54 11-16 22-25 36-27 13-2 29 6 44 23s31 48 47 94c3 8 4 15 5 22 46-10 81-19 105-27 25-8 44-8 58 1 10 7 13 19 12 34-2 14-10 30-21 44-11 16-27 29-45 41-19 11-41 18-63 18-19 1-37 1-56 2-8 37-21 80-35 127-15 46-30 97-48 152s-36 113-54 175c-18 61-34 126-47 195-5 27-6 47 0 59 6 13 13 18 22 18 10 0 18-6 29-18 10-11 18-26 27-44 8-17 15-36 22-56 6-20 11-39 16-56 11-33 19-49 29-47 10 3 10 20 2 55-4 17-9 44-19 81-9 37-22 74-37 112-15 37-37 70-62 99-26 29-58 44-95 45-27 1-54-5-80-17-25-13-42-34-54-63-15-39-20-90-12-152 9-63 24-131 44-205 21-73 46-150 75-230s54-157 79-232c-8 0-17-1-25-1-9 1-15 1-22 1-24 1-37-4-41-12s-4-18 4-29 20-21 35-30c17-9 36-13 56-14h20zm232 975c-27 1-54-5-79-17-26-12-44-33-55-62-8-23-11-51-11-86-1-34 1-71 6-111s15-81 24-125c9-43 19-85 30-125s25-77 36-113c11-35 23-65 32-89 14-35 34-62 61-80 28-18 54-27 80-29 27-2 47 4 62 17s18 33 10 61c-10 36-23 76-35 120-13 43-27 88-39 133-13 46-25 91-36 135-11 45-19 86-25 123-4 28-4 48 3 60 8 12 16 18 26 18 8 0 18-7 27-18 9-12 18-26 27-44 8-18 15-37 22-57s13-38 17-55c4-18 10-30 15-37 5-8 10-11 13-10 4 1 8 6 9 15s-3 22-7 39-9 44-18 82c-10 36-21 73-38 111-16 37-37 70-62 99-26 29-58 44-95 45zm293-1008c0 34-12 63-36 87-24 25-52 37-86 38s-62-10-86-33c-25-23-38-52-38-86 0-32 13-61 38-86 24-23 52-37 86-38 34 0 62 11 86 34s36 51 36 84zm40 170c12-26 31-44 56-53s49-12 73-8c23 4 44 12 59 26 14 14 19 32 10 52-34 78-63 152-86 223-23 72-42 136-56 192-13 56-19 101-22 136-2 34 0 53 10 56 11 4 23-8 36-37 12-29 27-72 44-127s38-122 62-199c25-77 52-162 87-254 12-35 33-57 64-69 29-10 57-14 84-10 27 5 48 15 63 31 14 16 14 33-2 50-15 17-28 48-42 94s-29 100-44 160c-15 61-35 124-56 190s-47 128-76 184c-30 57-66 102-108 140-41 36-90 56-146 57-52 2-90-13-116-41-27-29-44-67-51-114s-5-101 3-161c9-61 21-122 38-184 16-62 34-123 55-181 22-58 42-109 61-153zm1061-13c-10 19-22 44-34 75-12 30-24 63-36 100-11 36-22 74-33 113-12 39-22 76-33 112-10 36-18 69-25 99-7 31-14 54-19 73-5 26-6 46-3 58s7 19 12 20c10-1 19-8 29-19 9-12 17-27 25-44s16-36 22-55c6-21 12-39 17-56 9-33 17-49 29-47 10 2 11 20 3 55-4 16-10 44-19 81-8 37-22 73-38 111-16 37-38 71-63 100-25 28-58 44-95 45-22 0-42-6-62-20-19-13-32-34-39-62-14 27-33 48-58 64-24 15-49 23-72 24-56 1-97-19-122-62-26-43-39-98-41-164s6-138 26-215c19-77 45-149 79-216s73-123 118-168c46-45 93-68 144-69 29-1 53 5 70 19 15 14 27 33 32 56 20-17 44-31 69-41 25-11 49-17 69-19 21-1 38 2 48 10s10 22 0 42zm-445 623c7 2 15-8 27-31s25-52 37-88c13-35 26-74 39-115 13-42 23-81 30-118 8-36 14-67 16-93 1-25 0-39-9-41-7-2-17 8-28 31-12 22-25 51-38 87-12 35-27 74-39 116-11 42-21 82-28 118-8 37-15 68-17 93-3 26 1 39 10 41zm917-898c-7-18-4-33 11-44 39-27 75-45 109-56 33-11 66-17 94-18 53-1 94 9 127 32 33 22 58 52 75 89 17 36 25 79 27 126 1 48-4 97-16 147-11 50-28 99-52 146-24 48-52 91-86 129-34 37-71 67-114 89-42 22-87 33-137 32-20 72-35 137-45 196-10 58-8 101 7 130 12 23 9 41-5 56-14 13-34 22-58 23-25 2-51-3-78-16-25-13-47-34-61-63-15-32-18-76-12-131 7-56 20-116 38-182 17-65 39-133 62-203 24-71 46-138 66-201s36-120 46-169c10-50 10-87 2-112zm96 482c19-1 35-12 52-34 18-22 34-49 48-80 13-32 24-66 34-102 9-37 15-70 15-99 0-30-5-53-15-70-12-18-29-23-53-17 2 3 2 4 2 5 0 2 0 3 2 4 3 18 3 40 0 68-4 27-9 58-17 92-9 34-19 71-31 111s-23 81-37 122zm624-314c46-2 85 10 113 35 28 24 49 57 61 98s19 88 17 142c-1 53-8 108-20 164-12 57-30 112-53 166-22 54-50 102-79 143-30 43-65 77-101 104-36 26-75 40-114 41-49 1-90-10-120-35s-52-57-66-99c-13-40-18-88-17-141 2-53 9-108 22-164 14-57 32-112 56-166s51-102 81-144c31-42 66-77 103-103 38-26 76-40 117-41zm-164 689c7 0 18-12 30-37 13-24 25-54 38-90 12-36 25-75 37-117 12-41 22-80 29-116 6-36 11-66 13-89 2-24 0-36-7-36-10 0-20 13-32 36-12 25-23 55-35 91s-25 74-36 116-19 80-27 116c-7 36-12 66-15 90s-2 36 5 36zm565 188c-36 1-63-8-81-27-15 59-26 111-31 156s-1 79 10 102c13 23 11 42-3 56-13 14-34 22-57 24-26 1-51-4-78-17-26-13-47-33-61-63-15-32-18-78-10-136 7-59 20-124 39-194 18-70 40-143 66-219 25-76 48-148 69-215 21-68 37-128 49-181 12-52 12-91 3-116-5-16-4-29 5-38 10-11 24-15 41-15s37 6 58 17c20 12 37 31 52 57 15-26 34-47 57-62 26-15 50-22 75-23 56-1 96 19 122 62 25 43 40 98 42 164s-8 138-27 215c-20 77-46 149-80 216-33 67-72 123-118 168s-93 68-142 69zm156-689c-7-2-17 8-29 31-12 22-25 52-37 87-13 35-28 74-39 116-12 42-22 82-29 118-8 37-13 67-15 92-3 25 0 39 6 41 7 2 17-8 29-31 12-22 26-51 39-86 13-36 25-75 37-116 13-42 24-81 31-117 6-37 12-68 15-93 3-26-2-40-8-42zm608 668c-27 1-54-5-79-17s-42-33-53-62c-1-4-4-7-5-12 0-4-1-9-1-14-14 30-31 56-54 78s-51 34-83 35c-27 1-53-5-78-18-24-12-42-33-54-62-12-28-18-62-15-104 2-41 11-86 22-134 10-47 23-98 38-149 17-51 33-100 48-147 14-47 26-90 35-128 10-39 14-71 12-96-1-20 7-35 27-45 19-9 41-13 66-9 24 3 46 14 66 32s31 45 31 80c0 32-5 65-14 100-9 36-21 75-34 118-12 42-27 90-42 141s-28 109-41 173c-5 27-7 47-1 59 6 13 13 19 22 18 10 0 17-5 23-15 7-11 11-24 16-40 4-16 8-33 11-52 4-19 8-37 12-54 10-43 19-88 31-134 12-45 23-89 37-130 13-42 27-80 40-115 14-34 26-62 36-84 17-34 41-60 69-76 29-17 56-25 82-26 27-1 46 5 60 19s15 34 2 60c-16 35-32 77-49 126s-33 100-49 152-31 102-44 153c-13 50-20 94-27 131-5 28-5 47 2 60 6 12 15 18 23 18 11 0 21-6 31-18 9-11 17-26 25-44 9-18 17-37 24-57s12-38 17-55c9-33 17-49 27-47s11 20 3 54c-4 17-9 44-18 82-10 36-23 73-39 111-16 37-37 70-63 99-25 29-57 44-95 45zm305-8c-27 1-53-5-78-17-24-12-42-33-54-61-15-33-20-78-12-136 8-59 22-123 41-194 18-71 41-144 66-220 24-75 48-146 69-214 21-67 36-127 47-180 11-54 13-92 4-117-8-18-2-34 12-44 13-11 32-14 54-9 23 4 45 18 67 39 24 23 40 56 49 101 5 20 5 49-1 84-6 36-16 77-27 122-12 46-27 95-43 147s-31 104-47 157c-16 52-32 104-46 155-13 50-25 97-33 139-6 27-6 47 0 59 5 13 11 19 20 19 12-1 21-6 30-18 9-11 17-27 26-44 8-18 17-37 23-57 7-20 12-39 17-56 10-33 19-48 29-46s10 20 2 54c-4 17-10 44-19 81s-22 74-37 112c-15 37-37 70-63 99s-59 44-96 45zm832-836c-10 19-22 44-34 75-12 30-24 64-35 100-12 37-22 74-34 113s-22 76-32 112c-11 36-19 69-26 99-6 31-14 55-18 73-6 26-7 46-4 58 4 12 7 19 12 20 10-2 19-7 29-20 9-11 17-25 25-43 9-17 16-36 22-55 6-21 13-39 17-56 9-33 17-49 29-47 10 2 11 20 3 54-4 17-10 45-18 82-9 37-23 74-39 111s-37 70-63 99c-25 29-57 45-94 46-22 0-43-6-63-20-19-13-32-35-39-62-13 27-32 48-57 64-24 15-50 23-73 24-56 2-97-19-122-62s-39-98-41-164c-1-66 6-138 26-215 19-77 45-149 79-216s73-123 119-168c45-45 93-68 143-69 29-1 53 5 70 19 15 14 27 32 32 56 20-17 44-31 69-42 26-10 49-16 70-18 20-1 37 2 47 10s10 22 0 42zm-445 623c7 2 15-8 27-31s25-52 37-88c13-35 27-74 39-115 13-42 23-81 31-117 7-37 13-68 15-93 2-26 0-40-7-42-8-2-18 8-30 31-12 22-25 51-37 87-13 35-28 74-39 116-12 42-22 82-29 118-8 37-14 67-17 93-2 26 2 39 10 41zm974-473c9-34 19-50 29-48s10 20 2 54c-3 11-6 28-12 50s-13 46-22 72-20 53-32 79c-12 28-27 52-42 72-17 21-36 38-56 50-21 12-43 18-66 15-32-4-54-16-66-36s-18-44-19-72c-1-27 2-57 9-88 6-31 11-60 18-86 8-27 12-49 14-66 2-16-2-25-12-25-8 1-20 14-34 39s-29 56-40 93c-13 42-25 86-39 131-15 46-29 91-39 134s-18 84-21 121c-2 38 2 69 14 93s11 43-3 56c-15 15-34 22-60 24-23 2-49-4-76-17-27-12-47-33-61-62-15-33-20-71-18-114s10-88 22-135c12-48 27-96 44-145s33-97 47-142c15-45 26-86 32-124 7-37 5-68-3-93-7-19-4-34 10-44 15-10 34-12 56-8 22 5 44 17 68 40 22 22 38 55 47 101 22-44 48-80 79-110 31-28 63-44 98-45 34-1 57 9 70 29 12 19 18 45 18 74 0 30-3 63-11 99-9 36-17 69-26 99-8 30-14 56-18 76-5 20-4 30 5 30 10-1 19-6 28-18 9-11 17-26 26-42 9-18 17-36 23-56 7-20 13-39 17-55zm452-439c-9-23-1-37 19-48 38-21 71-40 104-52 33-11 63-17 92-18 111-3 185 47 216 149 16 51 19 114 15 188-3 73-18 158-44 255-28 109-61 202-93 279-31 77-64 139-101 188-36 48-74 84-117 106-42 22-88 34-138 35-2-1-4-3-5-5-4 0-7 1-9 1-64 1-108-25-134-80-15-33-19-76-13-131 6-56 19-116 35-182 17-65 38-133 63-203 24-70 46-137 64-201 19-63 34-120 44-169 10-50 12-87 2-112zm7 824c-3 16 0 26 3 30 4 4 9 6 17 5 0 0 0 1 2 0 8-2 20-15 34-39 13-23 27-54 44-91 15-37 29-80 45-126 16-47 33-94 48-142 18-61 33-117 44-167 10-51 16-93 15-128s-9-60-21-76c-11-16-32-20-59-11 0 3 3 6 4 10 4 20 4 48-2 82-6 35-15 74-25 117-11 43-24 88-39 136-16 48-30 95-44 144-15 47-27 93-39 137s-21 84-27 119zm539 237c-27 1-54-5-79-17-26-13-44-34-54-63-8-22-11-51-12-85-1-35 2-72 7-111 5-40 13-82 23-125 10-44 21-85 32-125s23-77 34-113c11-35 23-65 32-89 14-36 34-63 61-80 29-18 54-28 80-30 27-1 47 4 62 18 15 13 18 33 10 60-10 37-22 77-35 120-13 44-26 88-39 134s-24 90-35 135c-11 44-18 86-24 123-4 27-5 47 3 59s14 19 24 18c8 0 18-6 27-17 10-12 19-27 27-44 9-18 15-37 22-57s13-39 17-56 10-29 15-37c5-7 10-10 14-9 3 1 7 6 8 15s-2 22-5 39-11 44-20 81-21 74-37 112c-16 36-38 70-63 99s-58 44-95 45zm293-1009c0 34-12 64-36 88-23 24-52 37-86 38s-62-10-86-33c-25-24-37-52-37-86 0-33 12-61 37-86 24-24 52-37 86-38s63 10 86 33c24 24 36 51 36 84zm489 656c-16 57-33 107-53 151-19 42-39 79-59 110s-41 56-61 76c-20 21-39 37-54 49-20 46-41 86-63 122-20 35-45 65-71 87s-55 37-86 45c-32 7-66 5-103-6-44-13-72-36-88-68-16-33-22-68-17-105s19-72 41-106c22-33 49-57 83-72-31-25-53-63-63-113s-12-106-5-167 21-125 42-190 48-124 80-177c32-54 67-98 108-133 41-34 81-52 127-53 29-1 52 5 69 19s27 33 32 56c22-17 44-32 70-42 27-10 49-16 69-17 22-2 37 1 47 9s11 23 0 42c-16 29-33 69-50 123-18 53-33 108-49 166-17 58-33 112-46 164-14 52-23 92-31 119-7 27-15 52-22 75-6 24-13 48-22 72 28-23 53-54 78-93 26-38 48-89 66-150 10-33 21-49 31-47s9 20 0 54zm-398 140c7 2 15-8 27-31s25-52 37-87c13-36 25-75 38-116 12-42 24-81 32-117 7-37 12-68 13-94 2-25 0-39-6-41-9-2-20 8-31 31-11 22-23 51-35 86-13 36-27 75-39 117s-23 81-31 118c-7 36-11 68-13 93-3 26 0 39 8 41zm-159 387c14 3 29-1 41-10 13-11 26-25 37-44s20-41 30-68c11-26 22-54 33-82-27-11-51-13-71-8-22 5-41 14-56 28-16 14-27 31-36 51-8 20-13 40-15 59-2 18-1 35 5 49s17 22 32 25zm619-197c-27 1-54-5-79-17-26-12-44-33-54-63-9-22-13-50-14-85-1-34 3-72 9-111 5-40 14-82 23-125 10-43 20-85 31-125s24-77 35-113c11-35 23-65 32-89 14-36 34-62 61-80s54-28 80-29c25-2 47 3 62 17 15 13 19 33 10 60-11 37-24 77-37 121-12 42-24 87-37 133s-25 91-36 135c-10 45-19 85-25 123-4 27-3 47 4 59 6 13 15 19 23 19 10-1 19-7 29-18 10-12 19-27 27-44 8-18 15-37 22-57s12-39 17-56 10-29 15-37c5-7 9-11 14-10 3 1 6 7 6 16 1 9 0 22-5 39-4 17-9 44-18 81s-22 74-37 112c-16 37-38 70-63 99s-58 44-95 45zm293-1009c0 34-12 64-36 88-25 25-52 37-86 38s-63-10-88-33c-24-23-35-52-35-86 0-33 11-62 35-86 25-25 54-37 88-38s61 10 86 33c24 23 36 52 36 84zm96 17c4-15 9-29 12-43s9-28 12-41c5-21 13-39 24-54 10-16 22-25 35-27 14-2 29 5 44 22 15 18 31 49 47 95 3 7 4 15 6 22 45-10 81-19 106-27 24-8 43-9 56 1 10 7 13 19 12 34-2 14-9 29-21 44-11 15-27 29-45 40-19 12-39 19-63 19-18 1-37 1-56 2-8 37-21 79-35 126s-30 98-48 153c-17 55-36 113-54 174-17 62-32 127-47 196-6 27-6 47 0 59 6 13 14 19 24 18 8 0 18-6 27-18s18-26 27-44c8-17 15-36 22-56s12-39 17-56c9-34 18-49 28-47 11 2 10 20 2 55-4 17-9 44-18 81-10 37-21 74-38 111-16 37-37 71-62 100s-58 44-95 45c-27 1-54-5-79-18-24-12-43-33-55-62-15-39-21-90-11-152 9-63 23-131 44-205 20-73 45-150 74-230s56-158 79-232c-8-1-16-1-25-1-8 0-15 1-22 1-22 0-36-4-40-12-5-9-4-18 3-29 8-11 20-20 37-30 15-8 34-13 54-14h22zm750 147c-11 20-22 45-34 75-12 31-24 64-36 101-12 36-22 74-34 112-12 39-22 76-32 113-9 36-18 69-25 99s-15 54-19 73c-6 26-6 45-3 57 3 13 7 19 13 21 9-2 18-8 27-20 9-11 17-26 26-43 8-17 18-36 23-56 6-20 11-38 16-55 9-33 17-49 28-47s12 20 4 54c-4 17-10 44-19 81-8 37-22 74-39 112-16 37-37 70-62 99-26 29-58 44-95 45-22 1-43-5-63-19-18-14-32-35-38-63-14 28-33 49-58 64-24 15-49 24-73 25-55 1-96-20-121-63-26-42-39-97-41-163s6-138 25-215c20-77 47-149 80-216 33-68 74-124 118-168 46-46 93-68 144-70 29 0 53 6 69 20 16 13 27 32 32 56 22-18 44-32 70-42 27-11 49-16 69-18 22-2 37 2 48 10 10 8 10 22 0 41zm-445 624c6 2 15-8 27-31s26-52 39-88c12-35 24-74 37-116s24-80 32-117c8-36 12-67 14-93 1-25 0-39-7-41-9-3-19 8-31 30-12 23-24 52-37 87-13 36-27 74-39 117-12 42-21 81-29 118-7 36-12 67-15 93-2 25 0 39 9 41zm487 189c-27 1-53-5-78-17-24-12-42-33-54-61-15-33-20-78-12-136 8-59 22-124 41-194 18-71 40-144 66-220 25-75 48-146 69-214 21-67 38-127 49-180s12-92 3-117c-6-19-3-34 10-44 15-11 33-14 56-10 22 5 44 19 66 40 24 23 39 56 49 101 5 20 5 48-1 84s-16 77-27 122c-12 46-27 95-43 147-16 51-32 104-47 156-15 53-31 104-46 155-14 51-25 98-34 140-5 27-5 47 0 59 5 13 12 19 22 19 11-1 20-6 29-18s16-27 26-44c9-19 16-37 23-57s13-39 17-56c9-33 19-49 29-47s9 21 2 55c-4 17-10 44-19 81s-21 74-37 112c-16 36-37 70-63 99s-59 44-96 45z" fill="#fefefe" fill-rule="nonzero"/><path id="1" d="M385 908c-7-18-4-33 12-44 38-27 76-45 108-56 34-11 66-17 97-18 50-1 93 9 125 32 32 22 57 51 74 89 17 36 27 79 27 126 1 48-3 96-15 147-12 50-29 99-52 146-24 48-51 91-85 128-34 38-73 68-115 90s-88 33-137 32c-20 72-35 137-45 195-11 59-9 102 6 130 13 23 11 43-3 57-15 14-34 21-59 23-24 2-49-4-76-17s-48-33-61-62c-15-33-20-77-14-132s19-115 37-181c19-66 39-134 63-204 25-70 47-137 66-200 19-64 35-120 46-170 10-49 11-86 1-111zm98 482c17-1 35-12 53-34 17-22 33-49 47-80 14-32 25-66 34-102 9-37 13-70 14-99 0-30-4-53-16-71-10-16-27-22-52-16 2 2 2 4 2 5s1 2 1 4c4 18 4 40 0 68-3 27-9 57-17 92-7 34-17 71-28 111-12 40-26 81-38 122zm856-82c9-34 19-50 27-48 10 2 11 20 4 54-3 11-6 28-12 50s-13 47-22 72c-10 27-21 53-34 80s-26 50-42 72c-16 20-34 37-54 49-21 13-43 18-68 15-32-3-54-16-66-36s-18-44-19-71c-1-28 3-58 9-89s13-59 20-86 12-48 14-65c1-17-4-26-12-25-9 0-21 13-36 38-14 25-29 56-40 93-13 41-24 86-39 132-15 45-28 90-39 133-11 44-18 84-20 122-3 37 2 68 15 92 12 24 10 42-5 57-14 13-34 22-58 23-25 2-51-3-78-16-25-13-47-34-60-63-15-32-22-70-19-113 2-44 11-89 24-136 12-47 27-96 44-145s32-96 47-141c14-45 24-87 30-124 7-38 7-69-3-94-7-19-3-33 12-43 14-10 32-13 54-8 22 4 45 18 68 39 23 23 39 56 49 101 20-44 47-80 77-109 31-29 65-44 100-45 32-1 55 9 68 28 13 21 19 45 19 75s-5 62-12 98c-8 36-16 69-24 99s-15 56-20 76-4 30 5 30c10 0 20-6 29-17 9-12 18-26 27-43 8-17 16-36 23-56 7-19 13-38 17-55zm281-247c46-1 84 11 112 35 28 26 49 58 62 99s19 88 17 141c-2 54-8 109-20 165-13 57-31 111-54 165s-50 102-80 144c-29 42-63 76-100 103-35 26-74 41-115 42-49 1-88-11-118-35-30-25-52-58-66-99s-19-88-17-141c2-54 9-108 22-165 13-56 31-111 56-165 24-54 51-102 81-144 31-42 66-77 103-103 37-27 76-40 117-42zm-164 690c7-1 17-13 30-37s26-54 38-90c11-36 25-75 37-117 12-41 22-80 28-116 7-36 12-66 14-90 2-23 0-35-8-35-9 0-19 12-31 36s-23 55-35 91c-13 36-25 74-36 116-11 41-20 80-27 116s-12 66-15 90c-4 24-2 36 5 36zm786-819c0 34-11 64-35 88s-53 37-86 38c-34 1-63-10-88-33s-36-52-36-86c0-33 12-62 36-86 25-25 54-37 88-38 33-1 62 10 86 33s35 52 35 84zm-307 280c15-34 37-60 65-78 28-17 55-27 78-29 26-2 46 4 61 16 15 13 16 33 7 60-11 31-23 74-37 128-15 54-31 113-49 179-18 64-36 132-56 202-20 69-41 135-63 199-21 63-42 120-66 170-23 50-47 88-71 113-32 35-64 57-98 65s-64 10-88 4c-25-5-43-15-52-29-9-13-4-26 13-35 24-12 48-41 71-88 24-46 48-102 71-167 24-65 46-136 68-210 22-75 42-146 61-214s35-128 49-179c14-52 26-87 36-107zm688 371c12-32 22-47 30-46 9 2 9 19 0 54-9 37-23 78-42 122s-43 84-71 119-61 63-100 83-83 25-132 16c-45-8-84-29-111-58-29-30-50-67-63-110s-19-90-19-143c1-52 7-105 19-158 13-54 31-105 54-155s50-94 81-134c31-39 65-71 102-96 37-24 78-37 120-38 32-1 61 6 86 21 24 14 44 35 58 60 14 26 23 57 25 93 3 35 0 73-10 114-17 69-41 123-69 163-29 41-59 72-90 92-32 21-61 33-90 37-28 3-52 2-69-3 0 33 3 61 10 83 7 23 24 38 49 48 21 8 42 10 64 3 22-6 44-17 65-33s41-35 59-58c17-23 33-48 44-76zm-166-340c-7-1-17 7-29 24-11 17-22 40-35 68s-22 60-32 95c-10 36-19 71-22 106 30-18 54-42 74-75 19-32 32-64 42-96 11-32 14-60 14-85 0-24-3-37-12-37zm371-308c5-15 9-29 13-43 4-13 7-27 10-41 5-20 14-38 24-54s22-24 37-26c14-2 27 5 42 22 16 17 33 49 48 95 2 7 3 14 5 22 45-10 81-20 106-28 26-8 44-8 56 1 10 8 15 19 12 34-2 15-8 30-20 45s-26 28-46 40c-19 11-39 18-63 19-18 0-37 1-55 1-9 38-19 80-34 127s-32 98-49 153c-17 54-35 113-53 174-17 62-33 127-47 195-6 28-6 47 0 60 6 12 14 18 22 18 8-1 19-6 29-18 9-11 18-27 25-44 8-18 16-37 24-57 7-20 12-38 17-56 9-32 18-48 27-46 10 2 11 20 3 54-4 17-9 44-18 81-10 38-23 74-39 112-16 37-35 71-61 99-27 29-58 44-97 45-27 1-52-5-77-17-26-12-45-33-56-63-16-38-19-89-10-152 8-62 23-131 44-204 20-74 44-151 72-231 29-80 56-157 81-231-10-1-18-1-25-1h-24c-22 1-35-3-40-11-5-9-3-18 5-29 7-11 18-21 35-30s36-14 56-14c7-1 14-1 21-1zm476 81c48-2 85 10 114 35s48 58 61 98c12 41 19 88 18 142-1 53-9 108-22 164-12 56-29 111-52 166-23 53-49 101-80 143-30 43-64 77-99 104-37 26-75 40-115 41-49 1-88-11-119-35-30-25-52-57-66-99-13-41-20-88-18-141 1-53 9-108 22-165 12-56 32-111 55-165 24-54 53-102 83-144 31-42 64-77 102-103 38-27 78-40 116-41zm-164 689c9-1 18-13 31-37s26-54 39-90c12-36 24-75 35-117 12-41 23-80 31-116 7-36 12-66 13-90 2-23-1-35-8-35-9 0-21 12-32 36-12 25-24 55-36 91s-23 75-34 116c-11 42-19 81-27 116-7 37-12 66-15 90-2 24-2 36 3 36zm1086-715c37-1 65 11 83 36 20-66 33-123 42-174 10-51 10-88 0-113-7-19-1-34 12-44 14-11 32-14 54-9 24 4 46 18 68 39 23 23 40 56 49 101 4 20 4 48-2 84s-15 77-27 122c-11 46-26 94-42 147-16 51-31 104-47 156-16 53-32 105-46 155-13 51-26 98-34 140-5 27-5 47 0 59s12 19 21 18c11 0 20-5 30-18 9-11 17-26 25-44 9-17 17-36 24-56s12-39 17-56c10-33 19-49 29-47s9 20 1 55c-4 17-9 44-18 81s-21 74-37 111c-17 38-38 71-63 100s-58 44-95 45c-34 1-59-8-76-24-18-16-32-35-40-56-14 26-33 47-58 63-24 15-49 23-74 24-56 1-97-20-122-63-26-42-39-97-41-163-1-66 6-138 26-215 19-77 45-149 79-216s73-123 119-168c45-45 93-68 143-70zm-157 691c8 2 17-8 29-31s24-53 37-88c13-36 27-74 39-116 12-41 21-80 29-117 7-36 13-67 15-93 2-25-2-39-9-41-6-2-17 8-28 30-12 23-25 51-38 87-12 36-24 75-37 117s-23 81-30 118c-7 36-13 67-15 93-3 25 1 39 8 41zm891-162c13-31 22-47 31-46 8 2 9 20 0 54-10 38-24 78-43 123-18 44-41 84-69 119s-62 62-101 82-83 26-132 17c-46-9-83-29-112-58-29-30-50-67-62-110-13-44-20-91-19-143s6-105 19-159c12-53 31-105 54-155 22-49 49-94 81-134 31-39 64-71 101-95 38-24 78-37 120-38 33-1 62 5 87 20 24 15 43 36 57 61 15 26 23 56 26 92 2 35-1 74-11 115-17 68-40 123-69 163s-59 71-90 92-61 32-89 36c-29 3-53 3-70-2 0 32 3 61 11 83 7 22 23 38 49 47 20 9 42 10 64 4s44-18 64-33c22-17 41-35 59-59 18-23 33-48 44-76zm-165-340c-7-1-18 7-29 25-11 16-21 40-34 68s-24 59-34 95c-10 35-18 71-22 106 31-18 56-43 75-75 18-33 32-65 42-97s15-60 15-84-5-37-13-38zm729-473c-8-19-2-34 11-44 14-10 32-13 54-8 24 4 46 18 68 39 23 23 40 56 49 101 6 27 3 66-8 118s-26 110-44 174c-19 64-40 131-63 201s-40 137-57 200c-17 62-29 119-36 169s-3 87 9 110c11 23 10 42-4 56-13 14-32 22-57 24-24 2-49-4-76-17s-48-34-61-63c-15-32-20-78-12-136 8-59 22-123 40-193 19-70 42-143 66-219 25-75 49-146 70-215 21-67 36-128 47-181s13-92 4-116zm707 779c7-34 16-49 28-47 10 2 10 20 4 54-4 17-11 44-21 82-9 36-21 74-37 111-16 38-39 70-64 99-26 29-58 44-95 45-27 1-52-5-76-17-25-12-42-33-56-62-8-18-12-40-13-67s1-56 5-89 9-69 18-106c10-38 20-77 31-116 8-29 17-57 24-84 6-28 14-52 18-73s7-38 7-50c0-13-4-19-10-19-12 1-26 15-41 44-14 28-30 63-42 103-13 42-25 85-39 130-14 44-25 87-36 128-10 42-17 80-20 116-2 35 5 65 17 90 11 23 8 43-5 56-14 14-34 22-58 24-25 2-50-4-76-17s-47-33-61-62c-15-33-20-71-18-114s10-88 22-136c12-47 26-95 44-144 17-49 31-97 45-142 15-45 26-86 33-124 6-37 5-68-4-93-6-19-3-33 12-44 14-9 32-12 54-8 22 5 45 17 68 40 22 21 39 55 47 101 22-44 49-81 80-110 30-29 64-44 99-45 55-1 89 22 105 71 17 49 10 125-17 227-5 22-13 49-22 82-8 32-18 65-27 99-8 34-16 65-23 95-8 29-12 52-16 68-6 28-6 47-1 60 5 12 12 18 22 18s19-6 29-18c9-11 17-26 27-44 9-17 15-37 22-57 6-20 13-38 17-55zm128 336c-27 1-54-5-79-17-26-12-45-33-55-63-7-22-11-51-11-85-1-35 0-72 6-111 6-41 14-82 24-125s21-85 32-125 22-78 34-113c12-36 22-65 32-89 14-36 34-62 63-80 27-18 52-28 79-30 26-1 46 4 61 18 15 13 20 33 12 60-11 37-24 77-37 120-14 44-27 88-39 134-12 45-25 90-36 135-11 44-18 86-23 123-5 28-4 47 3 59 7 13 14 19 24 19 8-1 19-6 28-18s17-27 26-44c8-18 15-37 22-57s13-39 17-56 10-29 15-37c5-7 10-10 13-10 6 2 8 7 9 16s-2 22-5 39c-4 17-10 44-19 81s-22 74-39 112c-16 37-36 70-62 99-26 28-58 44-95 45zm293-1008c0 33-12 63-36 87-24 25-52 37-86 38s-63-10-86-33c-24-23-36-52-36-86 0-33 12-61 36-86 23-24 52-37 86-38s63 10 86 33c24 24 36 52 36 85zm88 998c-63-10-109-40-141-87-31-47-50-104-56-170-5-65 0-135 17-208 17-74 42-142 75-205 33-64 73-116 120-157 47-42 100-63 155-65 34-1 63 6 87 19 25 14 44 32 57 55 14 22 23 49 27 80 4 30 1 61-7 93-9 42-22 76-40 102-18 25-36 45-56 59s-39 22-59 25c-19 3-36 3-51-1-13-3-23-10-30-19s-5-19 3-30c34-49 52-90 56-124s-2-53-19-56c-10-1-19 10-34 32-14 22-27 50-40 84-14 34-25 73-34 114-9 42-15 81-17 118-2 38 4 71 14 100 10 30 29 48 55 57 23 7 44 8 68 1 22-6 44-17 64-32 21-15 41-35 58-58s30-48 40-76c13-32 26-47 34-45 9 1 8 18-1 53-10 37-22 78-41 122-19 43-42 83-69 117-29 35-61 62-100 83-39 20-85 27-135 19zm441-12c-27 0-54-5-79-18-26-12-44-33-55-62-8-22-12-51-13-85-1-35 3-72 8-112s15-81 24-124c9-44 19-86 30-125 11-41 23-78 34-113 11-36 24-65 34-90 14-35 34-62 61-80 27-17 54-27 79-29 26-2 48 4 63 17s19 34 10 61c-11 37-24 76-37 120-13 43-25 88-37 133-13 46-26 91-36 136-10 44-19 85-25 123-4 27-3 47 3 59 7 12 16 18 24 18 10 0 19-6 29-18 10-11 18-26 27-44 8-18 15-36 22-56s12-39 17-56 10-29 15-37c5-7 8-11 13-10 4 1 6 6 7 15 1 10-1 22-5 40-4 17-9 44-18 81-10 37-22 74-38 111-16 38-37 71-62 100-26 29-58 44-95 45zm293-1009c0 34-12 64-36 88-25 25-52 37-86 38s-63-10-88-34c-24-22-36-51-36-85 0-33 12-62 36-86 25-25 54-37 88-38s61 9 86 33c24 23 36 51 36 84zm537 172c-11 20-21 45-33 75-12 31-24 64-36 101-12 36-22 74-34 113-12 38-22 76-32 112s-18 69-25 99-15 54-19 73c-6 26-6 45-3 58 2 12 7 19 12 20 10-2 19-8 28-20 9-11 17-26 26-43 8-17 16-36 22-56s12-38 17-56c9-32 17-49 28-46 11 2 12 20 4 54-4 17-10 44-19 81-8 37-22 74-39 112-16 37-37 70-62 99-26 29-58 44-95 45-22 1-43-5-63-19-18-14-32-35-38-63-14 28-33 49-58 65-24 15-49 23-73 24-56 1-96-20-121-63-26-42-39-97-41-163s6-138 25-215c20-77 46-149 80-216s73-123 118-168c46-45 93-68 144-70 29 0 53 6 69 20 16 13 27 32 32 56 21-18 44-32 70-42 25-10 49-16 69-18s36 1 47 10c11 7 11 22 0 41zm-446 624c8 2 17-8 29-31s24-53 37-88c13-36 26-74 39-116s23-80 30-117c8-37 14-67 15-93 2-25 0-39-8-41-7-2-17 8-29 30-12 23-26 51-39 87-12 35-25 75-37 117s-21 81-29 118c-7 36-14 67-16 93-3 25 1 39 8 41zm573-795c5-15 10-29 14-43 3-14 8-27 12-41 5-21 13-39 23-54 11-16 22-25 36-27 13-2 29 6 44 23s31 48 47 94c3 8 4 15 5 22 46-10 81-19 105-27 25-8 44-8 58 1 10 7 13 19 12 34-2 14-10 30-21 44-11 16-27 29-45 41-19 11-41 18-63 18-19 1-37 1-56 2-8 37-21 80-35 127-15 46-30 97-48 152s-36 113-54 175c-18 61-34 126-47 195-5 27-6 47 0 59 6 13 13 18 22 18 10 0 18-6 29-18 10-11 18-26 27-44 8-17 15-36 22-56 6-20 11-39 16-56 11-33 19-49 29-47 10 3 10 20 2 55-4 17-9 44-19 81-9 37-22 74-37 112-15 37-37 70-62 99-26 29-58 44-95 45-27 1-54-5-80-17-25-13-42-34-54-63-15-39-20-90-12-152 9-63 24-131 44-205 21-73 46-150 75-230s54-157 79-232c-8 0-17-1-25-1-9 1-15 1-22 1-24 1-37-4-41-12s-4-18 4-29 20-21 35-30c17-9 36-13 56-14h20zm232 975c-27 1-54-5-79-17-26-12-44-33-55-62-8-23-11-51-11-86-1-34 1-71 6-111s15-81 24-125c9-43 19-85 30-125s25-77 36-113c11-35 23-65 32-89 14-35 34-62 61-80 28-18 54-27 80-29 27-2 47 4 62 17s18 33 10 61c-10 36-23 76-35 120-13 43-27 88-39 133-13 46-25 91-36 135-11 45-19 86-25 123-4 28-4 48 3 60 8 12 16 18 26 18 8 0 18-7 27-18 9-12 18-26 27-44 8-18 15-37 22-57s13-38 17-55c4-18 10-30 15-37 5-8 10-11 13-10 4 1 8 6 9 15s-3 22-7 39-9 44-18 82c-10 36-21 73-38 111-16 37-37 70-62 99-26 29-58 44-95 45zm293-1008c0 34-12 63-36 87-24 25-52 37-86 38s-62-10-86-33c-25-23-38-52-38-86 0-32 13-61 38-86 24-23 52-37 86-38 34 0 62 11 86 34s36 51 36 84zm40 170c12-26 31-44 56-53s49-12 73-8c23 4 44 12 59 26 14 14 19 32 10 52-34 78-63 152-86 223-23 72-42 136-56 192-13 56-19 101-22 136-2 34 0 53 10 56 11 4 23-8 36-37 12-29 27-72 44-127s38-122 62-199c25-77 52-162 87-254 12-35 33-57 64-69 29-10 57-14 84-10 27 5 48 15 63 31 14 16 14 33-2 50-15 17-28 48-42 94s-29 100-44 160c-15 61-35 124-56 190s-47 128-76 184c-30 57-66 102-108 140-41 36-90 56-146 57-52 2-90-13-116-41-27-29-44-67-51-114s-5-101 3-161c9-61 21-122 38-184 16-62 34-123 55-181 22-58 42-109 61-153zm1061-13c-10 19-22 44-34 75-12 30-24 63-36 100-11 36-22 74-33 113-12 39-22 76-33 112-10 36-18 69-25 99-7 31-14 54-19 73-5 26-6 46-3 58s7 19 12 20c10-1 19-8 29-19 9-12 17-27 25-44s16-36 22-55c6-21 12-39 17-56 9-33 17-49 29-47 10 2 11 20 3 55-4 16-10 44-19 81-8 37-22 73-38 111-16 37-38 71-63 100-25 28-58 44-95 45-22 0-42-6-62-20-19-13-32-34-39-62-14 27-33 48-58 64-24 15-49 23-72 24-56 1-97-19-122-62-26-43-39-98-41-164s6-138 26-215c19-77 45-149 79-216s73-123 118-168c46-45 93-68 144-69 29-1 53 5 70 19 15 14 27 33 32 56 20-17 44-31 69-41 25-11 49-17 69-19 21-1 38 2 48 10s10 22 0 42zm-445 623c7 2 15-8 27-31s25-52 37-88c13-35 26-74 39-115 13-42 23-81 30-118 8-36 14-67 16-93 1-25 0-39-9-41-7-2-17 8-28 31-12 22-25 51-38 87-12 35-27 74-39 116-11 42-21 82-28 118-8 37-15 68-17 93-3 26 1 39 10 41zm917-898c-7-18-4-33 11-44 39-27 75-45 109-56 33-11 66-17 94-18 53-1 94 9 127 32 33 22 58 52 75 89 17 36 25 79 27 126 1 48-4 97-16 147-11 50-28 99-52 146-24 48-52 91-86 129-34 37-71 67-114 89-42 22-87 33-137 32-20 72-35 137-45 196-10 58-8 101 7 130 12 23 9 41-5 56-14 13-34 22-58 23-25 2-51-3-78-16-25-13-47-34-61-63-15-32-18-76-12-131 7-56 20-116 38-182 17-65 39-133 62-203 24-71 46-138 66-201s36-120 46-169c10-50 10-87 2-112zm96 482c19-1 35-12 52-34 18-22 34-49 48-80 13-32 24-66 34-102 9-37 15-70 15-99 0-30-5-53-15-70-12-18-29-23-53-17 2 3 2 4 2 5 0 2 0 3 2 4 3 18 3 40 0 68-4 27-9 58-17 92-9 34-19 71-31 111s-23 81-37 122zm624-314c46-2 85 10 113 35 28 24 49 57 61 98s19 88 17 142c-1 53-8 108-20 164-12 57-30 112-53 166-22 54-50 102-79 143-30 43-65 77-101 104-36 26-75 40-114 41-49 1-90-10-120-35s-52-57-66-99c-13-40-18-88-17-141 2-53 9-108 22-164 14-57 32-112 56-166s51-102 81-144c31-42 66-77 103-103 38-26 76-40 117-41zm-164 689c7 0 18-12 30-37 13-24 25-54 38-90 12-36 25-75 37-117 12-41 22-80 29-116 6-36 11-66 13-89 2-24 0-36-7-36-10 0-20 13-32 36-12 25-23 55-35 91s-25 74-36 116-19 80-27 116c-7 36-12 66-15 90s-2 36 5 36zm565 188c-36 1-63-8-81-27-15 59-26 111-31 156s-1 79 10 102c13 23 11 42-3 56-13 14-34 22-57 24-26 1-51-4-78-17-26-13-47-33-61-63-15-32-18-78-10-136 7-59 20-124 39-194 18-70 40-143 66-219 25-76 48-148 69-215 21-68 37-128 49-181 12-52 12-91 3-116-5-16-4-29 5-38 10-11 24-15 41-15s37 6 58 17c20 12 37 31 52 57 15-26 34-47 57-62 26-15 50-22 75-23 56-1 96 19 122 62 25 43 40 98 42 164s-8 138-27 215c-20 77-46 149-80 216-33 67-72 123-118 168s-93 68-142 69zm156-689c-7-2-17 8-29 31-12 22-25 52-37 87-13 35-28 74-39 116-12 42-22 82-29 118-8 37-13 67-15 92-3 25 0 39 6 41 7 2 17-8 29-31 12-22 26-51 39-86 13-36 25-75 37-116 13-42 24-81 31-117 6-37 12-68 15-93 3-26-2-40-8-42zm608 668c-27 1-54-5-79-17s-42-33-53-62c-1-4-4-7-5-12 0-4-1-9-1-14-14 30-31 56-54 78s-51 34-83 35c-27 1-53-5-78-18-24-12-42-33-54-62-12-28-18-62-15-104 2-41 11-86 22-134 10-47 23-98 38-149 17-51 33-100 48-147 14-47 26-90 35-128 10-39 14-71 12-96-1-20 7-35 27-45 19-9 41-13 66-9 24 3 46 14 66 32s31 45 31 80c0 32-5 65-14 100-9 36-21 75-34 118-12 42-27 90-42 141s-28 109-41 173c-5 27-7 47-1 59 6 13 13 19 22 18 10 0 17-5 23-15 7-11 11-24 16-40 4-16 8-33 11-52 4-19 8-37 12-54 10-43 19-88 31-134 12-45 23-89 37-130 13-42 27-80 40-115 14-34 26-62 36-84 17-34 41-60 69-76 29-17 56-25 82-26 27-1 46 5 60 19s15 34 2 60c-16 35-32 77-49 126s-33 100-49 152-31 102-44 153c-13 50-20 94-27 131-5 28-5 47 2 60 6 12 15 18 23 18 11 0 21-6 31-18 9-11 17-26 25-44 9-18 17-37 24-57s12-38 17-55c9-33 17-49 27-47s11 20 3 54c-4 17-9 44-18 82-10 36-23 73-39 111-16 37-37 70-63 99-25 29-57 44-95 45zm305-8c-27 1-53-5-78-17-24-12-42-33-54-61-15-33-20-78-12-136 8-59 22-123 41-194 18-71 41-144 66-220 24-75 48-146 69-214 21-67 36-127 47-180 11-54 13-92 4-117-8-18-2-34 12-44 13-11 32-14 54-9 23 4 45 18 67 39 24 23 40 56 49 101 5 20 5 49-1 84-6 36-16 77-27 122-12 46-27 95-43 147s-31 104-47 157c-16 52-32 104-46 155-13 50-25 97-33 139-6 27-6 47 0 59 5 13 11 19 20 19 12-1 21-6 30-18 9-11 17-27 26-44 8-18 17-37 23-57 7-20 12-39 17-56 10-33 19-48 29-46s10 20 2 54c-4 17-10 44-19 81s-22 74-37 112c-15 37-37 70-63 99s-59 44-96 45zm832-836c-10 19-22 44-34 75-12 30-24 64-35 100-12 37-22 74-34 113s-22 76-32 112c-11 36-19 69-26 99-6 31-14 55-18 73-6 26-7 46-4 58 4 12 7 19 12 20 10-2 19-7 29-20 9-11 17-25 25-43 9-17 16-36 22-55 6-21 13-39 17-56 9-33 17-49 29-47 10 2 11 20 3 54-4 17-10 45-18 82-9 37-23 74-39 111s-37 70-63 99c-25 29-57 45-94 46-22 0-43-6-63-20-19-13-32-35-39-62-13 27-32 48-57 64-24 15-50 23-73 24-56 2-97-19-122-62s-39-98-41-164c-1-66 6-138 26-215 19-77 45-149 79-216s73-123 119-168c45-45 93-68 143-69 29-1 53 5 70 19 15 14 27 32 32 56 20-17 44-31 69-42 26-10 49-16 70-18 20-1 37 2 47 10s10 22 0 42zm-445 623c7 2 15-8 27-31s25-52 37-88c13-35 27-74 39-115 13-42 23-81 31-117 7-37 13-68 15-93 2-26 0-40-7-42-8-2-18 8-30 31-12 22-25 51-37 87-13 35-28 74-39 116-12 42-22 82-29 118-8 37-14 67-17 93-2 26 2 39 10 41zm974-473c9-34 19-50 29-48s10 20 2 54c-3 11-6 28-12 50s-13 46-22 72-20 53-32 79c-12 28-27 52-42 72-17 21-36 38-56 50-21 12-43 18-66 15-32-4-54-16-66-36s-18-44-19-72c-1-27 2-57 9-88 6-31 11-60 18-86 8-27 12-49 14-66 2-16-2-25-12-25-8 1-20 14-34 39s-29 56-40 93c-13 42-25 86-39 131-15 46-29 91-39 134s-18 84-21 121c-2 38 2 69 14 93s11 43-3 56c-15 15-34 22-60 24-23 2-49-4-76-17-27-12-47-33-61-62-15-33-20-71-18-114s10-88 22-135c12-48 27-96 44-145s33-97 47-142c15-45 26-86 32-124 7-37 5-68-3-93-7-19-4-34 10-44 15-10 34-12 56-8 22 5 44 17 68 40 22 22 38 55 47 101 22-44 48-80 79-110 31-28 63-44 98-45 34-1 57 9 70 29 12 19 18 45 18 74 0 30-3 63-11 99-9 36-17 69-26 99-8 30-14 56-18 76-5 20-4 30 5 30 10-1 19-6 28-18 9-11 17-26 26-42 9-18 17-36 23-56 7-20 13-39 17-55zm452-439c-9-23-1-37 19-48 38-21 71-40 104-52 33-11 63-17 92-18 111-3 185 47 216 149 16 51 19 114 15 188-3 73-18 158-44 255-28 109-61 202-93 279-31 77-64 139-101 188-36 48-74 84-117 106-42 22-88 34-138 35-2-1-4-3-5-5-4 0-7 1-9 1-64 1-108-25-134-80-15-33-19-76-13-131 6-56 19-116 35-182 17-65 38-133 63-203 24-70 46-137 64-201 19-63 34-120 44-169 10-50 12-87 2-112zm7 824c-3 16 0 26 3 30 4 4 9 6 17 5 0 0 0 1 2 0 8-2 20-15 34-39 13-23 27-54 44-91 15-37 29-80 45-126 16-47 33-94 48-142 18-61 33-117 44-167 10-51 16-93 15-128s-9-60-21-76c-11-16-32-20-59-11 0 3 3 6 4 10 4 20 4 48-2 82-6 35-15 74-25 117-11 43-24 88-39 136-16 48-30 95-44 144-15 47-27 93-39 137s-21 84-27 119zm539 237c-27 1-54-5-79-17-26-13-44-34-54-63-8-22-11-51-12-85-1-35 2-72 7-111 5-40 13-82 23-125 10-44 21-85 32-125s23-77 34-113c11-35 23-65 32-89 14-36 34-63 61-80 29-18 54-28 80-30 27-1 47 4 62 18 15 13 18 33 10 60-10 37-22 77-35 120-13 44-26 88-39 134s-24 90-35 135c-11 44-18 86-24 123-4 27-5 47 3 59s14 19 24 18c8 0 18-6 27-17 10-12 19-27 27-44 9-18 15-37 22-57s13-39 17-56 10-29 15-37c5-7 10-10 14-9 3 1 7 6 8 15s-2 22-5 39-11 44-20 81-21 74-37 112c-16 36-38 70-63 99s-58 44-95 45zm293-1009c0 34-12 64-36 88-23 24-52 37-86 38s-62-10-86-33c-25-24-37-52-37-86 0-33 12-61 37-86 24-24 52-37 86-38s63 10 86 33c24 24 36 51 36 84zm489 656c-16 57-33 107-53 151-19 42-39 79-59 110s-41 56-61 76c-20 21-39 37-54 49-20 46-41 86-63 122-20 35-45 65-71 87s-55 37-86 45c-32 7-66 5-103-6-44-13-72-36-88-68-16-33-22-68-17-105s19-72 41-106c22-33 49-57 83-72-31-25-53-63-63-113s-12-106-5-167 21-125 42-190 48-124 80-177c32-54 67-98 108-133 41-34 81-52 127-53 29-1 52 5 69 19s27 33 32 56c22-17 44-32 70-42 27-10 49-16 69-17 22-2 37 1 47 9s11 23 0 42c-16 29-33 69-50 123-18 53-33 108-49 166-17 58-33 112-46 164-14 52-23 92-31 119-7 27-15 52-22 75-6 24-13 48-22 72 28-23 53-54 78-93 26-38 48-89 66-150 10-33 21-49 31-47s9 20 0 54zm-398 140c7 2 15-8 27-31s25-52 37-87c13-36 25-75 38-116 12-42 24-81 32-117 7-37 12-68 13-94 2-25 0-39-6-41-9-2-20 8-31 31-11 22-23 51-35 86-13 36-27 75-39 117s-23 81-31 118c-7 36-11 68-13 93-3 26 0 39 8 41zm-159 387c14 3 29-1 41-10 13-11 26-25 37-44s20-41 30-68c11-26 22-54 33-82-27-11-51-13-71-8-22 5-41 14-56 28-16 14-27 31-36 51-8 20-13 40-15 59-2 18-1 35 5 49s17 22 32 25zm619-197c-27 1-54-5-79-17-26-12-44-33-54-63-9-22-13-50-14-85-1-34 3-72 9-111 5-40 14-82 23-125 10-43 20-85 31-125s24-77 35-113c11-35 23-65 32-89 14-36 34-62 61-80s54-28 80-29c25-2 47 3 62 17 15 13 19 33 10 60-11 37-24 77-37 121-12 42-24 87-37 133s-25 91-36 135c-10 45-19 85-25 123-4 27-3 47 4 59 6 13 15 19 23 19 10-1 19-7 29-18 10-12 19-27 27-44 8-18 15-37 22-57s12-39 17-56 10-29 15-37c5-7 9-11 14-10 3 1 6 7 6 16 1 9 0 22-5 39-4 17-9 44-18 81s-22 74-37 112c-16 37-38 70-63 99s-58 44-95 45zm293-1009c0 34-12 64-36 88-25 25-52 37-86 38s-63-10-88-33c-24-23-35-52-35-86 0-33 11-62 35-86 25-25 54-37 88-38s61 10 86 33c24 23 36 52 36 84zm96 17c4-15 9-29 12-43s9-28 12-41c5-21 13-39 24-54 10-16 22-25 35-27 14-2 29 5 44 22 15 18 31 49 47 95 3 7 4 15 6 22 45-10 81-19 106-27 24-8 43-9 56 1 10 7 13 19 12 34-2 14-9 29-21 44-11 15-27 29-45 40-19 12-39 19-63 19-18 1-37 1-56 2-8 37-21 79-35 126s-30 98-48 153c-17 55-36 113-54 174-17 62-32 127-47 196-6 27-6 47 0 59 6 13 14 19 24 18 8 0 18-6 27-18s18-26 27-44c8-17 15-36 22-56s12-39 17-56c9-34 18-49 28-47 11 2 10 20 2 55-4 17-9 44-18 81-10 37-21 74-38 111-16 37-37 71-62 100s-58 44-95 45c-27 1-54-5-79-18-24-12-43-33-55-62-15-39-21-90-11-152 9-63 23-131 44-205 20-73 45-150 74-230s56-158 79-232c-8-1-16-1-25-1-8 0-15 1-22 1-22 0-36-4-40-12-5-9-4-18 3-29 8-11 20-20 37-30 15-8 34-13 54-14h22zm750 147c-11 20-22 45-34 75-12 31-24 64-36 101-12 36-22 74-34 112-12 39-22 76-32 113-9 36-18 69-25 99s-15 54-19 73c-6 26-6 45-3 57 3 13 7 19 13 21 9-2 18-8 27-20 9-11 17-26 26-43 8-17 18-36 23-56 6-20 11-38 16-55 9-33 17-49 28-47s12 20 4 54c-4 17-10 44-19 81-8 37-22 74-39 112-16 37-37 70-62 99-26 29-58 44-95 45-22 1-43-5-63-19-18-14-32-35-38-63-14 28-33 49-58 64-24 15-49 24-73 25-55 1-96-20-121-63-26-42-39-97-41-163s6-138 25-215c20-77 47-149 80-216 33-68 74-124 118-168 46-46 93-68 144-70 29 0 53 6 69 20 16 13 27 32 32 56 22-18 44-32 70-42 27-11 49-16 69-18 22-2 37 2 48 10 10 8 10 22 0 41zm-445 624c6 2 15-8 27-31s26-52 39-88c12-35 24-74 37-116s24-80 32-117c8-36 12-67 14-93 1-25 0-39-7-41-9-3-19 8-31 30-12 23-24 52-37 87-13 36-27 74-39 117-12 42-21 81-29 118-7 36-12 67-15 93-2 25 0 39 9 41zm487 189c-27 1-53-5-78-17-24-12-42-33-54-61-15-33-20-78-12-136 8-59 22-124 41-194 18-71 40-144 66-220 25-75 48-146 69-214 21-67 38-127 49-180s12-92 3-117c-6-19-3-34 10-44 15-11 33-14 56-10 22 5 44 19 66 40 24 23 39 56 49 101 5 20 5 48-1 84s-16 77-27 122c-12 46-27 95-43 147-16 51-32 104-47 156-15 53-31 104-46 155-14 51-25 98-34 140-5 27-5 47 0 59 5 13 12 19 22 19 11-1 20-6 29-18s16-27 26-44c9-19 16-37 23-57s13-39 17-56c9-33 19-49 29-47s9 21 2 55c-4 17-10 44-19 81s-21 74-37 112c-16 36-37 70-63 99s-59 44-96 45z" fill="none" fill-rule="nonzero" stroke="#fefefe" stroke-width="339.225"/><g id="_2283820960352"><path class="fil3" d="M385 908c-7-18-4-33 12-44 38-27 76-45 108-56 34-11 66-17 97-18 50-1 93 9 125 32 32 22 57 51 74 89 17 36 27 79 27 126 1 48-3 96-15 147-12 50-29 99-52 146-24 48-51 91-85 128-34 38-73 68-115 90s-88 33-137 32c-20 72-35 137-45 195-11 59-9 102 6 130 13 23 11 43-3 57-15 14-34 21-59 23-24 2-49-4-76-17s-48-33-61-62c-15-33-20-77-14-132s19-115 37-181c19-66 39-134 63-204 25-70 47-137 66-200 19-64 35-120 46-170 10-49 11-86 1-111zm98 482c17-1 35-12 53-34 17-22 33-49 47-80 14-32 25-66 34-102 9-37 13-70 14-99 0-30-4-53-16-71-10-16-27-22-52-16 2 2 2 4 2 5s1 2 1 4c4 18 4 40 0 68-3 27-9 57-17 92-7 34-17 71-28 111-12 40-26 81-38 122zm856-82c9-34 19-50 27-48 10 2 11 20 4 54-3 11-6 28-12 50s-13 47-22 72c-10 27-21 53-34 80s-26 50-42 72c-16 20-34 37-54 49-21 13-43 18-68 15-32-3-54-16-66-36s-18-44-19-71c-1-28 3-58 9-89s13-59 20-86 12-48 14-65c1-17-4-26-12-25-9 0-21 13-36 38-14 25-29 56-40 93-13 41-24 86-39 132-15 45-28 90-39 133-11 44-18 84-20 122-3 37 2 68 15 92 12 24 10 42-5 57-14 13-34 22-58 23-25 2-51-3-78-16-25-13-47-34-60-63-15-32-22-70-19-113 2-44 11-89 24-136 12-47 27-96 44-145s32-96 47-141c14-45 24-87 30-124 7-38 7-69-3-94-7-19-3-33 12-43 14-10 32-13 54-8 22 4 45 18 68 39 23 23 39 56 49 101 20-44 47-80 77-109 31-29 65-44 100-45 32-1 55 9 68 28 13 21 19 45 19 75s-5 62-12 98c-8 36-16 69-24 99s-15 56-20 76-4 30 5 30c10 0 20-6 29-17 9-12 18-26 27-43 8-17 16-36 23-56 7-19 13-38 17-55zm281-247c46-1 84 11 112 35 28 26 49 58 62 99s19 88 17 141c-2 54-8 109-20 165-13 57-31 111-54 165s-50 102-80 144c-29 42-63 76-100 103-35 26-74 41-115 42-49 1-88-11-118-35-30-25-52-58-66-99s-19-88-17-141c2-54 9-108 22-165 13-56 31-111 56-165 24-54 51-102 81-144 31-42 66-77 103-103 37-27 76-40 117-42zm-164 690c7-1 17-13 30-37s26-54 38-90c11-36 25-75 37-117 12-41 22-80 28-116 7-36 12-66 14-90 2-23 0-35-8-35-9 0-19 12-31 36s-23 55-35 91c-13 36-25 74-36 116-11 41-20 80-27 116s-12 66-15 90c-4 24-2 36 5 36zm786-819c0 34-11 64-35 88s-53 37-86 38c-34 1-63-10-88-33s-36-52-36-86c0-33 12-62 36-86 25-25 54-37 88-38 33-1 62 10 86 33s35 52 35 84zm-307 280c15-34 37-60 65-78 28-17 55-27 78-29 26-2 46 4 61 16 15 13 16 33 7 60-11 31-23 74-37 128-15 54-31 113-49 179-18 64-36 132-56 202-20 69-41 135-63 199-21 63-42 120-66 170-23 50-47 88-71 113-32 35-64 57-98 65s-64 10-88 4c-25-5-43-15-52-29-9-13-4-26 13-35 24-12 48-41 71-88 24-46 48-102 71-167 24-65 46-136 68-210 22-75 42-146 61-214s35-128 49-179c14-52 26-87 36-107zm688 371c12-32 22-47 30-46 9 2 9 19 0 54-9 37-23 78-42 122s-43 84-71 119-61 63-100 83-83 25-132 16c-45-8-84-29-111-58-29-30-50-67-63-110s-19-90-19-143c1-52 7-105 19-158 13-54 31-105 54-155s50-94 81-134c31-39 65-71 102-96 37-24 78-37 120-38 32-1 61 6 86 21 24 14 44 35 58 60 14 26 23 57 25 93 3 35 0 73-10 114-17 69-41 123-69 163-29 41-59 72-90 92-32 21-61 33-90 37-28 3-52 2-69-3 0 33 3 61 10 83 7 23 24 38 49 48 21 8 42 10 64 3 22-6 44-17 65-33s41-35 59-58c17-23 33-48 44-76zm-166-340c-7-1-17 7-29 24-11 17-22 40-35 68s-22 60-32 95c-10 36-19 71-22 106 30-18 54-42 74-75 19-32 32-64 42-96 11-32 14-60 14-85 0-24-3-37-12-37zm371-308c5-15 9-29 13-43 4-13 7-27 10-41 5-20 14-38 24-54s22-24 37-26c14-2 27 5 42 22 16 17 33 49 48 95 2 7 3 14 5 22 45-10 81-20 106-28 26-8 44-8 56 1 10 8 15 19 12 34-2 15-8 30-20 45s-26 28-46 40c-19 11-39 18-63 19-18 0-37 1-55 1-9 38-19 80-34 127s-32 98-49 153c-17 54-35 113-53 174-17 62-33 127-47 195-6 28-6 47 0 60 6 12 14 18 22 18 8-1 19-6 29-18 9-11 18-27 25-44 8-18 16-37 24-57 7-20 12-38 17-56 9-32 18-48 27-46 10 2 11 20 3 54-4 17-9 44-18 81-10 38-23 74-39 112-16 37-35 71-61 99-27 29-58 44-97 45-27 1-52-5-77-17-26-12-45-33-56-63-16-38-19-89-10-152 8-62 23-131 44-204 20-74 44-151 72-231 29-80 56-157 81-231-10-1-18-1-25-1h-24c-22 1-35-3-40-11-5-9-3-18 5-29 7-11 18-21 35-30s36-14 56-14c7-1 14-1 21-1zm476 81c48-2 85 10 114 35s48 58 61 98c12 41 19 88 18 142-1 53-9 108-22 164-12 56-29 111-52 166-23 53-49 101-80 143-30 43-64 77-99 104-37 26-75 40-115 41-49 1-88-11-119-35-30-25-52-57-66-99-13-41-20-88-18-141 1-53 9-108 22-165 12-56 32-111 55-165 24-54 53-102 83-144 31-42 64-77 102-103 38-27 78-40 116-41zm-164 689c9-1 18-13 31-37s26-54 39-90c12-36 24-75 35-117 12-41 23-80 31-116 7-36 12-66 13-90 2-23-1-35-8-35-9 0-21 12-32 36-12 25-24 55-36 91s-23 75-34 116c-11 42-19 81-27 116-7 37-12 66-15 90-2 24-2 36 3 36zm1086-715c37-1 65 11 83 36 20-66 33-123 42-174 10-51 10-88 0-113-7-19-1-34 12-44 14-11 32-14 54-9 24 4 46 18 68 39 23 23 40 56 49 101 4 20 4 48-2 84s-15 77-27 122c-11 46-26 94-42 147-16 51-31 104-47 156-16 53-32 105-46 155-13 51-26 98-34 140-5 27-5 47 0 59s12 19 21 18c11 0 20-5 30-18 9-11 17-26 25-44 9-17 17-36 24-56s12-39 17-56c10-33 19-49 29-47s9 20 1 55c-4 17-9 44-18 81s-21 74-37 111c-17 38-38 71-63 100s-58 44-95 45c-34 1-59-8-76-24-18-16-32-35-40-56-14 26-33 47-58 63-24 15-49 23-74 24-56 1-97-20-122-63-26-42-39-97-41-163-1-66 6-138 26-215 19-77 45-149 79-216s73-123 119-168c45-45 93-68 143-70zm-157 691c8 2 17-8 29-31s24-53 37-88c13-36 27-74 39-116 12-41 21-80 29-117 7-36 13-67 15-93 2-25-2-39-9-41-6-2-17 8-28 30-12 23-25 51-38 87-12 36-24 75-37 117s-23 81-30 118c-7 36-13 67-15 93-3 25 1 39 8 41zm891-162c13-31 22-47 31-46 8 2 9 20 0 54-10 38-24 78-43 123-18 44-41 84-69 119s-62 62-101 82-83 26-132 17c-46-9-83-29-112-58-29-30-50-67-62-110-13-44-20-91-19-143s6-105 19-159c12-53 31-105 54-155 22-49 49-94 81-134 31-39 64-71 101-95 38-24 78-37 120-38 33-1 62 5 87 20 24 15 43 36 57 61 15 26 23 56 26 92 2 35-1 74-11 115-17 68-40 123-69 163s-59 71-90 92-61 32-89 36c-29 3-53 3-70-2 0 32 3 61 11 83 7 22 23 38 49 47 20 9 42 10 64 4s44-18 64-33c22-17 41-35 59-59 18-23 33-48 44-76zm-165-340c-7-1-18 7-29 25-11 16-21 40-34 68s-24 59-34 95c-10 35-18 71-22 106 31-18 56-43 75-75 18-33 32-65 42-97s15-60 15-84-5-37-13-38zm729-473c-8-19-2-34 11-44 14-10 32-13 54-8 24 4 46 18 68 39 23 23 40 56 49 101 6 27 3 66-8 118s-26 110-44 174c-19 64-40 131-63 201s-40 137-57 200c-17 62-29 119-36 169s-3 87 9 110c11 23 10 42-4 56-13 14-32 22-57 24-24 2-49-4-76-17s-48-34-61-63c-15-32-20-78-12-136 8-59 22-123 40-193 19-70 42-143 66-219 25-75 49-146 70-215 21-67 36-128 47-181s13-92 4-116zm707 779c7-34 16-49 28-47 10 2 10 20 4 54-4 17-11 44-21 82-9 36-21 74-37 111-16 38-39 70-64 99-26 29-58 44-95 45-27 1-52-5-76-17-25-12-42-33-56-62-8-18-12-40-13-67s1-56 5-89 9-69 18-106c10-38 20-77 31-116 8-29 17-57 24-84 6-28 14-52 18-73s7-38 7-50c0-13-4-19-10-19-12 1-26 15-41 44-14 28-30 63-42 103-13 42-25 85-39 130-14 44-25 87-36 128-10 42-17 80-20 116-2 35 5 65 17 90 11 23 8 43-5 56-14 14-34 22-58 24-25 2-50-4-76-17s-47-33-61-62c-15-33-20-71-18-114s10-88 22-136c12-47 26-95 44-144 17-49 31-97 45-142 15-45 26-86 33-124 6-37 5-68-4-93-6-19-3-33 12-44 14-9 32-12 54-8 22 5 45 17 68 40 22 21 39 55 47 101 22-44 49-81 80-110 30-29 64-44 99-45 55-1 89 22 105 71 17 49 10 125-17 227-5 22-13 49-22 82-8 32-18 65-27 99-8 34-16 65-23 95-8 29-12 52-16 68-6 28-6 47-1 60 5 12 12 18 22 18s19-6 29-18c9-11 17-26 27-44 9-17 15-37 22-57 6-20 13-38 17-55zm128 336c-27 1-54-5-79-17-26-12-45-33-55-63-7-22-11-51-11-85-1-35 0-72 6-111 6-41 14-82 24-125s21-85 32-125 22-78 34-113c12-36 22-65 32-89 14-36 34-62 63-80 27-18 52-28 79-30 26-1 46 4 61 18 15 13 20 33 12 60-11 37-24 77-37 120-14 44-27 88-39 134-12 45-25 90-36 135-11 44-18 86-23 123-5 28-4 47 3 59 7 13 14 19 24 19 8-1 19-6 28-18s17-27 26-44c8-18 15-37 22-57s13-39 17-56 10-29 15-37c5-7 10-10 13-10 6 2 8 7 9 16s-2 22-5 39c-4 17-10 44-19 81s-22 74-39 112c-16 37-36 70-62 99-26 28-58 44-95 45zm293-1008c0 33-12 63-36 87-24 25-52 37-86 38s-63-10-86-33c-24-23-36-52-36-86 0-33 12-61 36-86 23-24 52-37 86-38s63 10 86 33c24 24 36 52 36 85zm88 998c-63-10-109-40-141-87-31-47-50-104-56-170-5-65 0-135 17-208 17-74 42-142 75-205 33-64 73-116 120-157 47-42 100-63 155-65 34-1 63 6 87 19 25 14 44 32 57 55 14 22 23 49 27 80 4 30 1 61-7 93-9 42-22 76-40 102-18 25-36 45-56 59s-39 22-59 25c-19 3-36 3-51-1-13-3-23-10-30-19s-5-19 3-30c34-49 52-90 56-124s-2-53-19-56c-10-1-19 10-34 32-14 22-27 50-40 84-14 34-25 73-34 114-9 42-15 81-17 118-2 38 4 71 14 100 10 30 29 48 55 57 23 7 44 8 68 1 22-6 44-17 64-32 21-15 41-35 58-58s30-48 40-76c13-32 26-47 34-45 9 1 8 18-1 53-10 37-22 78-41 122-19 43-42 83-69 117-29 35-61 62-100 83-39 20-85 27-135 19z"/><path class="fil3" d="M7181 1799c-27 0-54-5-79-18-26-12-44-33-55-62-8-22-12-51-13-85-1-35 3-72 8-112s15-81 24-124c9-44 19-86 30-125 11-41 23-78 34-113 11-36 24-65 34-90 14-35 34-62 61-80 27-17 54-27 79-29 26-2 48 4 63 17s19 34 10 61c-11 37-24 76-37 120-13 43-25 88-37 133-13 46-26 91-36 136-10 44-19 85-25 123-4 27-3 47 3 59 7 12 16 18 24 18 10 0 19-6 29-18 10-11 18-26 27-44 8-18 15-36 22-56s12-39 17-56 10-29 15-37c5-7 8-11 13-10 4 1 6 6 7 15 1 10-1 22-5 40-4 17-9 44-18 81-10 37-22 74-38 111-16 38-37 71-62 100-26 29-58 44-95 45zm293-1009c0 34-12 64-36 88-25 25-52 37-86 38s-63-10-88-34c-24-22-36-51-36-85 0-33 12-62 36-86 25-25 54-37 88-38s61 9 86 33c24 23 36 51 36 84zm537 172c-11 20-21 45-33 75-12 31-24 64-36 101-12 36-22 74-34 113-12 38-22 76-32 112s-18 69-25 99-15 54-19 73c-6 26-6 45-3 58 2 12 7 19 12 20 10-2 19-8 28-20 9-11 17-26 26-43 8-17 16-36 22-56s12-38 17-56c9-32 17-49 28-46 11 2 12 20 4 54-4 17-10 44-19 81-8 37-22 74-39 112-16 37-37 70-62 99-26 29-58 44-95 45-22 1-43-5-63-19-18-14-32-35-38-63-14 28-33 49-58 65-24 15-49 23-73 24-56 1-96-20-121-63-26-42-39-97-41-163s6-138 25-215c20-77 46-149 80-216s73-123 118-168c46-45 93-68 144-70 29 0 53 6 69 20 16 13 27 32 32 56 21-18 44-32 70-42 25-10 49-16 69-18s36 1 47 10c11 7 11 22 0 41zm-446 624c8 2 17-8 29-31s24-53 37-88c13-36 26-74 39-116s23-80 30-117c8-37 14-67 15-93 2-25 0-39-8-41-7-2-17 8-29 30-12 23-26 51-39 87-12 35-25 75-37 117s-21 81-29 118c-7 36-14 67-16 93-3 25 1 39 8 41zm573-795c5-15 10-29 14-43 3-14 8-27 12-41 5-21 13-39 23-54 11-16 22-25 36-27 13-2 29 6 44 23s31 48 47 94c3 8 4 15 5 22 46-10 81-19 105-27 25-8 44-8 58 1 10 7 13 19 12 34-2 14-10 30-21 44-11 16-27 29-45 41-19 11-41 18-63 18-19 1-37 1-56 2-8 37-21 80-35 127-15 46-30 97-48 152s-36 113-54 175c-18 61-34 126-47 195-5 27-6 47 0 59 6 13 13 18 22 18 10 0 18-6 29-18 10-11 18-26 27-44 8-17 15-36 22-56 6-20 11-39 16-56 11-33 19-49 29-47 10 3 10 20 2 55-4 17-9 44-19 81-9 37-22 74-37 112-15 37-37 70-62 99-26 29-58 44-95 45-27 1-54-5-80-17-25-13-42-34-54-63-15-39-20-90-12-152 9-63 24-131 44-205 21-73 46-150 75-230s54-157 79-232c-8 0-17-1-25-1-9 1-15 1-22 1-24 1-37-4-41-12s-4-18 4-29 20-21 35-30c17-9 36-13 56-14h20zm232 975c-27 1-54-5-79-17-26-12-44-33-55-62-8-23-11-51-11-86-1-34 1-71 6-111s15-81 24-125c9-43 19-85 30-125s25-77 36-113c11-35 23-65 32-89 14-35 34-62 61-80 28-18 54-27 80-29 27-2 47 4 62 17s18 33 10 61c-10 36-23 76-35 120-13 43-27 88-39 133-13 46-25 91-36 135-11 45-19 86-25 123-4 28-4 48 3 60 8 12 16 18 26 18 8 0 18-7 27-18 9-12 18-26 27-44 8-18 15-37 22-57s13-38 17-55c4-18 10-30 15-37 5-8 10-11 13-10 4 1 8 6 9 15s-3 22-7 39-9 44-18 82c-10 36-21 73-38 111-16 37-37 70-62 99-26 29-58 44-95 45zm293-1008c0 34-12 63-36 87-24 25-52 37-86 38s-62-10-86-33c-25-23-38-52-38-86 0-32 13-61 38-86 24-23 52-37 86-38 34 0 62 11 86 34s36 51 36 84zm40 170c12-26 31-44 56-53s49-12 73-8c23 4 44 12 59 26 14 14 19 32 10 52-34 78-63 152-86 223-23 72-42 136-56 192-13 56-19 101-22 136-2 34 0 53 10 56 11 4 23-8 36-37 12-29 27-72 44-127s38-122 62-199c25-77 52-162 87-254 12-35 33-57 64-69 29-10 57-14 84-10 27 5 48 15 63 31 14 16 14 33-2 50-15 17-28 48-42 94s-29 100-44 160c-15 61-35 124-56 190s-47 128-76 184c-30 57-66 102-108 140-41 36-90 56-146 57-52 2-90-13-116-41-27-29-44-67-51-114s-5-101 3-161c9-61 21-122 38-184 16-62 34-123 55-181 22-58 42-109 61-153zm1061-13c-10 19-22 44-34 75-12 30-24 63-36 100-11 36-22 74-33 113-12 39-22 76-33 112-10 36-18 69-25 99-7 31-14 54-19 73-5 26-6 46-3 58s7 19 12 20c10-1 19-8 29-19 9-12 17-27 25-44s16-36 22-55c6-21 12-39 17-56 9-33 17-49 29-47 10 2 11 20 3 55-4 16-10 44-19 81-8 37-22 73-38 111-16 37-38 71-63 100-25 28-58 44-95 45-22 0-42-6-62-20-19-13-32-34-39-62-14 27-33 48-58 64-24 15-49 23-72 24-56 1-97-19-122-62-26-43-39-98-41-164s6-138 26-215c19-77 45-149 79-216s73-123 118-168c46-45 93-68 144-69 29-1 53 5 70 19 15 14 27 33 32 56 20-17 44-31 69-41 25-11 49-17 69-19 21-1 38 2 48 10s10 22 0 42zm-445 623c7 2 15-8 27-31s25-52 37-88c13-35 26-74 39-115 13-42 23-81 30-118 8-36 14-67 16-93 1-25 0-39-9-41-7-2-17 8-28 31-12 22-25 51-38 87-12 35-27 74-39 116-11 42-21 82-28 118-8 37-15 68-17 93-3 26 1 39 10 41zm917-898c-7-18-4-33 11-44 39-27 75-45 109-56 33-11 66-17 94-18 53-1 94 9 127 32 33 22 58 52 75 89 17 36 25 79 27 126 1 48-4 97-16 147-11 50-28 99-52 146-24 48-52 91-86 129-34 37-71 67-114 89-42 22-87 33-137 32-20 72-35 137-45 196-10 58-8 101 7 130 12 23 9 41-5 56-14 13-34 22-58 23-25 2-51-3-78-16-25-13-47-34-61-63-15-32-18-76-12-131 7-56 20-116 38-182 17-65 39-133 62-203 24-71 46-138 66-201s36-120 46-169c10-50 10-87 2-112zm96 482c19-1 35-12 52-34 18-22 34-49 48-80 13-32 24-66 34-102 9-37 15-70 15-99 0-30-5-53-15-70-12-18-29-23-53-17 2 3 2 4 2 5 0 2 0 3 2 4 3 18 3 40 0 68-4 27-9 58-17 92-9 34-19 71-31 111s-23 81-37 122zm624-314c46-2 85 10 113 35 28 24 49 57 61 98s19 88 17 142c-1 53-8 108-20 164-12 57-30 112-53 166-22 54-50 102-79 143-30 43-65 77-101 104-36 26-75 40-114 41-49 1-90-10-120-35s-52-57-66-99c-13-40-18-88-17-141 2-53 9-108 22-164 14-57 32-112 56-166s51-102 81-144c31-42 66-77 103-103 38-26 76-40 117-41zm-164 689c7 0 18-12 30-37 13-24 25-54 38-90 12-36 25-75 37-117 12-41 22-80 29-116 6-36 11-66 13-89 2-24 0-36-7-36-10 0-20 13-32 36-12 25-23 55-35 91s-25 74-36 116-19 80-27 116c-7 36-12 66-15 90s-2 36 5 36zm565 188c-36 1-63-8-81-27-15 59-26 111-31 156s-1 79 10 102c13 23 11 42-3 56-13 14-34 22-57 24-26 1-51-4-78-17-26-13-47-33-61-63-15-32-18-78-10-136 7-59 20-124 39-194 18-70 40-143 66-219 25-76 48-148 69-215 21-68 37-128 49-181 12-52 12-91 3-116-5-16-4-29 5-38 10-11 24-15 41-15s37 6 58 17c20 12 37 31 52 57 15-26 34-47 57-62 26-15 50-22 75-23 56-1 96 19 122 62 25 43 40 98 42 164s-8 138-27 215c-20 77-46 149-80 216-33 67-72 123-118 168s-93 68-142 69zm156-689c-7-2-17 8-29 31-12 22-25 52-37 87-13 35-28 74-39 116-12 42-22 82-29 118-8 37-13 67-15 92-3 25 0 39 6 41 7 2 17-8 29-31 12-22 26-51 39-86 13-36 25-75 37-116 13-42 24-81 31-117 6-37 12-68 15-93 3-26-2-40-8-42zm608 668c-27 1-54-5-79-17s-42-33-53-62c-1-4-4-7-5-12 0-4-1-9-1-14-14 30-31 56-54 78s-51 34-83 35c-27 1-53-5-78-18-24-12-42-33-54-62-12-28-18-62-15-104 2-41 11-86 22-134 10-47 23-98 38-149 17-51 33-100 48-147 14-47 26-90 35-128 10-39 14-71 12-96-1-20 7-35 27-45 19-9 41-13 66-9 24 3 46 14 66 32s31 45 31 80c0 32-5 65-14 100-9 36-21 75-34 118-12 42-27 90-42 141s-28 109-41 173c-5 27-7 47-1 59 6 13 13 19 22 18 10 0 17-5 23-15 7-11 11-24 16-40 4-16 8-33 11-52 4-19 8-37 12-54 10-43 19-88 31-134 12-45 23-89 37-130 13-42 27-80 40-115 14-34 26-62 36-84 17-34 41-60 69-76 29-17 56-25 82-26 27-1 46 5 60 19s15 34 2 60c-16 35-32 77-49 126s-33 100-49 152-31 102-44 153c-13 50-20 94-27 131-5 28-5 47 2 60 6 12 15 18 23 18 11 0 21-6 31-18 9-11 17-26 25-44 9-18 17-37 24-57s12-38 17-55c9-33 17-49 27-47s11 20 3 54c-4 17-9 44-18 82-10 36-23 73-39 111-16 37-37 70-63 99-25 29-57 44-95 45zm305-8c-27 1-53-5-78-17-24-12-42-33-54-61-15-33-20-78-12-136 8-59 22-123 41-194 18-71 41-144 66-220 24-75 48-146 69-214 21-67 36-127 47-180 11-54 13-92 4-117-8-18-2-34 12-44 13-11 32-14 54-9 23 4 45 18 67 39 24 23 40 56 49 101 5 20 5 49-1 84-6 36-16 77-27 122-12 46-27 95-43 147s-31 104-47 157c-16 52-32 104-46 155-13 50-25 97-33 139-6 27-6 47 0 59 5 13 11 19 20 19 12-1 21-6 30-18 9-11 17-27 26-44 8-18 17-37 23-57 7-20 12-39 17-56 10-33 19-48 29-46s10 20 2 54c-4 17-10 44-19 81s-22 74-37 112c-15 37-37 70-63 99s-59 44-96 45zm832-836c-10 19-22 44-34 75-12 30-24 64-35 100-12 37-22 74-34 113s-22 76-32 112c-11 36-19 69-26 99-6 31-14 55-18 73-6 26-7 46-4 58 4 12 7 19 12 20 10-2 19-7 29-20 9-11 17-25 25-43 9-17 16-36 22-55 6-21 13-39 17-56 9-33 17-49 29-47 10 2 11 20 3 54-4 17-10 45-18 82-9 37-23 74-39 111s-37 70-63 99c-25 29-57 45-94 46-22 0-43-6-63-20-19-13-32-35-39-62-13 27-32 48-57 64-24 15-50 23-73 24-56 2-97-19-122-62s-39-98-41-164c-1-66 6-138 26-215 19-77 45-149 79-216s73-123 119-168c45-45 93-68 143-69 29-1 53 5 70 19 15 14 27 32 32 56 20-17 44-31 69-42 26-10 49-16 70-18 20-1 37 2 47 10s10 22 0 42zm-445 623c7 2 15-8 27-31s25-52 37-88c13-35 27-74 39-115 13-42 23-81 31-117 7-37 13-68 15-93 2-26 0-40-7-42-8-2-18 8-30 31-12 22-25 51-37 87-13 35-28 74-39 116-12 42-22 82-29 118-8 37-14 67-17 93-2 26 2 39 10 41z"/><path class="fil3" d="M13787 970c9-34 19-50 29-48s10 20 2 54c-3 11-6 28-12 50s-13 46-22 72-20 53-32 79c-12 28-27 52-42 72-17 21-36 38-56 50-21 12-43 18-66 15-32-4-54-16-66-36s-18-44-19-72c-1-27 2-57 9-88 6-31 11-60 18-86 8-27 12-49 14-66 2-16-2-25-12-25-8 1-20 14-34 39s-29 56-40 93c-13 42-25 86-39 131-15 46-29 91-39 134s-18 84-21 121c-2 38 2 69 14 93s11 43-3 56c-15 15-34 22-60 24-23 2-49-4-76-17-27-12-47-33-61-62-15-33-20-71-18-114s10-88 22-135c12-48 27-96 44-145s33-97 47-142c15-45 26-86 32-124 7-37 5-68-3-93-7-19-4-34 10-44 15-10 34-12 56-8 22 5 44 17 68 40 22 22 38 55 47 101 22-44 48-80 79-110 31-28 63-44 98-45 34-1 57 9 70 29 12 19 18 45 18 74 0 30-3 63-11 99-9 36-17 69-26 99-8 30-14 56-18 76-5 20-4 30 5 30 10-1 19-6 28-18 9-11 17-26 26-42 9-18 17-36 23-56 7-20 13-39 17-55zm452-439c-9-23-1-37 19-48 38-21 71-40 104-52 33-11 63-17 92-18 111-3 185 47 216 149 16 51 19 114 15 188-3 73-18 158-44 255-28 109-61 202-93 279-31 77-64 139-101 188-36 48-74 84-117 106-42 22-88 34-138 35-2-1-4-3-5-5-4 0-7 1-9 1-64 1-108-25-134-80-15-33-19-76-13-131 6-56 19-116 35-182 17-65 38-133 63-203 24-70 46-137 64-201 19-63 34-120 44-169 10-50 12-87 2-112zm7 824c-3 16 0 26 3 30 4 4 9 6 17 5 0 0 0 1 2 0 8-2 20-15 34-39 13-23 27-54 44-91 15-37 29-80 45-126 16-47 33-94 48-142 18-61 33-117 44-167 10-51 16-93 15-128s-9-60-21-76c-11-16-32-20-59-11 0 3 3 6 4 10 4 20 4 48-2 82-6 35-15 74-25 117-11 43-24 88-39 136-16 48-30 95-44 144-15 47-27 93-39 137s-21 84-27 119zm539 237c-27 1-54-5-79-17-26-13-44-34-54-63-8-22-11-51-12-85-1-35 2-72 7-111 5-40 13-82 23-125 10-44 21-85 32-125s23-77 34-113c11-35 23-65 32-89 14-36 34-63 61-80 29-18 54-28 80-30 27-1 47 4 62 18 15 13 18 33 10 60-10 37-22 77-35 120-13 44-26 88-39 134s-24 90-35 135c-11 44-18 86-24 123-4 27-5 47 3 59s14 19 24 18c8 0 18-6 27-17 10-12 19-27 27-44 9-18 15-37 22-57s13-39 17-56 10-29 15-37c5-7 10-10 14-9 3 1 7 6 8 15s-2 22-5 39-11 44-20 81-21 74-37 112c-16 36-38 70-63 99s-58 44-95 45zm293-1009c0 34-12 64-36 88-23 24-52 37-86 38s-62-10-86-33c-25-24-37-52-37-86 0-33 12-61 37-86 24-24 52-37 86-38s63 10 86 33c24 24 36 51 36 84zm489 656c-16 57-33 107-53 151-19 42-39 79-59 110s-41 56-61 76c-20 21-39 37-54 49-20 46-41 86-63 122-20 35-45 65-71 87s-55 37-86 45c-32 7-66 5-103-6-44-13-72-36-88-68-16-33-22-68-17-105s19-72 41-106c22-33 49-57 83-72-31-25-53-63-63-113s-12-106-5-167 21-125 42-190 48-124 80-177c32-54 67-98 108-133 41-34 81-52 127-53 29-1 52 5 69 19s27 33 32 56c22-17 44-32 70-42 27-10 49-16 69-17 22-2 37 1 47 9s11 23 0 42c-16 29-33 69-50 123-18 53-33 108-49 166-17 58-33 112-46 164-14 52-23 92-31 119-7 27-15 52-22 75-6 24-13 48-22 72 28-23 53-54 78-93 26-38 48-89 66-150 10-33 21-49 31-47s9 20 0 54zm-398 140c7 2 15-8 27-31s25-52 37-87c13-36 25-75 38-116 12-42 24-81 32-117 7-37 12-68 13-94 2-25 0-39-6-41-9-2-20 8-31 31-11 22-23 51-35 86-13 36-27 75-39 117s-23 81-31 118c-7 36-11 68-13 93-3 26 0 39 8 41zm-159 387c14 3 29-1 41-10 13-11 26-25 37-44s20-41 30-68c11-26 22-54 33-82-27-11-51-13-71-8-22 5-41 14-56 28-16 14-27 31-36 51-8 20-13 40-15 59-2 18-1 35 5 49s17 22 32 25zm619-197c-27 1-54-5-79-17-26-12-44-33-54-63-9-22-13-50-14-85-1-34 3-72 9-111 5-40 14-82 23-125 10-43 20-85 31-125s24-77 35-113c11-35 23-65 32-89 14-36 34-62 61-80s54-28 80-29c25-2 47 3 62 17 15 13 19 33 10 60-11 37-24 77-37 121-12 42-24 87-37 133s-25 91-36 135c-10 45-19 85-25 123-4 27-3 47 4 59 6 13 15 19 23 19 10-1 19-7 29-18 10-12 19-27 27-44 8-18 15-37 22-57s12-39 17-56 10-29 15-37c5-7 9-11 14-10 3 1 6 7 6 16 1 9 0 22-5 39-4 17-9 44-18 81s-22 74-37 112c-16 37-38 70-63 99s-58 44-95 45zm293-1009c0 34-12 64-36 88-25 25-52 37-86 38s-63-10-88-33c-24-23-35-52-35-86 0-33 11-62 35-86 25-25 54-37 88-38s61 10 86 33c24 23 36 52 36 84zm96 17c4-15 9-29 12-43s9-28 12-41c5-21 13-39 24-54 10-16 22-25 35-27 14-2 29 5 44 22 15 18 31 49 47 95 3 7 4 15 6 22 45-10 81-19 106-27 24-8 43-9 56 1 10 7 13 19 12 34-2 14-9 29-21 44-11 15-27 29-45 40-19 12-39 19-63 19-18 1-37 1-56 2-8 37-21 79-35 126s-30 98-48 153c-17 55-36 113-54 174-17 62-32 127-47 196-6 27-6 47 0 59 6 13 14 19 24 18 8 0 18-6 27-18s18-26 27-44c8-17 15-36 22-56s12-39 17-56c9-34 18-49 28-47 11 2 10 20 2 55-4 17-9 44-18 81-10 37-21 74-38 111-16 37-37 71-62 100s-58 44-95 45c-27 1-54-5-79-18-24-12-43-33-55-62-15-39-21-90-11-152 9-63 23-131 44-205 20-73 45-150 74-230s56-158 79-232c-8-1-16-1-25-1-8 0-15 1-22 1-22 0-36-4-40-12-5-9-4-18 3-29 8-11 20-20 37-30 15-8 34-13 54-14h22zm750 147c-11 20-22 45-34 75-12 31-24 64-36 101-12 36-22 74-34 112-12 39-22 76-32 113-9 36-18 69-25 99s-15 54-19 73c-6 26-6 45-3 57 3 13 7 19 13 21 9-2 18-8 27-20 9-11 17-26 26-43 8-17 18-36 23-56 6-20 11-38 16-55 9-33 17-49 28-47s12 20 4 54c-4 17-10 44-19 81-8 37-22 74-39 112-16 37-37 70-62 99-26 29-58 44-95 45-22 1-43-5-63-19-18-14-32-35-38-63-14 28-33 49-58 64-24 15-49 24-73 25-55 1-96-20-121-63-26-42-39-97-41-163s6-138 25-215c20-77 47-149 80-216 33-68 74-124 118-168 46-46 93-68 144-70 29 0 53 6 69 20 16 13 27 32 32 56 22-18 44-32 70-42 27-11 49-16 69-18 22-2 37 2 48 10 10 8 10 22 0 41zm-445 624c6 2 15-8 27-31s26-52 39-88c12-35 24-74 37-116s24-80 32-117c8-36 12-67 14-93 1-25 0-39-7-41-9-3-19 8-31 30-12 23-24 52-37 87-13 36-27 74-39 117-12 42-21 81-29 118-7 36-12 67-15 93-2 25 0 39 9 41zm487 189c-27 1-53-5-78-17-24-12-42-33-54-61-15-33-20-78-12-136 8-59 22-124 41-194 18-71 40-144 66-220 25-75 48-146 69-214 21-67 38-127 49-180s12-92 3-117c-6-19-3-34 10-44 15-11 33-14 56-10 22 5 44 19 66 40 24 23 39 56 49 101 5 20 5 48-1 84s-16 77-27 122c-12 46-27 95-43 147-16 51-32 104-47 156-15 53-31 104-46 155-14 51-25 98-34 140-5 27-5 47 0 59 5 13 12 19 22 19 11-1 20-6 29-18s16-27 26-44c9-19 16-37 23-57s13-39 17-56c9-33 19-49 29-47s9 21 2 55c-4 17-10 44-19 81s-21 74-37 112c-16 36-37 70-63 99s-59 44-96 45z"/></g></g></svg>