<svg xmlns="http://www.w3.org/2000/svg" width="207.569" height="167.712" viewBox="0 0 2013 1626" shape-rendering="geometricPrecision" text-rendering="geometricPrecision" image-rendering="optimizeQuality" fill-rule="evenodd" clip-rule="evenodd"><defs><style>.fil4{fill:#fefefe}.fil1{fill:#6f9d82}</style><clipPath id="id0"><path d="M813 90c400 0 724 324 724 723 0 400-324 724-724 724-399 0-723-324-723-724C90 414 414 90 813 90z"/></clipPath></defs><g id="Camada_x0020_1"><path d="M813 90c400 0 724 324 724 723 0 400-324 724-724 724-399 0-723-324-723-724C90 414 414 90 813 90z" fill="#ef5c4e"/><g clip-path="url(#id0)"><g id="_2283821303232"><path id="1" class="fil1" d="M522 1270H277V923c0-110 75-195 170-238 37-16 25-17 1-29-57-29-96-88-96-156 0-95 76-172 170-175 94 3 170 80 170 175 0 68-39 127-96 156-24 12-36 13 1 29 96 43 171 128 171 238v347H522z"/><path class="fil1" d="M1109 1277H864V929c0-109 75-194 170-237 37-17 25-17 1-30-57-29-96-88-96-156 0-94 76-172 170-174 94 2 170 80 170 174 0 68-39 127-95 156-24 13-37 13 0 30 96 43 171 128 171 237v348h-246z"/><path d="M1334 1496h-245v-348c0-109 75-194 170-237 37-17 25-18 1-30-57-29-96-88-96-156 0-94 76-172 170-175 94 3 170 81 170 175 0 68-39 127-96 156-24 12-36 13 1 30 96 43 171 128 171 237v348h-246zm-1042 0H47v-348c0-109 75-194 170-237 37-17 25-18 1-30-57-29-96-88-96-156 0-94 76-172 170-175 94 3 170 81 170 175 0 68-39 127-95 156-24 12-37 13 0 30 96 43 171 128 171 237v348H292z" fill="#fcc43e"/><path d="M830 1560H540v-411c0-130 89-230 201-281 44-20 30-21 1-35-67-34-113-104-113-185 0-112 90-203 201-207 112 4 201 95 201 207 0 81-46 151-113 185-28 14-43 15 2 35 112 51 201 151 201 281v411H830z" fill="#02638d"/><circle class="fil4" cx="759" cy="638" r="27"/><circle class="fil4" cx="902" cy="638" r="27"/><circle class="fil4" cx="1272" cy="713" r="27"/><circle class="fil4" cx="1415" cy="713" r="27"/><circle class="fil4" cx="214" cy="713" r="27"/><circle class="fil4" cx="356" cy="713" r="27"/><circle class="fil4" cx="454" cy="475" r="27"/><circle class="fil4" cx="596" cy="475" r="27"/><circle class="fil4" cx="1052" cy="475" r="27"/><circle class="fil4" cx="1194" cy="475" r="27"/></g></g><path d="M813 90c400 0 724 324 724 723 0 400-324 724-724 724-399 0-723-324-723-724C90 414 414 90 813 90z" fill="none"/><path d="M813 0c449 0 813 364 813 813s-364 813-813 813S0 1262 0 813 364 0 813 0zm0 46c424 0 767 344 767 767 0 424-343 767-767 767-423 0-767-343-767-767C46 390 390 46 813 46zm1067 619l121 121c16 16 16 41 0 57l-131 131c-45 45-80 47-80-34V676c0-95 56-45 90-11z" fill="#6f9d81"/></g></svg>